<svg width="60" height="60" viewBox="0 0 60 60" fill="none" xmlns="http://www.w3.org/2000/svg">
<circle opacity="0.4" cx="30" cy="30" r="30" fill="#948EAE"/>
<path d="M22.12 41V38.216L31.016 29.768C31.7627 29.064 32.3173 28.4453 32.68 27.912C33.0427 27.3787 33.2773 26.888 33.384 26.44C33.512 25.9707 33.576 25.5333 33.576 25.128C33.576 24.104 33.224 23.3147 32.52 22.76C31.816 22.184 30.7813 21.896 29.416 21.896C28.328 21.896 27.336 22.088 26.44 22.472C25.5653 22.856 24.808 23.4427 24.168 24.232L21.256 21.992C22.1307 20.8187 23.304 19.912 24.776 19.272C26.2693 18.6107 27.9333 18.28 29.768 18.28C31.3893 18.28 32.7973 18.5467 33.992 19.08C35.208 19.592 36.136 20.328 36.776 21.288C37.4373 22.248 37.768 23.3893 37.768 24.712C37.768 25.4373 37.672 26.1627 37.48 26.888C37.288 27.592 36.9253 28.3387 36.392 29.128C35.8587 29.9173 35.08 30.8027 34.056 31.784L26.408 39.048L25.544 37.48H38.632V41H22.12Z" fill="white"/>
</svg>
