<svg width="60" height="60" viewBox="0 0 60 60" fill="none" xmlns="http://www.w3.org/2000/svg">
<circle opacity="0.4" cx="30" cy="30" r="30" fill="#948EAE"/>
<path d="M29.448 41.32C27.8693 41.32 26.3227 41.096 24.808 40.648C23.3147 40.1787 22.056 39.5387 21.032 38.728L22.824 35.496C23.6347 36.1573 24.616 36.6907 25.768 37.096C26.92 37.5013 28.1253 37.704 29.384 37.704C30.8773 37.704 32.04 37.4053 32.872 36.808C33.704 36.1893 34.12 35.3573 34.12 34.312C34.12 33.288 33.736 32.4773 32.968 31.88C32.2 31.2827 30.9627 30.984 29.256 30.984H27.208V28.136L33.608 20.52L34.152 22.088H22.12V18.6H37.384V21.384L30.984 29L28.808 27.72H30.056C32.808 27.72 34.8667 28.3387 36.232 29.576C37.6187 30.792 38.312 32.36 38.312 34.28C38.312 35.5387 37.992 36.7013 37.352 37.768C36.712 38.8347 35.7307 39.6987 34.408 40.36C33.1067 41 31.4533 41.32 29.448 41.32Z" fill="white"/>
</svg>
