<svg width="100" height="100" viewBox="0 0 100 100" fill="none" xmlns="http://www.w3.org/2000/svg">
<path d="M78.3667 38.3V37.5L78.3667 29.1691L78.3667 29.1667M78.3667 38.3L70.8333 20.8333C73.0414 20.8399 75.1572 21.72 76.7186 23.2814C78.28 24.8428 79.1601 26.9586 79.1667 29.1667H78.3667M78.3667 38.3H79.1667H86.7M78.3667 38.3H86.7M78.3667 29.1667C78.3601 27.1708 77.5643 25.2584 76.1529 23.8471C74.7413 22.4354 72.8285 21.6396 70.8322 21.6333M78.3667 29.1667L70.8322 21.6333M70.8322 21.6333H62.5H61.7V20.8333V13.3H54.9667V20.8333V21.6333H54.1667H45.8333H45.0333V20.8333V13.3H38.3V20.8333V21.6333H37.5H29.1678C27.1715 21.6396 25.2587 22.4354 23.8471 23.8471C22.4354 25.2587 21.6396 27.1715 21.6333 29.1678V37.5V38.3H20.8333H13.3V45.0333H20.8333H21.6333V45.8333V54.1667V54.9667H20.8333H13.3V61.7H20.8333H21.6333V62.5V70.8322C21.6396 72.8285 22.4354 74.7413 23.8471 76.1529C25.2584 77.5643 27.1708 78.3601 29.1667 78.3667C29.1675 78.3667 29.1683 78.3667 29.1691 78.3667M70.8322 21.6333L29.1667 79.1667L29.1691 78.3667M29.1691 78.3667L37.5 78.3667H38.3V79.1667V86.7H45.0333V79.1667V78.3667H45.8333H54.1667H54.9667V79.1667V86.7H61.7V79.1667V78.3667H62.5L70.8309 78.3667M29.1691 78.3667H70.8309M86.7 38.3V45.0333H79.1667H78.3667V45.8333V54.1667V54.9667H79.1667H86.7V61.7H79.1667H78.3667V62.5L78.3667 70.8309L78.3667 70.8333L86.7 38.3ZM70.8309 78.3667L70.8333 78.3667C70.8325 78.3667 70.8317 78.3667 70.8309 78.3667ZM70.8333 71.6333H71.6333V70.8333V29.1667V28.3667H70.8333H29.1667H28.3667V29.1667V70.8333V71.6333H29.1667H70.8333Z" fill="#392D69" stroke="white" stroke-width="1.6"/>
<path d="M47.3376 33.3334H41.7334L33.3584 66.6667H37.6376L39.5709 58.8542H49.2209L51.1042 66.6667H55.5292L47.3376 33.3334ZM40.1334 55.5167L44.3751 37.2917H44.5667L48.6626 55.5167H40.1334ZM59.3501 33.3334H63.5167V66.6667H59.3501V33.3334Z" fill="#392D69"/>
</svg>
