<svg width="111" height="111" viewBox="0 0 111 111" fill="none" xmlns="http://www.w3.org/2000/svg">
<g opacity="0.3" clip-path="url(#clip0_758_2790)">
<path d="M55.5 68.9365C52.8441 68.9354 50.2481 68.1469 48.0403 66.6706C45.8324 65.1944 44.1118 63.0967 43.0959 60.6427C42.08 58.1888 41.8145 55.4887 42.3329 52.8838C42.8513 50.279 44.1304 47.8863 46.0084 46.0083C47.8865 44.1303 50.2791 42.8512 52.884 42.3328C55.4888 41.8144 58.1889 42.0799 60.6428 43.0958C63.0968 44.1117 65.1945 45.8323 66.6707 48.0401C68.147 50.248 68.9355 52.844 68.9366 55.4999C68.9328 59.0623 67.5159 62.4778 64.9969 64.9968C62.4779 67.5158 59.0625 68.9326 55.5 68.9365ZM55.5 46.5089C53.7218 46.5089 51.9835 47.0362 50.5049 48.0242C49.0263 49.0121 47.8739 50.4163 47.1934 52.0592C46.5129 53.7021 46.3349 55.5099 46.6818 57.254C47.0287 58.9981 47.885 60.6001 49.1424 61.8575C50.3999 63.1149 52.0019 63.9712 53.746 64.3182C55.4901 64.6651 57.2979 64.487 58.9407 63.8065C60.5836 63.126 61.9878 61.9736 62.9758 60.495C63.9637 59.0165 64.491 57.2782 64.491 55.4999C64.4869 53.1166 63.5383 50.8321 61.8531 49.1469C60.1678 47.4616 57.8833 46.513 55.5 46.5089Z" fill="#F4EBFF"/>
<path d="M55.5 77.3504C51.1784 77.3506 46.9537 76.0693 43.3603 73.6685C39.7669 71.2676 36.9661 67.8552 35.3121 63.8626C33.6582 59.8699 33.2253 55.4765 34.0683 51.2379C34.9113 46.9993 36.9922 43.1058 40.048 40.0499C43.1038 36.9939 46.9971 34.9128 51.2357 34.0696C55.4743 33.2264 59.8677 33.6591 63.8604 35.3128C67.8531 36.9666 71.2657 39.7672 73.6667 43.3605C76.0677 46.9538 77.3493 51.1784 77.3493 55.5C77.3428 61.2929 75.0388 66.8467 70.9427 70.943C66.8466 75.0393 61.2929 77.3436 55.5 77.3504ZM55.5 38.0897C52.0565 38.0894 48.6903 39.1104 45.8271 41.0233C42.9638 42.9362 40.7321 45.6553 39.4142 48.8366C38.0963 52.0179 37.7513 55.5186 38.423 58.8959C39.0946 62.2733 40.7527 65.3756 43.1876 67.8106C45.6224 70.2456 48.7246 71.9039 52.1019 72.5758C55.4792 73.2476 58.9799 72.9029 62.1613 71.5852C65.3427 70.2675 68.0619 68.0359 69.975 65.1728C71.8881 62.3097 72.9093 58.9435 72.9093 55.5C72.9049 50.8841 71.0693 46.4584 67.8054 43.1943C64.5415 39.9302 60.116 38.0944 55.5 38.0897Z" fill="#F4EBFF"/>
<path d="M55.5 85.7619C49.5147 85.7619 43.6639 83.9871 38.6874 80.6619C33.7108 77.3366 29.8321 72.6104 27.5416 67.0807C25.2511 61.5511 24.6519 55.4664 25.8195 49.5962C26.9872 43.7259 29.8694 38.3338 34.1016 34.1016C38.3338 29.8694 43.7259 26.9872 49.5962 25.8195C55.4664 24.6519 61.5511 25.2511 67.0807 27.5416C72.6104 29.8321 77.3366 33.7108 80.6619 38.6874C83.9871 43.6639 85.7619 49.5147 85.7619 55.5C85.7528 63.5231 82.5616 71.2151 76.8883 76.8883C71.2151 82.5616 63.5231 85.7528 55.5 85.7619ZM55.5 29.6781C50.3929 29.6781 45.4005 31.1925 41.1541 34.0298C36.9077 36.8672 33.598 40.9 31.6436 45.6184C29.6892 50.3367 29.1779 55.5286 30.1742 60.5376C31.1706 65.5466 33.6299 70.1476 37.2411 73.7588C40.8524 77.3701 45.4534 79.8294 50.4624 80.8258C55.4713 81.8221 60.6633 81.3107 65.3816 79.3563C70.0999 77.4019 74.1328 74.0923 76.9701 69.8459C79.8075 65.5995 81.3219 60.6071 81.3219 55.5C81.314 48.654 78.5909 42.0907 73.7501 37.2499C68.9093 32.409 62.3459 29.686 55.5 29.6781Z" fill="#F4EBFF"/>
<path d="M55.5 94.1747C47.8508 94.1747 40.3735 91.9065 34.0135 87.6568C27.6535 83.4072 22.6965 77.3671 19.7693 70.3002C16.8421 63.2334 16.0762 55.4572 17.5685 47.955C19.0607 40.4529 22.7441 33.5617 28.1529 28.153C33.5616 22.7442 40.4528 19.0608 47.9549 17.5686C55.4571 16.0763 63.2332 16.8422 70.3001 19.7694C77.367 22.6966 83.4071 27.6536 87.6567 34.0136C91.9063 40.3736 94.1746 47.851 94.1746 55.5001C94.1631 65.7537 90.0848 75.5841 82.8344 82.8345C75.584 90.0849 65.7536 94.1632 55.5 94.1747ZM55.5 21.2655C48.729 21.2655 42.1101 23.2733 36.4802 27.035C30.8504 30.7968 26.4624 36.1435 23.8713 42.3991C21.2802 48.6546 20.6022 55.5381 21.9231 62.1789C23.2441 68.8198 26.5046 74.9198 31.2924 79.7076C36.0802 84.4954 42.1802 87.7559 48.8211 89.0769C55.462 90.3978 62.3454 89.7199 68.601 87.1287C74.8565 84.5376 80.2033 80.1497 83.965 74.5198C87.7268 68.89 89.7346 62.271 89.7346 55.5001C89.7243 46.4236 86.1141 37.7219 79.6961 31.3039C73.2781 24.8859 64.5764 21.2757 55.5 21.2655Z" fill="#F4EBFF"/>
<path d="M55.5001 102.587C46.1871 102.587 37.0832 99.8256 29.3397 94.6516C21.5963 89.4776 15.561 82.1235 11.997 73.5195C8.43312 64.9154 7.50064 55.4477 9.31751 46.3137C11.1344 37.1796 15.619 28.7894 22.2043 22.2042C28.7896 15.6189 37.1797 11.1343 46.3138 9.31739C55.4478 7.50051 64.9155 8.433 73.5196 11.9969C82.1237 15.5609 89.4777 21.5962 94.6517 29.3396C99.8257 37.0831 102.587 46.1869 102.587 55.4999C102.573 67.9839 97.6078 79.9526 88.7802 88.7801C79.9527 97.6076 67.9841 102.573 55.5001 102.587ZM55.5001 12.8526C47.0652 12.8526 38.8198 15.3538 31.8065 20.04C24.7932 24.7261 19.3269 31.3867 16.0991 39.1795C12.8712 46.9723 12.0266 55.5472 13.6722 63.82C15.3178 72.0928 19.3795 79.6918 25.3438 85.6561C31.3082 91.6205 38.9072 95.6822 47.18 97.3278C55.4527 98.9733 64.0277 98.1288 71.8205 94.9009C79.6133 91.673 86.2738 86.2068 90.96 79.1935C95.6461 72.1802 98.1474 63.9348 98.1474 55.4999C98.1347 44.193 93.6375 33.3529 85.6423 25.3577C77.6471 17.3625 66.8069 12.8653 55.5001 12.8526Z" fill="#F4EBFF"/>
<path d="M55.5 111C44.5232 111 33.7928 107.745 24.6659 101.647C15.5389 95.5482 8.42537 86.8803 4.22471 76.739C0.0240472 66.5977 -1.07504 55.4385 1.06644 44.6725C3.20792 33.9066 8.49378 24.0174 16.2556 16.2556C24.0174 8.49378 33.9066 3.20792 44.6725 1.06644C55.4385 -1.07504 66.5977 0.0240472 76.739 4.22471C86.8803 8.42537 95.5482 15.5389 101.647 24.6659C107.745 33.7928 111 44.5232 111 55.5C110.983 70.2144 105.131 84.3213 94.726 94.726C84.3213 105.131 70.2144 110.983 55.5 111ZM55.5 4.44002C45.4013 4.44002 35.5294 7.43464 27.1326 13.0452C18.7358 18.6557 12.1913 26.6302 8.32674 35.9602C4.46213 45.2902 3.45097 55.5567 5.42113 65.4613C7.39129 75.366 12.2543 84.464 19.3952 91.6049C26.536 98.7458 35.634 103.609 45.5387 105.579C55.4434 107.549 65.7098 106.538 75.0398 102.673C84.3698 98.8087 92.3443 92.2642 97.9549 83.8674C103.565 75.4707 106.56 65.5987 106.56 55.5C106.544 41.9629 101.16 28.9846 91.5877 19.4123C82.0155 9.84012 69.0372 4.4556 55.5 4.44002Z" fill="#F4EBFF"/>
</g>
<defs>
<clipPath id="clip0_758_2790">
<rect width="111" height="111" fill="white"/>
</clipPath>
</defs>
</svg>
