<svg width="111" height="111" viewBox="0 0 111 111" fill="none" xmlns="http://www.w3.org/2000/svg">
<g opacity="0.3" clip-path="url(#clip0_758_2356)">
<path d="M55.4999 68.9365C52.844 68.9354 50.248 68.1469 48.0401 66.6707C45.8323 65.1944 44.1117 63.0968 43.0958 60.6428C42.0799 58.1888 41.8144 55.4887 42.3328 52.8839C42.8512 50.2791 44.1303 47.8864 46.0083 46.0084C47.8863 44.1304 50.279 42.8513 52.8838 42.3329C55.4887 41.8145 58.1888 42.08 60.6427 43.0958C63.0967 44.1117 65.1944 45.8323 66.6706 48.0402C68.1469 50.2481 68.9354 52.844 68.9365 55.5C68.9326 59.0624 67.5158 62.4778 64.9968 64.9968C62.4778 67.5158 59.0623 68.9327 55.4999 68.9365ZM55.4999 46.509C53.7217 46.509 51.9833 47.0363 50.5048 48.0242C49.0262 49.0122 47.8738 50.4164 47.1933 52.0593C46.5128 53.7022 46.3348 55.5099 46.6817 57.254C47.0286 58.9981 47.8849 60.6002 49.1423 61.8576C50.3997 63.115 52.0018 63.9713 53.7459 64.3182C55.4899 64.6651 57.2977 64.4871 58.9406 63.8066C60.5835 63.1261 61.9877 61.9737 62.9757 60.4951C63.9636 59.0165 64.4909 57.2782 64.4909 55.5C64.4868 53.1167 63.5382 50.8322 61.853 49.1469C60.1677 47.4617 57.8832 46.5131 55.4999 46.509Z" fill="#6F2DBD"/>
<path d="M55.4999 77.3504C51.1783 77.3506 46.9536 76.0693 43.3602 73.6685C39.7668 71.2676 36.966 67.8552 35.312 63.8626C33.6581 59.8699 33.2252 55.4765 34.0682 51.2379C34.9111 46.9993 36.9921 43.1058 40.0479 40.0499C43.1037 36.9939 46.997 34.9128 51.2356 34.0696C55.4742 33.2264 59.8676 33.6591 63.8603 35.3128C67.853 36.9666 71.2656 39.7672 73.6666 43.3605C76.0676 46.9538 77.3491 51.1784 77.3491 55.5C77.3427 61.2929 75.0387 66.8467 70.9426 70.943C66.8465 75.0393 61.2928 77.3436 55.4999 77.3504ZM55.4999 38.0897C52.0564 38.0894 48.6902 39.1104 45.8269 41.0233C42.9637 42.9362 40.732 45.6553 39.414 48.8366C38.0961 52.0179 37.7512 55.5186 38.4228 58.8959C39.0945 62.2733 40.7526 65.3756 43.1874 67.8106C45.6223 70.2456 48.7245 71.9039 52.1018 72.5758C55.4791 73.2476 58.9798 72.9029 62.1612 71.5852C65.3426 70.2675 68.0618 68.0359 69.9749 65.1728C71.888 62.3097 72.9091 58.9435 72.9091 55.5C72.9047 50.8841 71.0692 46.4584 67.8053 43.1943C64.5414 39.9302 60.1159 38.0944 55.4999 38.0897Z" fill="#6F2DBD"/>
<path d="M55.5 85.7619C49.5147 85.7619 43.6639 83.9871 38.6874 80.6619C33.7108 77.3366 29.8321 72.6104 27.5416 67.0807C25.2511 61.5511 24.6519 55.4664 25.8195 49.5962C26.9872 43.7259 29.8694 38.3338 34.1016 34.1016C38.3338 29.8694 43.7259 26.9872 49.5962 25.8195C55.4664 24.6519 61.5511 25.2511 67.0807 27.5416C72.6104 29.8321 77.3366 33.7108 80.6619 38.6874C83.9871 43.6639 85.7619 49.5147 85.7619 55.5C85.7528 63.5231 82.5616 71.2151 76.8883 76.8883C71.2151 82.5616 63.5231 85.7528 55.5 85.7619ZM55.5 29.6781C50.3929 29.6781 45.4005 31.1925 41.1541 34.0298C36.9077 36.8672 33.598 40.9 31.6436 45.6184C29.6892 50.3367 29.1779 55.5286 30.1742 60.5376C31.1706 65.5466 33.6299 70.1476 37.2411 73.7588C40.8524 77.3701 45.4534 79.8294 50.4624 80.8258C55.4713 81.8221 60.6633 81.3107 65.3816 79.3563C70.0999 77.4019 74.1328 74.0923 76.9701 69.8459C79.8075 65.5995 81.3219 60.6071 81.3219 55.5C81.314 48.654 78.5909 42.0907 73.7501 37.2499C68.9093 32.409 62.3459 29.686 55.5 29.6781Z" fill="#6F2DBD"/>
<path d="M55.5001 94.1746C47.851 94.1746 40.3736 91.9064 34.0136 87.6568C27.6536 83.4072 22.6966 77.367 19.7694 70.3002C16.8422 63.2333 16.0763 55.4571 17.5686 47.955C19.0608 40.4528 22.7442 33.5617 28.153 28.1529C33.5617 22.7442 40.4529 19.0608 47.955 17.5685C55.4572 16.0762 63.2334 16.8421 70.3002 19.7693C77.3671 22.6965 83.4072 27.6535 87.6568 34.0135C91.9065 40.3736 94.1747 47.8509 94.1747 55.5C94.1632 65.7536 90.0849 75.584 82.8345 82.8344C75.5841 90.0849 65.7537 94.1632 55.5001 94.1746ZM55.5001 21.2654C48.7291 21.2654 42.1102 23.2732 36.4803 27.035C30.8505 30.7967 26.4625 36.1434 23.8714 42.399C21.2803 48.6546 20.6023 55.538 21.9233 62.1789C23.2442 68.8197 26.5047 74.9197 31.2925 79.7075C36.0803 84.4953 42.1804 87.7559 48.8212 89.0768C55.4621 90.3978 62.3455 89.7198 68.6011 87.1287C74.8567 84.5375 80.2034 80.1496 83.9651 74.5197C87.7269 68.8899 89.7347 62.271 89.7347 55.5C89.7244 46.4236 86.1143 37.7219 79.6963 31.3038C73.2782 24.8858 64.5765 21.2757 55.5001 21.2654Z" fill="#6F2DBD"/>
<path d="M55.4999 102.587C46.1869 102.587 37.0831 99.8257 29.3396 94.6517C21.5962 89.4776 15.5609 82.1236 11.9969 73.5195C8.433 64.9154 7.50051 55.4478 9.31739 46.3137C11.1343 37.1797 15.6189 28.7895 22.2042 22.2042C28.7894 15.619 37.1796 11.1343 46.3137 9.31745C55.4477 7.50058 64.9154 8.43306 73.5195 11.997C82.1235 15.5609 89.4776 21.5962 94.6516 29.3397C99.8256 37.0832 102.587 46.187 102.587 55.5C102.573 67.984 97.6076 79.9526 88.7801 88.7802C79.9526 97.6077 67.9839 102.573 55.4999 102.587ZM55.4999 12.8527C47.0651 12.8527 38.8197 15.3539 31.8064 20.04C24.793 24.7262 19.3268 31.3868 16.099 39.1796C12.8711 46.9723 12.0265 55.5473 13.6721 63.8201C15.3176 72.0928 19.3794 79.6919 25.3437 85.6562C31.3081 91.6205 38.9071 95.6823 47.1799 97.3279C55.4526 98.9734 64.0276 98.1288 71.8204 94.901C79.6131 91.6731 86.2737 86.2069 90.9599 79.1936C95.646 72.1803 98.1472 63.9348 98.1472 55.5C98.1346 44.1931 93.6374 33.3529 85.6422 25.3577C77.647 17.3626 66.8068 12.8653 55.4999 12.8527Z" fill="#6F2DBD"/>
<path d="M55.5 111C44.5232 111 33.7928 107.745 24.6659 101.647C15.5389 95.5482 8.42537 86.8803 4.22471 76.739C0.0240472 66.5977 -1.07504 55.4385 1.06644 44.6725C3.20792 33.9066 8.49378 24.0174 16.2556 16.2556C24.0174 8.49378 33.9066 3.20792 44.6725 1.06644C55.4385 -1.07504 66.5977 0.0240472 76.739 4.22471C86.8803 8.42537 95.5482 15.5389 101.647 24.6659C107.745 33.7928 111 44.5232 111 55.5C110.983 70.2144 105.131 84.3213 94.726 94.726C84.3213 105.131 70.2144 110.983 55.5 111ZM55.5 4.44002C45.4013 4.44002 35.5294 7.43464 27.1326 13.0452C18.7358 18.6557 12.1913 26.6302 8.32674 35.9602C4.46213 45.2902 3.45097 55.5567 5.42113 65.4613C7.39129 75.366 12.2543 84.464 19.3952 91.6049C26.536 98.7458 35.634 103.609 45.5387 105.579C55.4434 107.549 65.7098 106.538 75.0398 102.673C84.3698 98.8087 92.3443 92.2642 97.9549 83.8674C103.565 75.4707 106.56 65.5987 106.56 55.5C106.544 41.9629 101.16 28.9846 91.5877 19.4123C82.0155 9.84012 69.0372 4.4556 55.5 4.44002Z" fill="#6F2DBD"/>
</g>
<defs>
<clipPath id="clip0_758_2356">
<rect width="111" height="111" fill="white"/>
</clipPath>
</defs>
</svg>
