<svg width="91" height="76" viewBox="0 0 91 76" fill="none" xmlns="http://www.w3.org/2000/svg">
<path d="M18.7246 51.0478C18.7246 51.828 18.8113 52.5215 18.898 53.3017C18.898 53.7351 19.6782 53.7351 19.5915 53.3017C19.5048 52.5215 19.5048 51.828 19.4181 51.0478C19.5048 50.5277 18.7246 50.5277 18.7246 51.0478Z" fill="#F4EBFF"/>
<path d="M16.3839 8.31191C17.4241 8.48529 18.5511 8.65867 19.5913 8.83204C18.2043 9.69891 17.6842 10.6525 19.3312 11.1726C21.4984 11.9528 25.0526 10.9992 27.6532 10.1323C31.9876 10.9125 36.4086 11.606 40.743 12.3862C39.0093 13.0797 37.1888 13.5132 36.2353 13.7732C35.8018 13.8599 35.9752 14.5534 36.4086 14.38C37.2755 14.12 39.9628 13.5132 42.3034 12.5596C43.4303 12.733 44.5573 12.9063 45.6842 13.1664C46.1176 13.2531 46.291 12.6463 45.8576 12.5596C45.0774 12.3862 44.2105 12.2995 43.4303 12.1262C44.2972 11.6927 45.0774 11.2593 45.5975 10.8258C46.4644 10.9992 47.4179 11.1726 48.2848 11.346C48.7182 11.4327 48.8916 10.8258 48.4582 10.7392C47.678 10.5658 46.8978 10.4791 46.1176 10.3057C46.291 10.0457 46.4644 9.69891 46.3777 9.35216C46.2043 5.97136 38.2291 6.75154 36.4086 7.09829C35.0217 7.35836 33.6346 7.7051 32.2477 8.05185C29.8204 7.7051 27.3932 7.35836 24.9659 7.09829C25.9195 6.75154 26.9597 6.40479 28 6.05805C28.4334 5.88467 28.26 5.27786 27.8266 5.45123C27.3932 5.62461 25.5727 6.14473 23.5789 6.92492C22.6254 6.83823 21.6718 6.66486 20.7182 6.57817C20.2848 6.49148 20.2848 7.18498 20.7182 7.27167C21.2384 7.35835 21.8452 7.44504 22.3653 7.44504C21.6718 7.7051 20.9783 8.05185 20.4582 8.3986C19.1579 8.13854 17.8576 7.96516 16.5573 7.7051C16.1238 7.61841 15.9504 8.31191 16.3839 8.31191ZM21.065 10.6525C18.3777 10.7392 19.1579 9.87228 20.5449 9.00541C22.3653 9.26547 24.099 9.61222 25.9195 9.87228C24.3591 10.3924 22.712 10.6525 21.065 10.6525ZM41.7833 11.9528C37.5356 11.2593 33.2012 10.4791 28.9535 9.7856C29.0402 9.7856 29.1269 9.69891 29.2136 9.69891C30.1672 9.43885 31.2074 9.0921 32.3343 8.74535C36.322 9.35216 40.2229 9.95897 44.1238 10.6525C43.517 11.0859 42.7368 11.606 41.7833 11.9528ZM42.3901 7.79179C44.4706 8.57198 44.9907 9.35216 44.5572 10.1323C40.9164 9.52554 37.3622 8.91873 33.7213 8.3986C36.6687 7.44504 39.8761 6.83823 42.3901 7.79179ZM23.3189 7.7051C23.4056 7.61841 23.5789 7.61842 23.6656 7.53173C26.0062 7.79179 28.4334 8.13854 30.774 8.48529C29.647 8.83204 28.5201 9.17879 27.3932 9.52554C25.3994 9.17879 23.4055 8.83204 21.4984 8.48529C22.1919 8.22523 22.8854 7.87848 23.3189 7.7051Z" fill="#F4EBFF"/>
<path d="M50.7122 6.57766C51.9258 6.75104 53.2261 7.0111 54.3531 7.79129C55.5667 8.65816 56.1735 10.3052 54.9599 11.5188C54.6131 11.7789 55.1332 12.299 55.3933 11.9523C56.4336 10.912 56.4336 9.35166 55.5667 8.13804C54.4397 6.66435 52.5326 6.23091 50.7989 5.97085C50.4521 5.88417 50.2788 6.49098 50.7122 6.57766Z" fill="#F4EBFF"/>
<path d="M16.0372 13.5128C16.4706 13.5995 16.644 12.9926 16.2106 12.906C15.257 12.7326 14.3034 12.3858 13.4366 11.8657C12.6564 11.4323 10.6626 10.0453 11.5294 8.91834C11.7895 8.57159 11.3561 8.13815 11.096 8.4849C9.10219 10.9121 14.3034 13.166 16.0372 13.5128Z" fill="#F4EBFF"/>
<path d="M89.808 53.042C85.647 47.234 74.3777 46.8872 68.0495 46.5405C64.582 46.3671 60.8545 46.2804 57.2136 46.5405C57.3003 43.2464 57.3003 39.9522 57.2136 36.5714C57.3003 34.8377 56.2601 33.1906 54.6997 31.8903C54.6997 29.9832 54.7864 28.0761 54.7864 26.169C57.4737 24.9553 59.6409 23.3083 60.8545 20.9677C60.8545 20.9677 60.8545 20.9677 60.8545 20.881V20.7944C60.8545 20.7077 60.9412 20.621 60.9412 20.5343C60.9412 20.4476 60.9412 20.4476 60.9412 20.3609C61.0279 17.1535 61.0279 13.9461 60.9412 10.7386C61.2012 9.61169 61.0279 8.31138 59.9876 6.92438C55.8266 1.11633 44.5573 0.769584 38.2291 0.422835C29.7337 -0.0106016 20.1115 0.24946 12.1362 3.45689C9.96904 4.32376 7.02167 5.71076 6.41486 8.22469C6.32818 8.39807 6.24149 8.48475 6.24149 8.74481C6.24149 10.912 6.24149 13.0792 6.32817 15.2464C3.90093 16.1999 0.693499 17.5869 0.0866876 20.2742C3.29394e-07 20.3609 0 20.5343 0 20.7077C0 24.782 0.173375 28.7696 0 32.8439C0 33.0173 3.29394e-07 33.1906 0.0866876 33.364C0.0866876 33.364 0.086688 33.4507 0.173375 33.4507L0.260063 33.5374C0.34675 33.6241 0.346749 33.6241 0.433437 33.7108C1.12694 34.4043 1.90712 35.0111 2.68731 35.5312C2.68731 39.4321 2.86068 43.333 2.68731 47.234C2.68731 47.4074 2.68731 47.5807 2.77399 47.7541C2.77399 47.7541 2.77399 47.7541 2.77399 47.8408C2.77399 47.9275 2.86068 47.9275 2.86068 48.0142C2.94737 48.1008 2.94737 48.1009 3.03406 48.1875C11.7028 56.1628 24.9659 56.943 36.2353 55.7293C36.2353 59.4569 36.4087 63.1844 36.2353 66.912C36.2353 67.0854 36.2353 67.2588 36.322 67.4321C36.322 67.4321 36.322 67.5188 36.4087 67.5188L36.4954 67.6055C36.582 67.6922 36.582 67.6922 36.6687 67.7789C44.7307 75.3207 57.3003 76.3609 67.7895 75.494C74.3777 74.9739 87.3808 73.847 90.8483 66.912C90.8483 66.912 90.8483 66.912 90.8483 66.8253V66.7386C90.8483 66.6519 90.935 66.5653 90.935 66.4786C90.935 66.3919 90.935 66.3919 90.935 66.3052C91.0217 63.0978 91.0217 59.8903 90.935 56.6829C91.1084 55.7293 90.8483 54.429 89.808 53.042ZM78.1919 49.7479C81.3994 50.4414 86.2539 51.2216 88.2477 54.169C88.5944 54.6891 88.7678 55.2092 88.8545 55.6427C88.8545 55.816 88.8545 56.0761 88.8545 56.2495C88.4211 59.5436 81.226 61.364 78.7988 62.0575C67.5294 64.9182 56.3467 65.6984 45.3375 61.5374C43.517 60.7572 41.0898 59.8036 39.8762 58.2433C38.8359 56.8563 39.096 53.7355 40.3096 52.5219C40.743 52.0885 41.6099 51.8284 42.2167 51.5683C45.6842 50.0947 49.4985 49.4012 53.226 48.9677C61.3746 47.9275 70.0433 48.0142 78.1919 49.7479ZM86.1672 61.364C86.5139 61.1906 86.8607 61.0173 87.2074 60.7572C87.2074 63.1844 87.2074 65.6117 87.2074 68.1256C86.8607 68.3857 86.5139 68.6457 86.1672 68.8191C86.1672 66.3919 86.1672 63.8779 86.1672 61.364ZM85.4737 69.2526C84.6068 69.7727 83.6532 70.1194 82.6997 70.4662C82.9597 67.9522 83.1331 65.3516 83.3932 62.8377C83.3932 62.751 83.3932 62.6643 83.3065 62.5776C84 62.3176 84.6935 62.0575 85.387 61.7108C85.387 64.138 85.387 66.6519 85.387 69.0792C85.4737 69.1659 85.4737 69.2526 85.4737 69.2526ZM52.6192 46.9739C52.6192 45.3269 52.6192 43.7665 52.6192 42.1194C52.9659 41.9461 53.3127 41.686 53.6594 41.5126C53.6594 43.333 53.6594 45.0668 53.6594 46.8872C53.3127 46.8872 52.9659 46.9739 52.6192 46.9739ZM51.839 47.0606C51.0588 47.1473 50.192 47.3207 49.4118 47.494C49.4985 46.107 49.6718 44.72 49.7585 43.333C50.452 43.073 51.1455 42.8129 51.839 42.4662C51.839 44.0265 51.839 45.5869 51.839 47.0606ZM48.7183 47.6674C46.6378 48.1008 44.644 48.621 42.6502 49.4012C42.6502 48.0142 42.6502 46.6272 42.6502 45.1535C44.7307 44.8067 46.8978 44.2866 48.9783 43.6798C48.9783 44.9801 48.805 46.2804 48.7183 47.6674ZM41.9567 49.5745C41.9567 49.6612 41.9567 49.6612 41.9567 49.5745C39.8762 50.3547 37.2755 51.655 36.4087 53.7355C34.7616 53.9089 33.1146 54.0823 31.3808 54.169C31.5542 51.7417 31.6409 49.2278 31.8142 46.8005C31.8142 46.7139 31.8142 46.6272 31.7276 46.6272C33.8947 46.4538 35.9752 46.1937 38.1424 45.847C39.2694 45.6736 40.5697 45.5002 41.9567 45.2402C41.9567 46.7139 41.9567 48.1875 41.9567 49.5745ZM38.0557 59.2835C38.5759 59.8036 39.1827 60.3238 39.8762 60.7572C39.8762 63.1844 39.8762 65.6117 39.8762 68.1256C39.2694 67.6922 38.6625 67.1721 38.0557 66.6519C38.1424 64.2247 38.0557 61.7108 38.0557 59.2835ZM40.5697 61.2773C41.0898 61.5374 41.5232 61.8841 42.0433 62.0575V62.1442C42.2167 64.6581 42.3034 67.1721 42.4768 69.7727C41.87 69.4259 41.2632 69.0792 40.6563 68.6457C40.5697 66.2185 40.5697 63.7046 40.5697 61.2773ZM42.7368 62.4043C43.3437 62.751 43.9505 63.0111 44.4706 63.1844H44.5573C44.644 63.1844 44.644 63.2711 44.7307 63.2711C45.4242 63.5312 46.031 63.7046 46.7245 63.9646C46.7245 66.4786 46.8111 69.0792 46.8111 71.5931C45.5108 71.1597 44.2972 70.6395 43.1703 70.0327C42.9969 67.6055 42.9102 65.0049 42.7368 62.4043ZM54.3529 46.8005C54.3529 44.8934 54.3529 42.8996 54.3529 40.9925C54.6997 40.7324 55.0464 40.4724 55.3065 40.1256C55.3065 42.2928 55.3065 44.46 55.2198 46.7139C54.9598 46.7139 54.613 46.7139 54.3529 46.8005ZM33.2879 44.6334C28.3467 45.1535 23.1455 45.0668 18.291 43.9399C14.8235 43.1597 7.19505 41.2526 5.11455 37.2649C12.9164 41.686 22.8854 42.2061 31.4675 41.5126C37.7957 40.9925 50.0186 39.9522 54.0062 33.7108C60.8545 40.299 36.8421 44.2866 33.2879 44.6334ZM1.90712 25.3888C2.42725 25.9089 3.03406 26.429 3.72756 26.8625C3.72756 29.2897 3.72756 31.7169 3.72756 34.1442C3.12074 33.7108 2.51393 33.1906 1.90712 32.6705C1.99381 30.2433 1.90712 27.816 1.90712 25.3888ZM16.9907 33.0173C16.9907 32.5838 16.9907 32.1504 16.9907 31.717C20.805 32.4105 24.7059 32.5838 28.6068 32.3238V32.4104C28.4334 34.8377 28.3468 37.3516 28.1734 39.7789C24.4458 39.8656 20.6316 39.7789 16.8173 39.1721C16.9907 39.1721 17.0774 38.9987 17.0774 38.8253C16.9907 38.0451 16.9907 37.3516 16.904 36.5714C16.904 36.138 16.1238 36.138 16.2105 36.5714C16.2972 37.3516 16.2972 38.0451 16.3839 38.8253C16.3839 38.9987 16.4706 39.0854 16.5573 39.0854C14.8235 38.8253 13.0898 38.3919 11.4427 37.8717C11.4427 35.3578 11.356 32.7572 11.356 30.2433C13.0031 30.7634 14.6502 31.1968 16.2972 31.5436C16.2972 31.5436 16.2972 31.5436 16.2972 31.6303C16.2972 32.0637 16.2972 32.4971 16.2972 32.9306C16.2972 33.4507 16.9907 33.4507 16.9907 33.0173ZM23.2322 24.6953C23.2322 24.2618 22.452 24.2618 22.5387 24.6953C22.5387 25.4755 22.6254 26.169 22.7121 26.9492C22.7121 27.1225 22.7988 27.2092 22.8855 27.2092C21.1517 26.9492 19.418 26.5157 17.7709 25.9956C17.7709 23.395 17.6842 20.881 17.6842 18.2804C19.3313 18.8005 21.065 19.234 22.7121 19.494C22.7121 19.5807 22.6254 19.5807 22.6254 19.6674C22.6254 20.1009 22.6254 20.5343 22.6254 20.9677C22.6254 21.4012 23.3189 21.4012 23.3189 20.9677C23.3189 20.5343 23.3189 20.1009 23.3189 19.6674C23.3189 19.6674 23.3189 19.6674 23.3189 19.5807C27.2198 20.2742 31.1207 20.3609 35.0217 20.1875C34.935 20.2742 34.935 20.3609 34.935 20.4476C34.7616 22.8748 34.6749 25.3888 34.5015 27.816C30.774 27.9027 26.9598 27.816 23.1455 27.2092C23.3189 27.2092 23.4056 27.0358 23.4056 26.8625C23.3189 26.169 23.2322 25.3888 23.2322 24.6953ZM8.23529 13.4259C8.75542 13.9461 9.36223 14.4662 10.0557 14.8996C10.0557 17.3269 10.0557 19.7541 10.0557 22.268C9.44892 21.8346 8.84211 21.3145 8.23529 20.7944C8.32198 18.2804 8.23529 15.8532 8.23529 13.4259ZM10.7492 15.3331C11.2694 15.5931 11.7028 15.9399 12.2229 16.1132V16.1999C12.3963 18.7139 12.483 21.2278 12.6563 23.8284C12.0495 23.4817 11.4427 23.1349 10.8359 22.7015C10.7492 20.2742 10.7492 17.7603 10.7492 15.3331ZM13.3498 24.2618C13.1765 21.6612 13.0898 19.1473 12.9164 16.5467C13.5232 16.8934 14.13 17.1535 14.6502 17.3269H14.7368C14.8235 17.3269 14.8235 17.4135 14.9102 17.4135C15.6037 17.6736 16.2105 17.847 16.904 18.107C16.904 20.621 16.9907 23.2216 16.9907 25.7355C15.7771 25.3021 14.5635 24.782 13.3498 24.2618ZM55.6532 23.3083C54.7864 23.8284 53.8328 24.1752 52.8793 24.5219C53.1393 22.008 53.3127 19.4074 53.5728 16.8934C53.5728 16.8067 53.5728 16.72 53.4861 16.6334C54.1796 16.3733 54.8731 16.1132 55.5666 15.7665C55.5666 18.1937 55.5666 20.7077 55.5666 23.1349C55.6533 23.2216 55.6532 23.3083 55.6532 23.3083ZM56.3468 15.4197C56.6935 15.2464 57.0402 15.073 57.387 14.8129C57.387 17.2402 57.387 19.6674 57.387 22.1813C57.0402 22.4414 56.6935 22.7015 56.3468 22.8748C56.3468 20.4476 56.3468 17.9337 56.3468 15.4197ZM52.8793 16.8934C52.6192 19.494 52.3591 22.1813 52.1858 24.782C51.7523 24.9553 51.4056 25.042 50.9721 25.2154C49.4985 25.7355 47.9381 26.0823 46.3777 26.429C46.3777 23.8284 46.4644 21.2278 46.4644 18.6272C47.5046 18.3671 48.4582 18.1937 49.4985 17.9337C50.3653 17.6736 51.579 17.3269 52.8793 16.8934ZM50.0186 34.9244C50.0186 32.5838 50.0186 30.2433 50.0186 27.9027C50.3653 27.816 50.7121 27.7293 51.0588 27.6426C51.0588 29.8098 51.0588 32.0637 51.0588 34.2309C50.7121 34.4043 50.3653 34.6643 50.0186 34.9244ZM46.5511 28.943C46.291 31.5436 46.031 34.1442 45.8576 36.8315C45.4241 37.0049 45.0774 37.0916 44.644 37.2649C43.1703 37.7851 41.6099 38.1318 40.0495 38.4786C40.0495 35.8779 40.1362 33.2773 40.1362 30.7634C42.3034 30.1566 44.4706 29.6365 46.5511 28.943ZM47.2446 28.8563C47.2446 28.7696 47.2446 28.6829 47.1579 28.5962C47.2446 28.5095 47.2446 28.5095 47.2446 28.4228C47.9381 28.3361 48.5449 28.1628 49.2384 27.9894C49.2384 30.33 49.2384 32.7572 49.2384 35.0978C49.2384 35.1844 49.2384 35.1844 49.2384 35.2711C48.3715 35.7913 47.418 36.138 46.4644 36.4848C46.8111 33.9708 46.9845 31.4569 47.2446 28.8563ZM45.6842 26.6024C42.7368 27.2092 39.7895 27.556 36.7554 27.7293C36.2353 27.7293 35.7152 27.816 35.195 27.816C35.3684 25.3888 35.4551 22.8748 35.6285 20.4476C35.6285 20.2742 35.5418 20.1875 35.4551 20.1875C38.8359 19.9275 42.3034 19.494 45.7709 18.7139C45.6842 21.4012 45.6842 24.0018 45.6842 26.6024ZM39.4427 30.8501C39.4427 33.4507 39.356 36.0513 39.356 38.5652C36.4087 39.1721 33.4613 39.5188 30.4272 39.6922C29.9071 39.6922 29.387 39.7789 28.8669 39.7789C29.0402 37.3516 29.1269 34.8377 29.3003 32.4104C29.3003 32.3238 29.3003 32.3238 29.3003 32.2371C32.6811 32.0637 36.0619 31.5436 39.4427 30.8501ZM10.5759 30.1566C10.5759 32.6705 10.6625 35.2711 10.6625 37.7851C9.36223 37.3516 8.14861 36.8315 7.02167 36.2247C6.8483 33.6241 6.76161 31.1101 6.58824 28.5095C7.28174 28.8563 7.97523 29.1163 8.58204 29.3764C9.27554 29.6365 9.88235 29.8965 10.5759 30.1566ZM6.24149 35.7913C5.63468 35.4445 5.02786 35.0978 4.42105 34.6643C4.42105 32.2371 4.42105 29.7231 4.42105 27.2959C4.94118 27.556 5.37461 27.9027 5.89474 28.0761C5.89474 28.0761 5.89474 28.0761 5.89474 28.1628C5.98142 30.7634 6.1548 33.2773 6.24149 35.7913ZM4.50774 39.6922C5.02786 40.299 5.63467 40.7324 6.32817 41.2526C6.32817 43.6798 6.32817 46.107 6.32817 48.5343C5.72136 48.1008 5.11455 47.5807 4.50774 47.0606C4.59443 44.6334 4.50774 42.2061 4.50774 39.6922ZM7.02167 41.7727C7.45511 42.0327 7.97523 42.2928 8.49536 42.5529C8.66873 45.0668 8.75542 47.5807 8.92879 50.0947C8.32198 49.7479 7.71517 49.4012 7.10836 48.9677C7.02167 46.6272 7.02167 44.1999 7.02167 41.7727ZM9.18886 42.8996C10.4892 43.5064 11.8762 44.0266 13.1765 44.46C13.1765 46.9739 13.2632 49.5745 13.2632 52.0885C11.9628 51.655 10.7492 51.1349 9.62229 50.5281C9.44892 48.0142 9.36223 45.5002 9.18886 42.8996ZM52.7926 32.0637C52.5325 32.5838 52.1858 33.104 51.7523 33.5374C51.7523 31.4569 51.7523 29.4631 51.7523 27.3826C52.0991 27.2959 52.5325 27.1225 52.8793 27.0358C52.7926 28.6829 52.7926 30.4166 52.7926 32.0637ZM58.0805 21.5745C58.0805 19.234 58.0805 16.8067 58.0805 14.4662C58.4272 14.2061 58.774 13.9461 59.0341 13.686C59.0341 15.9399 59.0341 18.107 58.9474 20.3609C58.774 20.7944 58.4272 21.1411 58.0805 21.5745ZM10.4892 6.57763C10.9226 6.1442 11.7895 5.88414 12.3963 5.62407C15.8638 4.15039 19.678 3.45689 23.4056 3.02345C31.6409 1.98321 40.2229 2.06989 48.3715 3.71695C51.5789 4.41045 56.4334 5.19063 58.4272 8.138C58.774 8.65813 58.9474 9.17825 59.0341 9.61169C59.0341 9.78506 59.0341 10.0451 59.0341 10.2185C58.6006 13.5126 51.4056 15.3331 48.9783 16.0266C37.709 18.8872 26.5263 19.6674 15.517 15.5064C13.6966 14.7262 11.2694 13.7727 10.0557 12.2123C8.92879 10.912 9.18886 7.79125 10.4892 6.57763ZM6.32817 17.5869C6.32817 18.7139 6.32817 19.9275 6.24149 21.0544C6.24149 21.2278 6.24149 21.4012 6.32817 21.5745C6.32817 21.5745 6.32818 21.6612 6.41486 21.6612L6.50155 21.7479C6.58824 21.8346 6.58824 21.8346 6.67492 21.9213C13.87 28.6829 24.6192 30.1566 34.3282 29.8965C29.9938 30.59 25.6594 30.8501 21.4118 30.5033C16.9907 30.1566 12.3963 29.1163 8.32198 27.2959C6.76161 26.6024 4.7678 25.6488 3.64087 24.3485C0.780186 21.0544 3.72755 18.8005 6.32817 17.5869ZM14.0433 52.3485C14.0433 49.8346 13.9567 47.234 13.9567 44.7201C14.13 44.8067 14.3034 44.8067 14.4768 44.8934C15.9505 45.4135 17.4242 45.7603 18.9845 46.0204C18.9845 46.4538 18.9845 46.8872 18.9845 47.3207C18.9845 47.7541 19.678 47.7541 19.678 47.3207C19.678 46.8872 19.678 46.4538 19.678 46.107C23.4923 46.8005 27.3932 46.8872 31.2941 46.6272C31.2941 46.7139 31.2074 46.7139 31.2074 46.8005C31.0341 49.2278 30.9474 51.7417 30.774 54.169C25.1393 54.5157 19.2446 54.0823 14.0433 52.3485ZM52.8793 73.1535C53.0526 73.1535 53.1393 72.9801 53.1393 72.8067C53.0526 72.0266 53.0526 71.333 52.9659 70.5529C52.9659 70.1194 52.1858 70.1194 52.2724 70.5529C52.2724 71.333 52.3591 72.0266 52.4458 72.8067C52.4458 72.9801 52.5325 73.0668 52.6192 73.0668C50.8855 72.8067 49.1517 72.3733 47.5046 71.8532C47.5046 69.2526 47.418 66.7386 47.418 64.138C49.065 64.6581 50.7988 65.0916 52.4458 65.3516C52.4458 65.4383 52.3591 65.4383 52.3591 65.525C52.3591 65.9584 52.3591 66.3919 52.3591 66.8253C52.3591 67.2588 53.0526 67.2588 53.0526 66.8253C53.0526 66.3919 53.0526 65.9584 53.0526 65.525C53.0526 65.525 53.0526 65.525 53.0526 65.4383C56.9536 66.1318 60.8545 66.2185 64.7554 66.0451C64.6687 66.1318 64.6687 66.2185 64.6687 66.3052C64.4954 68.7324 64.4087 71.2464 64.2353 73.6736C60.5944 73.9337 56.6935 73.847 52.8793 73.1535ZM66.5759 73.6736C66.0557 73.6736 65.5356 73.7603 65.0155 73.7603C65.1889 71.3331 65.2755 68.8191 65.4489 66.3919C65.4489 66.2185 65.3622 66.1318 65.2755 66.1318C68.6563 65.8717 72.1238 65.4383 75.5913 64.6581C75.5913 67.2588 75.5047 69.8594 75.5047 72.46C72.5573 73.1535 69.5232 73.5002 66.5759 73.6736ZM76.1981 72.3733C76.1981 69.7727 76.2848 67.1721 76.2848 64.5714C77.3251 64.3114 78.2786 64.138 79.3189 63.8779C80.1858 63.6179 81.3994 63.3578 82.6997 62.8377C82.4396 65.4383 82.1796 68.1256 82.0062 70.7262C81.5728 70.8996 81.226 70.9863 80.7926 71.1597C79.2322 71.5931 77.7585 72.0266 76.1981 72.3733ZM87.9009 67.4321C87.9009 65.0916 87.9009 62.6643 87.9009 60.3238C88.2477 60.0637 88.5944 59.8036 88.8545 59.5436C88.8545 61.7974 88.8545 63.9646 88.7678 66.2185C88.5944 66.6519 88.2477 67.0854 87.9009 67.4321Z" fill="#F4EBFF"/>
<path d="M50.4521 52.5215C50.0187 52.4348 50.0187 53.1283 50.4521 53.215C50.9723 53.3017 51.5791 53.3884 52.0992 53.3884C51.4057 53.6485 50.7122 53.9952 50.1921 54.342C48.8918 54.0819 47.5914 53.9085 46.2911 53.6485C45.8577 53.5618 45.6843 54.1686 46.1178 54.2553C47.158 54.4287 48.2849 54.602 49.3252 54.7754C47.9382 55.6423 47.4181 56.5958 49.0651 57.116C51.2323 57.8961 54.7865 56.9426 57.3871 56.0757C61.7215 56.8559 66.1425 57.5494 70.4769 58.3296C68.7432 59.0231 66.9227 59.4565 65.9692 59.7166C65.5357 59.8033 65.7091 60.4968 66.1425 60.3234C67.0094 60.0633 69.6967 59.4565 72.0373 58.5029C73.1642 58.6763 74.2911 58.8497 75.4181 59.1098C75.8515 59.1965 76.0249 58.5896 75.5915 58.5029C74.8113 58.3296 73.9444 58.2429 73.1642 58.0695C74.0311 57.6361 74.8113 57.2026 75.3314 56.7692C76.1983 56.9426 77.1518 57.116 78.0187 57.2893C78.4521 57.376 78.6255 56.7692 78.1921 56.6825C77.4119 56.5091 76.6317 56.4225 75.8515 56.2491C76.0249 55.989 76.1983 55.6423 76.1116 55.2955C75.9382 51.9147 67.963 52.6949 66.1425 53.0417C64.7555 53.3017 63.3685 53.6485 61.9815 53.9952C59.5543 53.6485 57.1271 53.3017 54.6998 53.0417C55.6534 52.6949 56.6936 52.3482 57.7339 52.0014C58.1673 51.828 57.9939 51.2212 57.5605 51.3946C57.1271 51.568 55.3066 52.0881 53.3128 52.8683C52.4459 52.6949 51.4924 52.6082 50.4521 52.5215ZM50.8856 56.5958C48.1983 56.6825 48.9784 55.8156 50.3654 54.9488C52.1859 55.2088 53.9196 55.5556 55.7401 55.8156C54.1797 56.2491 52.5326 56.5091 50.8856 56.5958ZM71.6038 57.8961C67.3562 57.2026 63.0218 56.4225 58.7741 55.729C58.8608 55.729 58.9475 55.6423 59.0342 55.6423C59.9877 55.3822 61.028 55.0355 62.1549 54.6887C66.1425 55.2955 70.0435 55.9023 73.9444 56.5958C73.3376 57.0293 72.5574 57.4627 71.6038 57.8961ZM72.2106 53.6485C74.2911 54.4286 74.8113 55.2088 74.3778 55.989C70.737 55.3822 67.1828 54.7754 63.5419 54.2553C66.4893 53.3884 69.61 52.6949 72.2106 53.6485ZM60.5945 54.4286C59.4676 54.7754 58.3407 55.1221 57.2137 55.4689C55.2199 55.1221 53.2261 54.7754 51.319 54.4286C52.0125 54.0819 52.706 53.7351 53.1394 53.6485C53.2261 53.5618 53.3995 53.5618 53.4862 53.4751C55.8267 53.8218 58.254 54.0819 60.5945 54.4286Z" fill="#F4EBFF"/>
<path d="M80.4459 52.522C81.6595 52.6954 82.9598 52.9554 84.0868 53.7356C85.3004 54.6025 85.9072 56.2496 84.6936 57.4632C84.3468 57.7232 84.8669 58.2434 85.127 57.8966C86.1673 56.8564 86.1673 55.296 85.3004 54.0824C84.1734 52.6087 82.2663 52.1753 80.5326 51.9152C80.2725 51.8285 80.0991 52.4353 80.4459 52.522Z" fill="#F4EBFF"/>
<path d="M46.0309 58.7634C45.0773 58.59 44.1237 58.2433 43.2569 57.7231C42.4767 57.2897 40.4829 55.9027 41.3497 54.7758C41.6098 54.429 41.1764 53.9956 40.9163 54.3423C38.9225 56.8563 44.1237 59.1101 45.8575 59.4569C46.2909 59.5436 46.4643 58.8501 46.0309 58.7634Z" fill="#F4EBFF"/>
</svg>
