<svg width="117" height="121" viewBox="0 0 117 121" fill="none" xmlns="http://www.w3.org/2000/svg">
<path d="M103.814 57.9467C92.7973 42.5421 71.0754 44.5033 54.647 40.6873C54.4781 39.7586 53.9021 38.9705 52.8981 38.4821C52.8981 38.4821 52.8981 38.4821 52.8069 38.4377C52.7834 38.3698 52.8513 38.3464 52.8278 38.2786C53.0609 36.7554 52.1852 35.5393 50.8865 35.0768C51.5784 29.8264 55.366 25.4047 58.6813 21.3741C58.8613 21.236 58.9501 21.0534 59.1068 20.8475L59.1512 20.7562C59.1956 20.6649 59.2634 20.6415 59.3078 20.5502C59.6865 19.8879 59.9504 19.1134 60.0762 18.1587C60.1206 18.0675 60.0972 17.9996 60.0737 17.9318C59.8801 14.7337 57.1531 12.3348 53.8452 12.8701C51.3304 13.2833 50.2019 15.9511 47.4762 15.7537C46.0677 15.6329 45.0588 14.6906 43.5899 15.274C42.0297 15.813 42.2221 16.8095 41.3032 17.8862C38.9956 20.6576 37.5575 17.8135 35.33 17.52C31.9654 17.0118 31.8693 20.6897 30.1648 22.5694C28.5651 23.6535 26.2908 23.2243 24.4568 23.6301C22.5784 24.1271 21.5029 25.4098 21.1835 27.3425C20.7592 30.0707 22.4773 31.5273 24.59 31.7086C24.7047 31.8208 24.8638 31.8418 25.0229 31.8628C31.3094 31.8171 36.4673 34.4392 41.2305 38.3366C40.1785 39.6871 40.3808 41.5914 41.7547 42.7113C41.8694 42.8236 41.9607 42.868 42.052 42.9124C41.386 44.2814 41.698 45.8441 42.6625 46.8776C35.2858 59.3728 23.638 69.3952 21.7375 84.5544C19.8604 99.7815 31.6908 110.729 46.2272 111.705C62.8763 112.864 80.4135 103.844 92.99 93.6526C98.6141 89.0521 104.434 83.7005 106.878 76.7061C109.214 70.2803 107.687 63.4426 103.814 57.9467ZM43.5567 43.5315C45.012 43.788 46.5957 43.3169 47.9289 42.7804C49.4657 42.1735 51.2269 41.3373 52.279 39.9868C52.9179 40.2976 53.1941 40.6577 53.2669 41.0882C53.246 41.2473 53.225 41.4064 53.2275 41.6333C52.8587 43.2034 49.8838 45.1422 49.0723 45.6504C48.0128 46.3201 46.7474 46.8332 45.4746 46.6655C43.9958 46.3411 42.7784 45.0152 43.5567 43.5315ZM42.3097 39.4824C45.197 39.9276 48.0227 38.8755 49.9516 36.7665C50.1786 36.764 50.3821 36.6937 50.5856 36.6234C52.1112 37.0834 50.8656 39.412 49.8739 40.0583C49.0858 40.6343 48.0239 41.0771 47.0742 41.4052C46.2158 41.7776 45.4018 42.0589 44.4706 42.0009C43.2212 41.901 41.4846 40.8304 42.3097 39.4824ZM24.7688 25.1927C26.8951 24.5341 29.1485 25.1224 31.0639 23.8533C31.1317 23.8299 31.1761 23.7386 31.244 23.7152C32.0296 22.9122 32.2911 21.9107 32.8707 20.9512C34.3199 18.5523 35.4176 19.312 37.3108 20.1766C38.6799 20.8426 40.0255 21.4408 41.4216 20.427C42.0975 19.9657 42.2258 19.238 42.6957 18.6201C44.5543 16.3075 45.5657 17.4767 47.9498 17.5643C48.881 17.6223 49.5593 17.3879 50.3265 16.9711C50.9135 16.6923 51.2478 16.1213 51.8114 15.7747C54.0894 14.4562 58.1225 13.8222 58.4407 18.0403C57.7254 23.2229 51.772 20.496 48.2322 20.5799C45.3055 20.6798 44.0499 22.1006 43.0337 24.6537C42.3491 26.4088 42.121 28.3858 39.2287 27.4867C38.4776 27.2906 37.7191 26.4137 37.1012 25.9438C36.0948 25.2285 35.0415 24.3774 33.7242 24.301C30.3855 24.0876 29.4285 27.9111 27.2676 29.5687C26.704 29.9153 25.9344 30.1052 25.1179 30.1595C25.05 30.1829 24.9588 30.1385 24.8909 30.162C24.2101 30.1694 23.5268 29.9498 23.089 29.3418C21.9161 27.9247 23.1174 25.6873 24.7688 25.1927ZM28.7304 30.506C30.2129 29.0827 30.9184 27.1686 33.0681 26.5778C35.6483 25.9142 36.487 27.9024 38.5862 28.9236C40.8679 30.0336 42.7414 29.0827 43.8538 27.0279C43.7614 28.9581 44.214 30.9278 45.345 32.6631C45.53 32.9789 46.0258 32.6557 45.8408 32.34C44.1314 29.5896 43.9587 26.2324 45.4708 23.3562C46.6375 22.1179 48.067 22.0796 49.7024 22.198C51.3379 22.3164 52.9992 22.7296 54.679 22.7567C54.9972 22.7987 55.3598 22.7493 55.6546 22.7234C52.7439 26.3865 49.9738 30.4566 49.457 35.115C49.3214 35.1619 49.277 35.2532 49.1647 35.3679C47.6637 37.1772 45.4955 38.154 43.1558 37.9752C43.1089 37.8395 43.0621 37.7039 42.8795 37.6151C38.5726 33.9397 34.0277 31.3336 28.7304 30.506ZM106.356 72.5583C105.37 80.0362 99.6698 85.9539 94.2283 90.6432C82.6039 100.733 67.0574 109.141 51.3851 110.151C35.7128 111.162 20.757 100.838 23.5222 83.786C25.8396 69.3939 36.8559 59.7416 43.9662 47.794C45.4709 48.4131 47.2839 48.1664 48.7294 47.5152C50.6941 46.6087 53.5802 44.8524 54.351 42.6878C54.3954 42.5966 54.4164 42.4375 54.4608 42.3462C68.2264 45.4875 83.9431 44.386 95.9943 52.6754C102.442 57.0538 107.381 64.5353 106.356 72.5583Z" fill="#F4EBFF"/>
<path d="M74.6163 71.6783C71.4342 71.2589 67.9512 72.3862 64.4682 73.5135C61.4403 68.4852 58.4802 63.4333 55.4523 58.4049C56.1072 58.1028 56.7856 57.8684 57.4873 57.7019C58.643 57.5305 59.7333 57.6094 60.8729 58.0509C57.0964 61.4057 62.3616 67.6354 66.1776 63.7355C68.0178 61.8089 67.2346 58.6626 65.4018 57.0938C63.2484 55.2561 60.2538 55.3795 57.6057 56.0665C56.5857 56.191 55.5214 56.4069 54.5273 56.8262C53.8341 55.6989 53.141 54.5717 52.5156 53.4209C51.9841 52.5416 50.7001 53.4407 51.2317 54.3201C51.9014 55.3795 52.5033 56.4624 53.1496 57.454C52.3146 57.8943 51.5265 58.4703 50.8062 59.0229C50.3659 58.1879 49.9934 57.3295 49.5531 56.4945C49.0894 55.5917 47.597 56.1072 48.0608 57.01C48.5714 58.0485 49.082 59.087 49.5926 60.1255C44.0672 65.4512 41.8496 74.4177 51.1627 77.1989C53.0301 77.7687 55.3204 77.5849 57.744 77.1273C60.5314 82.9981 63.3866 88.8455 66.1741 94.7162C63.4113 95.291 60.5968 95.2762 57.8662 94.625C58.1375 94.5313 58.341 94.461 58.6123 94.3672C60.1281 93.9195 61.3862 92.7256 61.2098 91.1161C61.7093 89.0453 60.8212 86.6945 58.6518 85.4698C55.1576 83.4878 51.3971 86.2296 50.9383 89.9568C50.2415 94.7533 54.8851 98.0846 59.2019 98.4916C61.8598 98.7123 64.6459 98.2054 67.4506 97.3125C68.1697 98.7345 68.7974 100.112 69.5165 101.534C69.9802 102.437 71.4726 101.922 71.0089 101.019C70.2898 99.5966 69.6386 98.1511 68.9195 96.7291C71.0668 95.9113 73.0525 94.8457 74.8113 93.7825C75.7597 95.4291 76.7526 96.9843 77.7011 98.6309C78.2327 99.5102 79.5166 98.6111 78.985 97.7317C78.06 96.153 77.0437 94.53 76.1186 92.9513C80.0383 90.2304 83.1266 86.2023 83.0723 81.2096C82.8798 76.0369 79.6164 72.3048 74.6163 71.6783ZM50.4547 62.1815C52.5441 66.4711 54.5656 70.7842 56.6549 75.0738C54.5446 75.1194 52.5416 74.5965 50.7323 73.0955C47.2727 70.1145 48.0164 65.4536 50.4547 62.1815ZM62.8612 73.9169C61.3454 74.3646 59.8061 74.7445 58.3557 74.9418C56.1258 70.2452 53.828 65.572 51.5981 60.8754C51.9348 60.5313 52.2949 60.255 52.655 59.9787C53.083 59.679 53.5788 59.3559 54.0746 59.0327C56.9435 64.0401 59.9479 69.0007 62.8612 73.9169ZM64.7062 59.9158C64.9751 59.5951 65.038 59.1178 64.6939 58.7811C64.441 58.4888 64.2116 58.2643 63.9144 58.0633C64.0056 58.1077 64.0969 58.152 64.256 58.173C65.6818 59.8824 65.8014 60.4486 64.7062 59.9158ZM47.8105 73.6493C45.6545 71.5847 45.7187 69.1327 46.7374 66.8066C46.4439 69.0341 46.9903 71.2751 48.8749 73.4335C49.8628 74.5348 50.8692 75.2502 51.9644 75.783C50.3944 75.4142 48.9341 74.7038 47.8105 73.6493ZM59.1919 76.703C60.7546 76.391 62.3617 75.9877 63.9009 75.6078C66.9991 80.8397 70.1652 86.0482 73.2634 91.2801C72.4309 91.9473 71.5515 92.4789 70.6487 92.9427C69.678 93.4298 68.6161 93.8726 67.5752 94.1563C64.8112 88.3533 61.9793 82.5738 59.1919 76.703ZM65.5314 75.2723C70.9212 74.1697 75.9582 74.0241 78.1697 79.1068C79.9617 83.1954 77.6924 87.3962 74.5005 90.2453C71.496 85.2847 68.5359 80.2329 65.5314 75.2723ZM55.0479 88.0056C55.1157 87.9821 55.1157 87.9821 55.1392 88.05C55.1157 87.9821 55.0479 88.0056 55.0479 88.0056C55.0035 88.0968 54.9357 88.1203 54.8678 88.1437C54.8678 88.1437 54.8678 88.1437 54.9357 88.1203C54.8444 88.0759 54.9122 88.0524 55.0479 88.0056C54.9801 88.029 54.9801 88.029 55.0479 88.0056ZM58.2879 87.4937C57.6046 87.2742 56.7647 87.2606 56.0864 87.495C56.1308 87.4037 56.1308 87.4037 56.1073 87.3359C56.1493 87.0177 56.0555 86.7463 55.7583 86.5453C56.6895 86.6032 57.5787 86.9794 58.2879 87.4937ZM53.188 88.1166C53.1436 88.2079 53.1904 88.3435 53.146 88.4348C53.1929 88.5705 53.172 88.7296 53.2188 88.8652C52.9475 88.959 52.6996 89.1205 52.5429 89.3265C52.6971 88.8936 52.8747 88.5285 53.188 88.1166ZM55.4241 95.4686C57.7478 96.2604 60.2256 96.6193 62.6306 96.5478C62.6306 96.5478 62.6306 96.5478 62.5628 96.5712C60.1158 96.961 57.4813 96.8081 55.4241 95.4686ZM78.1401 88.912C77.6912 89.3708 77.2422 89.8296 76.7698 90.2206C80.1764 86.2344 82.1312 80.2439 78.0463 76.1122C76.1642 74.1807 73.9996 73.4099 71.7278 73.2076C72.7712 73.1509 73.8146 73.0942 74.7927 73.2878C82.7972 74.6987 82.5802 83.9613 78.1401 88.912Z" fill="#F4EBFF"/>
<path d="M82.4507 49.0779C75.9226 47.7644 69.3265 46.4743 62.7749 45.093C62.3654 45.0066 62.2581 45.5752 62.6676 45.6616C69.1958 46.9751 75.7918 48.2651 82.3434 49.6465C82.6851 49.7562 82.7924 49.1876 82.4507 49.0779Z" fill="#F4EBFF"/>
<path d="M85.8646 49.9487C85.4995 49.7711 85.2331 50.3187 85.5982 50.4963C87.6061 51.4732 89.6818 52.4265 91.6897 53.4033C92.0548 53.5809 92.3212 53.0333 91.9561 52.8557C89.9482 51.8789 87.9403 50.9021 85.8646 49.9487Z" fill="#F4EBFF"/>
<path d="M95.4761 55.1322C96.3 55.7588 97.2152 56.4297 98.0391 57.0562C98.3363 57.2573 98.7174 56.8219 98.4202 56.6209C97.5963 55.9943 96.6811 55.3234 95.8573 54.6968C95.56 54.4958 95.1789 54.9312 95.4761 55.1322Z" fill="#F4EBFF"/>
<path d="M49.4894 104.884C41.5774 105.719 33.8269 102.626 28.7442 96.4849C28.4914 96.1926 27.9956 96.5158 28.2484 96.8081C33.5371 103.106 41.4022 106.311 49.5412 105.474C49.9272 105.492 49.8754 104.903 49.4894 104.884Z" fill="#F4EBFF"/>
<path d="M57.0719 105.074C55.7571 105.224 54.4189 105.307 53.1042 105.458C52.7416 105.507 52.7934 106.096 53.156 106.047C54.4707 105.897 55.8089 105.814 57.1237 105.663C57.5097 105.682 57.4579 105.092 57.0719 105.074Z" fill="#F4EBFF"/>
<path d="M61.348 103.824C60.941 103.965 60.6018 104.082 60.1948 104.223C59.8556 104.34 60.0431 104.883 60.3823 104.765C60.7893 104.625 61.1285 104.508 61.5355 104.367C61.8746 104.25 61.6872 103.707 61.348 103.824Z" fill="#F4EBFF"/>
<path d="M32.9189 85.9308C31.0491 85.1341 29.7825 83.4456 29.5333 81.4057C29.484 81.043 28.8944 81.0948 28.9438 81.4575C29.1954 83.7244 30.6002 85.5929 32.6525 86.4784C33.0854 86.6326 33.284 86.1084 32.9189 85.9308Z" fill="#F4EBFF"/>
<path d="M34.7481 85.0711C35.0009 85.3635 35.4967 85.0403 35.2439 84.748C34.2325 83.5788 33.2446 82.4774 32.2332 81.3082C31.9804 81.0159 31.4846 81.339 31.7374 81.6313C32.7488 82.8005 33.7601 83.9698 34.7481 85.0711Z" fill="#F4EBFF"/>
<path d="M36.0654 80.9714C36.4046 80.8542 36.2171 80.3116 35.8779 80.4287C35.5387 80.5459 35.7262 81.0886 36.0654 80.9714Z" fill="#F4EBFF"/>
</svg>
