<svg width="132" height="132" viewBox="0 0 132 132" fill="none" xmlns="http://www.w3.org/2000/svg">
<path d="M2.49348 20.893C3.87059 20.893 4.98696 19.7766 4.98696 18.3995C4.98696 17.0224 3.87059 15.906 2.49348 15.906C1.11637 15.906 0 17.0224 0 18.3995C0 19.7766 1.11637 20.893 2.49348 20.893Z" fill="#DEDAF2"/>
<path d="M15.1945 20.893C16.5716 20.893 17.688 19.7766 17.688 18.3995C17.688 17.0224 16.5716 15.906 15.1945 15.906C13.8174 15.906 12.701 17.0224 12.701 18.3995C12.701 19.7766 13.8174 20.893 15.1945 20.893Z" fill="#DEDAF2"/>
<path d="M27.8956 20.893C29.2727 20.893 30.3891 19.7766 30.3891 18.3995C30.3891 17.0224 29.2727 15.906 27.8956 15.906C26.5185 15.906 25.4021 17.0224 25.4021 18.3995C25.4021 19.7766 26.5185 20.893 27.8956 20.893Z" fill="#DEDAF2"/>
<path d="M40.598 20.893C41.9751 20.893 43.0915 19.7766 43.0915 18.3995C43.0915 17.0224 41.9751 15.906 40.598 15.906C39.2209 15.906 38.1045 17.0224 38.1045 18.3995C38.1045 19.7766 39.2209 20.893 40.598 20.893Z" fill="#DEDAF2"/>
<path d="M53.2989 20.893C54.676 20.893 55.7924 19.7766 55.7924 18.3995C55.7924 17.0224 54.676 15.906 53.2989 15.906C51.9218 15.906 50.8054 17.0224 50.8054 18.3995C50.8054 19.7766 51.9218 20.893 53.2989 20.893Z" fill="#DEDAF2"/>
<path d="M65.9999 20.893C67.3771 20.893 68.4934 19.7766 68.4934 18.3995C68.4934 17.0224 67.3771 15.906 65.9999 15.906C64.6228 15.906 63.5065 17.0224 63.5065 18.3995C63.5065 19.7766 64.6228 20.893 65.9999 20.893Z" fill="#DEDAF2"/>
<path d="M78.701 20.893C80.0781 20.893 81.1945 19.7766 81.1945 18.3995C81.1945 17.0224 80.0781 15.906 78.701 15.906C77.3239 15.906 76.2075 17.0224 76.2075 18.3995C76.2075 19.7766 77.3239 20.893 78.701 20.893Z" fill="#DEDAF2"/>
<path d="M91.402 20.893C92.7792 20.893 93.8955 19.7766 93.8955 18.3995C93.8955 17.0224 92.7792 15.906 91.402 15.906C90.0249 15.906 88.9086 17.0224 88.9086 18.3995C88.9086 19.7766 90.0249 20.893 91.402 20.893Z" fill="#DEDAF2"/>
<path d="M104.104 20.893C105.482 20.893 106.598 19.7766 106.598 18.3995C106.598 17.0224 105.482 15.906 104.104 15.906C102.727 15.906 101.611 17.0224 101.611 18.3995C101.611 19.7766 102.727 20.893 104.104 20.893Z" fill="#DEDAF2"/>
<path d="M116.805 20.893C118.183 20.893 119.299 19.7766 119.299 18.3995C119.299 17.0224 118.183 15.906 116.805 15.906C115.428 15.906 114.312 17.0224 114.312 18.3995C114.312 19.7766 115.428 20.893 116.805 20.893Z" fill="#DEDAF2"/>
<path d="M129.507 20.893C130.884 20.893 132 19.7766 132 18.3995C132 17.0224 130.884 15.906 129.507 15.906C128.129 15.906 127.013 17.0224 127.013 18.3995C127.013 19.7766 128.129 20.893 129.507 20.893Z" fill="#DEDAF2"/>
<path d="M2.49348 32.7929C3.87059 32.7929 4.98696 31.6765 4.98696 30.2994C4.98696 28.9223 3.87059 27.8059 2.49348 27.8059C1.11637 27.8059 0 28.9223 0 30.2994C0 31.6765 1.11637 32.7929 2.49348 32.7929Z" fill="#DEDAF2"/>
<path d="M15.1945 32.7929C16.5716 32.7929 17.688 31.6765 17.688 30.2994C17.688 28.9223 16.5716 27.8059 15.1945 27.8059C13.8174 27.8059 12.701 28.9223 12.701 30.2994C12.701 31.6765 13.8174 32.7929 15.1945 32.7929Z" fill="#DEDAF2"/>
<path d="M27.8956 32.7929C29.2727 32.7929 30.3891 31.6765 30.3891 30.2994C30.3891 28.9223 29.2727 27.8059 27.8956 27.8059C26.5185 27.8059 25.4021 28.9223 25.4021 30.2994C25.4021 31.6765 26.5185 32.7929 27.8956 32.7929Z" fill="#DEDAF2"/>
<path d="M40.598 32.7929C41.9751 32.7929 43.0915 31.6765 43.0915 30.2994C43.0915 28.9223 41.9751 27.8059 40.598 27.8059C39.2209 27.8059 38.1045 28.9223 38.1045 30.2994C38.1045 31.6765 39.2209 32.7929 40.598 32.7929Z" fill="#DEDAF2"/>
<path d="M53.2989 32.7929C54.676 32.7929 55.7924 31.6765 55.7924 30.2994C55.7924 28.9223 54.676 27.8059 53.2989 27.8059C51.9218 27.8059 50.8054 28.9223 50.8054 30.2994C50.8054 31.6765 51.9218 32.7929 53.2989 32.7929Z" fill="#DEDAF2"/>
<path d="M65.9999 32.7929C67.3771 32.7929 68.4934 31.6765 68.4934 30.2994C68.4934 28.9223 67.3771 27.8059 65.9999 27.8059C64.6228 27.8059 63.5065 28.9223 63.5065 30.2994C63.5065 31.6765 64.6228 32.7929 65.9999 32.7929Z" fill="#DEDAF2"/>
<path d="M78.701 32.7929C80.0781 32.7929 81.1945 31.6765 81.1945 30.2994C81.1945 28.9223 80.0781 27.8059 78.701 27.8059C77.3239 27.8059 76.2075 28.9223 76.2075 30.2994C76.2075 31.6765 77.3239 32.7929 78.701 32.7929Z" fill="#DEDAF2"/>
<path d="M91.402 32.7929C92.7792 32.7929 93.8955 31.6765 93.8955 30.2994C93.8955 28.9223 92.7792 27.8059 91.402 27.8059C90.0249 27.8059 88.9086 28.9223 88.9086 30.2994C88.9086 31.6765 90.0249 32.7929 91.402 32.7929Z" fill="#DEDAF2"/>
<path d="M104.104 32.7929C105.482 32.7929 106.598 31.6765 106.598 30.2994C106.598 28.9223 105.482 27.8059 104.104 27.8059C102.727 27.8059 101.611 28.9223 101.611 30.2994C101.611 31.6765 102.727 32.7929 104.104 32.7929Z" fill="#DEDAF2"/>
<path d="M116.805 32.7929C118.183 32.7929 119.299 31.6765 119.299 30.2994C119.299 28.9223 118.183 27.8059 116.805 27.8059C115.428 27.8059 114.312 28.9223 114.312 30.2994C114.312 31.6765 115.428 32.7929 116.805 32.7929Z" fill="#DEDAF2"/>
<path d="M129.507 32.7929C130.884 32.7929 132 31.6765 132 30.2994C132 28.9223 130.884 27.8059 129.507 27.8059C128.129 27.8059 127.013 28.9223 127.013 30.2994C127.013 31.6765 128.129 32.7929 129.507 32.7929Z" fill="#DEDAF2"/>
<path d="M2.49348 44.6925C3.87059 44.6925 4.98696 43.5762 4.98696 42.199C4.98696 40.8219 3.87059 39.7056 2.49348 39.7056C1.11637 39.7056 0 40.8219 0 42.199C0 43.5762 1.11637 44.6925 2.49348 44.6925Z" fill="#DEDAF2"/>
<path d="M15.1945 44.6925C16.5716 44.6925 17.688 43.5762 17.688 42.199C17.688 40.8219 16.5716 39.7056 15.1945 39.7056C13.8174 39.7056 12.701 40.8219 12.701 42.199C12.701 43.5762 13.8174 44.6925 15.1945 44.6925Z" fill="#DEDAF2"/>
<path d="M27.8956 44.6925C29.2727 44.6925 30.3891 43.5762 30.3891 42.199C30.3891 40.8219 29.2727 39.7056 27.8956 39.7056C26.5185 39.7056 25.4021 40.8219 25.4021 42.199C25.4021 43.5762 26.5185 44.6925 27.8956 44.6925Z" fill="#DEDAF2"/>
<path d="M40.598 44.6925C41.9751 44.6925 43.0915 43.5762 43.0915 42.199C43.0915 40.8219 41.9751 39.7056 40.598 39.7056C39.2209 39.7056 38.1045 40.8219 38.1045 42.199C38.1045 43.5762 39.2209 44.6925 40.598 44.6925Z" fill="#DEDAF2"/>
<path d="M53.2989 44.6925C54.676 44.6925 55.7924 43.5762 55.7924 42.199C55.7924 40.8219 54.676 39.7056 53.2989 39.7056C51.9218 39.7056 50.8054 40.8219 50.8054 42.199C50.8054 43.5762 51.9218 44.6925 53.2989 44.6925Z" fill="#DEDAF2"/>
<path d="M65.9999 44.6925C67.3771 44.6925 68.4934 43.5762 68.4934 42.199C68.4934 40.8219 67.3771 39.7056 65.9999 39.7056C64.6228 39.7056 63.5065 40.8219 63.5065 42.199C63.5065 43.5762 64.6228 44.6925 65.9999 44.6925Z" fill="#DEDAF2"/>
<path d="M78.701 44.6925C80.0781 44.6925 81.1945 43.5762 81.1945 42.199C81.1945 40.8219 80.0781 39.7056 78.701 39.7056C77.3239 39.7056 76.2075 40.8219 76.2075 42.199C76.2075 43.5762 77.3239 44.6925 78.701 44.6925Z" fill="#DEDAF2"/>
<path d="M91.402 44.6925C92.7792 44.6925 93.8955 43.5762 93.8955 42.199C93.8955 40.8219 92.7792 39.7056 91.402 39.7056C90.0249 39.7056 88.9086 40.8219 88.9086 42.199C88.9086 43.5762 90.0249 44.6925 91.402 44.6925Z" fill="#DEDAF2"/>
<path d="M104.104 44.6925C105.482 44.6925 106.598 43.5762 106.598 42.199C106.598 40.8219 105.482 39.7056 104.104 39.7056C102.727 39.7056 101.611 40.8219 101.611 42.199C101.611 43.5762 102.727 44.6925 104.104 44.6925Z" fill="#DEDAF2"/>
<path d="M116.805 44.6925C118.183 44.6925 119.299 43.5762 119.299 42.199C119.299 40.8219 118.183 39.7056 116.805 39.7056C115.428 39.7056 114.312 40.8219 114.312 42.199C114.312 43.5762 115.428 44.6925 116.805 44.6925Z" fill="#DEDAF2"/>
<path d="M129.507 44.6925C130.884 44.6925 132 43.5762 132 42.199C132 40.8219 130.884 39.7056 129.507 39.7056C128.129 39.7056 127.013 40.8219 127.013 42.199C127.013 43.5762 128.129 44.6925 129.507 44.6925Z" fill="#DEDAF2"/>
<path d="M2.49348 56.5936C3.87059 56.5936 4.98696 55.4773 4.98696 54.1002C4.98696 52.7231 3.87059 51.6067 2.49348 51.6067C1.11637 51.6067 0 52.7231 0 54.1002C0 55.4773 1.11637 56.5936 2.49348 56.5936Z" fill="#DEDAF2"/>
<path d="M15.1945 56.5936C16.5716 56.5936 17.688 55.4773 17.688 54.1002C17.688 52.7231 16.5716 51.6067 15.1945 51.6067C13.8174 51.6067 12.701 52.7231 12.701 54.1002C12.701 55.4773 13.8174 56.5936 15.1945 56.5936Z" fill="#DEDAF2"/>
<path d="M27.8956 56.5936C29.2727 56.5936 30.3891 55.4773 30.3891 54.1002C30.3891 52.7231 29.2727 51.6067 27.8956 51.6067C26.5185 51.6067 25.4021 52.7231 25.4021 54.1002C25.4021 55.4773 26.5185 56.5936 27.8956 56.5936Z" fill="#DEDAF2"/>
<path d="M40.598 56.5936C41.9751 56.5936 43.0915 55.4773 43.0915 54.1002C43.0915 52.7231 41.9751 51.6067 40.598 51.6067C39.2209 51.6067 38.1045 52.7231 38.1045 54.1002C38.1045 55.4773 39.2209 56.5936 40.598 56.5936Z" fill="#DEDAF2"/>
<path d="M53.2989 56.5936C54.676 56.5936 55.7924 55.4773 55.7924 54.1002C55.7924 52.7231 54.676 51.6067 53.2989 51.6067C51.9218 51.6067 50.8054 52.7231 50.8054 54.1002C50.8054 55.4773 51.9218 56.5936 53.2989 56.5936Z" fill="#DEDAF2"/>
<path d="M65.9999 56.5936C67.3771 56.5936 68.4934 55.4773 68.4934 54.1002C68.4934 52.7231 67.3771 51.6067 65.9999 51.6067C64.6228 51.6067 63.5065 52.7231 63.5065 54.1002C63.5065 55.4773 64.6228 56.5936 65.9999 56.5936Z" fill="#DEDAF2"/>
<path d="M78.701 56.5936C80.0781 56.5936 81.1945 55.4773 81.1945 54.1002C81.1945 52.7231 80.0781 51.6067 78.701 51.6067C77.3239 51.6067 76.2075 52.7231 76.2075 54.1002C76.2075 55.4773 77.3239 56.5936 78.701 56.5936Z" fill="#DEDAF2"/>
<path d="M91.402 56.5936C92.7792 56.5936 93.8955 55.4773 93.8955 54.1002C93.8955 52.7231 92.7792 51.6067 91.402 51.6067C90.0249 51.6067 88.9086 52.7231 88.9086 54.1002C88.9086 55.4773 90.0249 56.5936 91.402 56.5936Z" fill="#DEDAF2"/>
<path d="M104.104 56.5936C105.482 56.5936 106.598 55.4773 106.598 54.1002C106.598 52.7231 105.482 51.6067 104.104 51.6067C102.727 51.6067 101.611 52.7231 101.611 54.1002C101.611 55.4773 102.727 56.5936 104.104 56.5936Z" fill="#DEDAF2"/>
<path d="M116.805 56.5936C118.183 56.5936 119.299 55.4773 119.299 54.1002C119.299 52.7231 118.183 51.6067 116.805 51.6067C115.428 51.6067 114.312 52.7231 114.312 54.1002C114.312 55.4773 115.428 56.5936 116.805 56.5936Z" fill="#DEDAF2"/>
<path d="M129.507 56.5936C130.884 56.5936 132 55.4773 132 54.1002C132 52.7231 130.884 51.6067 129.507 51.6067C128.129 51.6067 127.013 52.7231 127.013 54.1002C127.013 55.4773 128.129 56.5936 129.507 56.5936Z" fill="#DEDAF2"/>
<path d="M2.49348 68.4936C3.87059 68.4936 4.98696 67.3772 4.98696 66.0001C4.98696 64.623 3.87059 63.5066 2.49348 63.5066C1.11637 63.5066 0 64.623 0 66.0001C0 67.3772 1.11637 68.4936 2.49348 68.4936Z" fill="#DEDAF2"/>
<path d="M15.1945 68.4936C16.5716 68.4936 17.688 67.3772 17.688 66.0001C17.688 64.623 16.5716 63.5066 15.1945 63.5066C13.8174 63.5066 12.701 64.623 12.701 66.0001C12.701 67.3772 13.8174 68.4936 15.1945 68.4936Z" fill="#DEDAF2"/>
<path d="M27.8956 68.4936C29.2727 68.4936 30.3891 67.3772 30.3891 66.0001C30.3891 64.623 29.2727 63.5066 27.8956 63.5066C26.5185 63.5066 25.4021 64.623 25.4021 66.0001C25.4021 67.3772 26.5185 68.4936 27.8956 68.4936Z" fill="#DEDAF2"/>
<path d="M40.598 68.4936C41.9751 68.4936 43.0915 67.3772 43.0915 66.0001C43.0915 64.623 41.9751 63.5066 40.598 63.5066C39.2209 63.5066 38.1045 64.623 38.1045 66.0001C38.1045 67.3772 39.2209 68.4936 40.598 68.4936Z" fill="#DEDAF2"/>
<path d="M53.2989 68.4936C54.676 68.4936 55.7924 67.3772 55.7924 66.0001C55.7924 64.623 54.676 63.5066 53.2989 63.5066C51.9218 63.5066 50.8054 64.623 50.8054 66.0001C50.8054 67.3772 51.9218 68.4936 53.2989 68.4936Z" fill="#DEDAF2"/>
<path d="M65.9999 68.4936C67.3771 68.4936 68.4934 67.3772 68.4934 66.0001C68.4934 64.623 67.3771 63.5066 65.9999 63.5066C64.6228 63.5066 63.5065 64.623 63.5065 66.0001C63.5065 67.3772 64.6228 68.4936 65.9999 68.4936Z" fill="#DEDAF2"/>
<path d="M78.701 68.4936C80.0781 68.4936 81.1945 67.3772 81.1945 66.0001C81.1945 64.623 80.0781 63.5066 78.701 63.5066C77.3239 63.5066 76.2075 64.623 76.2075 66.0001C76.2075 67.3772 77.3239 68.4936 78.701 68.4936Z" fill="#DEDAF2"/>
<path d="M91.402 68.4936C92.7792 68.4936 93.8955 67.3772 93.8955 66.0001C93.8955 64.623 92.7792 63.5066 91.402 63.5066C90.0249 63.5066 88.9086 64.623 88.9086 66.0001C88.9086 67.3772 90.0249 68.4936 91.402 68.4936Z" fill="#DEDAF2"/>
<path d="M104.104 68.4936C105.482 68.4936 106.598 67.3772 106.598 66.0001C106.598 64.623 105.482 63.5066 104.104 63.5066C102.727 63.5066 101.611 64.623 101.611 66.0001C101.611 67.3772 102.727 68.4936 104.104 68.4936Z" fill="#DEDAF2"/>
<path d="M116.805 68.4936C118.183 68.4936 119.299 67.3772 119.299 66.0001C119.299 64.623 118.183 63.5066 116.805 63.5066C115.428 63.5066 114.312 64.623 114.312 66.0001C114.312 67.3772 115.428 68.4936 116.805 68.4936Z" fill="#DEDAF2"/>
<path d="M129.507 68.4936C130.884 68.4936 132 67.3772 132 66.0001C132 64.623 130.884 63.5066 129.507 63.5066C128.129 63.5066 127.013 64.623 127.013 66.0001C127.013 67.3772 128.129 68.4936 129.507 68.4936Z" fill="#DEDAF2"/>
<path d="M2.49348 80.3932C3.87059 80.3932 4.98696 79.2768 4.98696 77.8997C4.98696 76.5226 3.87059 75.4062 2.49348 75.4062C1.11637 75.4062 0 76.5226 0 77.8997C0 79.2768 1.11637 80.3932 2.49348 80.3932Z" fill="#DEDAF2"/>
<path d="M15.1945 80.3932C16.5716 80.3932 17.688 79.2768 17.688 77.8997C17.688 76.5226 16.5716 75.4062 15.1945 75.4062C13.8174 75.4062 12.701 76.5226 12.701 77.8997C12.701 79.2768 13.8174 80.3932 15.1945 80.3932Z" fill="#DEDAF2"/>
<path d="M27.8956 80.3932C29.2727 80.3932 30.3891 79.2768 30.3891 77.8997C30.3891 76.5226 29.2727 75.4062 27.8956 75.4062C26.5185 75.4062 25.4021 76.5226 25.4021 77.8997C25.4021 79.2768 26.5185 80.3932 27.8956 80.3932Z" fill="#DEDAF2"/>
<path d="M40.598 80.3932C41.9751 80.3932 43.0915 79.2768 43.0915 77.8997C43.0915 76.5226 41.9751 75.4062 40.598 75.4062C39.2209 75.4062 38.1045 76.5226 38.1045 77.8997C38.1045 79.2768 39.2209 80.3932 40.598 80.3932Z" fill="#DEDAF2"/>
<path d="M53.2989 80.3932C54.676 80.3932 55.7924 79.2768 55.7924 77.8997C55.7924 76.5226 54.676 75.4062 53.2989 75.4062C51.9218 75.4062 50.8054 76.5226 50.8054 77.8997C50.8054 79.2768 51.9218 80.3932 53.2989 80.3932Z" fill="#DEDAF2"/>
<path d="M65.9999 80.3932C67.3771 80.3932 68.4934 79.2768 68.4934 77.8997C68.4934 76.5226 67.3771 75.4062 65.9999 75.4062C64.6228 75.4062 63.5065 76.5226 63.5065 77.8997C63.5065 79.2768 64.6228 80.3932 65.9999 80.3932Z" fill="#DEDAF2"/>
<path d="M78.701 80.3932C80.0781 80.3932 81.1945 79.2768 81.1945 77.8997C81.1945 76.5226 80.0781 75.4062 78.701 75.4062C77.3239 75.4062 76.2075 76.5226 76.2075 77.8997C76.2075 79.2768 77.3239 80.3932 78.701 80.3932Z" fill="#DEDAF2"/>
<path d="M91.402 80.3932C92.7792 80.3932 93.8955 79.2768 93.8955 77.8997C93.8955 76.5226 92.7792 75.4062 91.402 75.4062C90.0249 75.4062 88.9086 76.5226 88.9086 77.8997C88.9086 79.2768 90.0249 80.3932 91.402 80.3932Z" fill="#DEDAF2"/>
<path d="M104.104 80.3932C105.482 80.3932 106.598 79.2768 106.598 77.8997C106.598 76.5226 105.482 75.4062 104.104 75.4062C102.727 75.4062 101.611 76.5226 101.611 77.8997C101.611 79.2768 102.727 80.3932 104.104 80.3932Z" fill="#DEDAF2"/>
<path d="M116.805 80.3932C118.183 80.3932 119.299 79.2768 119.299 77.8997C119.299 76.5226 118.183 75.4062 116.805 75.4062C115.428 75.4062 114.312 76.5226 114.312 77.8997C114.312 79.2768 115.428 80.3932 116.805 80.3932Z" fill="#DEDAF2"/>
<path d="M129.507 80.3932C130.884 80.3932 132 79.2768 132 77.8997C132 76.5226 130.884 75.4062 129.507 75.4062C128.129 75.4062 127.013 76.5226 127.013 77.8997C127.013 79.2768 128.129 80.3932 129.507 80.3932Z" fill="#DEDAF2"/>
<path d="M2.49348 92.2943C3.87059 92.2943 4.98696 91.178 4.98696 89.8009C4.98696 88.4237 3.87059 87.3074 2.49348 87.3074C1.11637 87.3074 0 88.4237 0 89.8009C0 91.178 1.11637 92.2943 2.49348 92.2943Z" fill="#DEDAF2"/>
<path d="M15.1945 92.2943C16.5716 92.2943 17.688 91.178 17.688 89.8009C17.688 88.4237 16.5716 87.3074 15.1945 87.3074C13.8174 87.3074 12.701 88.4237 12.701 89.8009C12.701 91.178 13.8174 92.2943 15.1945 92.2943Z" fill="#DEDAF2"/>
<path d="M27.8956 92.2943C29.2727 92.2943 30.3891 91.178 30.3891 89.8009C30.3891 88.4237 29.2727 87.3074 27.8956 87.3074C26.5185 87.3074 25.4021 88.4237 25.4021 89.8009C25.4021 91.178 26.5185 92.2943 27.8956 92.2943Z" fill="#DEDAF2"/>
<path d="M40.598 92.2943C41.9751 92.2943 43.0915 91.178 43.0915 89.8009C43.0915 88.4237 41.9751 87.3074 40.598 87.3074C39.2209 87.3074 38.1045 88.4237 38.1045 89.8009C38.1045 91.178 39.2209 92.2943 40.598 92.2943Z" fill="#DEDAF2"/>
<path d="M53.2989 92.2943C54.676 92.2943 55.7924 91.178 55.7924 89.8009C55.7924 88.4237 54.676 87.3074 53.2989 87.3074C51.9218 87.3074 50.8054 88.4237 50.8054 89.8009C50.8054 91.178 51.9218 92.2943 53.2989 92.2943Z" fill="#DEDAF2"/>
<path d="M65.9999 92.2943C67.3771 92.2943 68.4934 91.178 68.4934 89.8009C68.4934 88.4237 67.3771 87.3074 65.9999 87.3074C64.6228 87.3074 63.5065 88.4237 63.5065 89.8009C63.5065 91.178 64.6228 92.2943 65.9999 92.2943Z" fill="#DEDAF2"/>
<path d="M78.701 92.2943C80.0781 92.2943 81.1945 91.178 81.1945 89.8009C81.1945 88.4237 80.0781 87.3074 78.701 87.3074C77.3239 87.3074 76.2075 88.4237 76.2075 89.8009C76.2075 91.178 77.3239 92.2943 78.701 92.2943Z" fill="#DEDAF2"/>
<path d="M91.402 92.2943C92.7792 92.2943 93.8955 91.178 93.8955 89.8009C93.8955 88.4237 92.7792 87.3074 91.402 87.3074C90.0249 87.3074 88.9086 88.4237 88.9086 89.8009C88.9086 91.178 90.0249 92.2943 91.402 92.2943Z" fill="#DEDAF2"/>
<path d="M104.104 92.2943C105.482 92.2943 106.598 91.178 106.598 89.8009C106.598 88.4237 105.482 87.3074 104.104 87.3074C102.727 87.3074 101.611 88.4237 101.611 89.8009C101.611 91.178 102.727 92.2943 104.104 92.2943Z" fill="#DEDAF2"/>
<path d="M116.805 92.2943C118.183 92.2943 119.299 91.178 119.299 89.8009C119.299 88.4237 118.183 87.3074 116.805 87.3074C115.428 87.3074 114.312 88.4237 114.312 89.8009C114.312 91.178 115.428 92.2943 116.805 92.2943Z" fill="#DEDAF2"/>
<path d="M129.507 92.2943C130.884 92.2943 132 91.178 132 89.8009C132 88.4237 130.884 87.3074 129.507 87.3074C128.129 87.3074 127.013 88.4237 127.013 89.8009C127.013 91.178 128.129 92.2943 129.507 92.2943Z" fill="#DEDAF2"/>
<path d="M2.49348 104.194C3.87059 104.194 4.98696 103.078 4.98696 101.701C4.98696 100.324 3.87059 99.2073 2.49348 99.2073C1.11637 99.2073 0 100.324 0 101.701C0 103.078 1.11637 104.194 2.49348 104.194Z" fill="#DEDAF2"/>
<path d="M15.1945 104.194C16.5716 104.194 17.688 103.078 17.688 101.701C17.688 100.324 16.5716 99.2073 15.1945 99.2073C13.8174 99.2073 12.701 100.324 12.701 101.701C12.701 103.078 13.8174 104.194 15.1945 104.194Z" fill="#DEDAF2"/>
<path d="M27.8956 104.194C29.2727 104.194 30.3891 103.078 30.3891 101.701C30.3891 100.324 29.2727 99.2073 27.8956 99.2073C26.5185 99.2073 25.4021 100.324 25.4021 101.701C25.4021 103.078 26.5185 104.194 27.8956 104.194Z" fill="#DEDAF2"/>
<path d="M40.598 104.194C41.9751 104.194 43.0915 103.078 43.0915 101.701C43.0915 100.324 41.9751 99.2073 40.598 99.2073C39.2209 99.2073 38.1045 100.324 38.1045 101.701C38.1045 103.078 39.2209 104.194 40.598 104.194Z" fill="#DEDAF2"/>
<path d="M53.2989 104.194C54.676 104.194 55.7924 103.078 55.7924 101.701C55.7924 100.324 54.676 99.2073 53.2989 99.2073C51.9218 99.2073 50.8054 100.324 50.8054 101.701C50.8054 103.078 51.9218 104.194 53.2989 104.194Z" fill="#DEDAF2"/>
<path d="M65.9999 104.194C67.3771 104.194 68.4934 103.078 68.4934 101.701C68.4934 100.324 67.3771 99.2073 65.9999 99.2073C64.6228 99.2073 63.5065 100.324 63.5065 101.701C63.5065 103.078 64.6228 104.194 65.9999 104.194Z" fill="#DEDAF2"/>
<path d="M78.701 104.194C80.0781 104.194 81.1945 103.078 81.1945 101.701C81.1945 100.324 80.0781 99.2073 78.701 99.2073C77.3239 99.2073 76.2075 100.324 76.2075 101.701C76.2075 103.078 77.3239 104.194 78.701 104.194Z" fill="#DEDAF2"/>
<path d="M91.402 104.194C92.7792 104.194 93.8955 103.078 93.8955 101.701C93.8955 100.324 92.7792 99.2073 91.402 99.2073C90.0249 99.2073 88.9086 100.324 88.9086 101.701C88.9086 103.078 90.0249 104.194 91.402 104.194Z" fill="#DEDAF2"/>
<path d="M104.104 104.194C105.482 104.194 106.598 103.078 106.598 101.701C106.598 100.324 105.482 99.2073 104.104 99.2073C102.727 99.2073 101.611 100.324 101.611 101.701C101.611 103.078 102.727 104.194 104.104 104.194Z" fill="#DEDAF2"/>
<path d="M116.805 104.194C118.183 104.194 119.299 103.078 119.299 101.701C119.299 100.324 118.183 99.2073 116.805 99.2073C115.428 99.2073 114.312 100.324 114.312 101.701C114.312 103.078 115.428 104.194 116.805 104.194Z" fill="#DEDAF2"/>
<path d="M129.507 104.194C130.884 104.194 132 103.078 132 101.701C132 100.324 130.884 99.2073 129.507 99.2073C128.129 99.2073 127.013 100.324 127.013 101.701C127.013 103.078 128.129 104.194 129.507 104.194Z" fill="#DEDAF2"/>
<path d="M2.49348 116.094C3.87059 116.094 4.98696 114.978 4.98696 113.6C4.98696 112.223 3.87059 111.107 2.49348 111.107C1.11637 111.107 0 112.223 0 113.6C0 114.978 1.11637 116.094 2.49348 116.094Z" fill="#DEDAF2"/>
<path d="M15.1945 116.094C16.5716 116.094 17.688 114.978 17.688 113.6C17.688 112.223 16.5716 111.107 15.1945 111.107C13.8174 111.107 12.701 112.223 12.701 113.6C12.701 114.978 13.8174 116.094 15.1945 116.094Z" fill="#DEDAF2"/>
<path d="M27.8956 116.094C29.2727 116.094 30.3891 114.978 30.3891 113.6C30.3891 112.223 29.2727 111.107 27.8956 111.107C26.5185 111.107 25.4021 112.223 25.4021 113.6C25.4021 114.978 26.5185 116.094 27.8956 116.094Z" fill="#DEDAF2"/>
<path d="M40.598 116.094C41.9751 116.094 43.0915 114.978 43.0915 113.6C43.0915 112.223 41.9751 111.107 40.598 111.107C39.2209 111.107 38.1045 112.223 38.1045 113.6C38.1045 114.978 39.2209 116.094 40.598 116.094Z" fill="#DEDAF2"/>
<path d="M53.2989 116.094C54.676 116.094 55.7924 114.978 55.7924 113.6C55.7924 112.223 54.676 111.107 53.2989 111.107C51.9218 111.107 50.8054 112.223 50.8054 113.6C50.8054 114.978 51.9218 116.094 53.2989 116.094Z" fill="#DEDAF2"/>
<path d="M65.9999 116.094C67.3771 116.094 68.4934 114.978 68.4934 113.6C68.4934 112.223 67.3771 111.107 65.9999 111.107C64.6228 111.107 63.5065 112.223 63.5065 113.6C63.5065 114.978 64.6228 116.094 65.9999 116.094Z" fill="#DEDAF2"/>
<path d="M78.701 116.094C80.0781 116.094 81.1945 114.978 81.1945 113.6C81.1945 112.223 80.0781 111.107 78.701 111.107C77.3239 111.107 76.2075 112.223 76.2075 113.6C76.2075 114.978 77.3239 116.094 78.701 116.094Z" fill="#DEDAF2"/>
<path d="M91.402 116.094C92.7792 116.094 93.8955 114.978 93.8955 113.6C93.8955 112.223 92.7792 111.107 91.402 111.107C90.0249 111.107 88.9086 112.223 88.9086 113.6C88.9086 114.978 90.0249 116.094 91.402 116.094Z" fill="#DEDAF2"/>
<path d="M104.104 116.094C105.482 116.094 106.598 114.978 106.598 113.6C106.598 112.223 105.482 111.107 104.104 111.107C102.727 111.107 101.611 112.223 101.611 113.6C101.611 114.978 102.727 116.094 104.104 116.094Z" fill="#DEDAF2"/>
<path d="M116.805 116.094C118.183 116.094 119.299 114.978 119.299 113.6C119.299 112.223 118.183 111.107 116.805 111.107C115.428 111.107 114.312 112.223 114.312 113.6C114.312 114.978 115.428 116.094 116.805 116.094Z" fill="#DEDAF2"/>
<path d="M129.507 116.094C130.884 116.094 132 114.978 132 113.6C132 112.223 130.884 111.107 129.507 111.107C128.129 111.107 127.013 112.223 127.013 113.6C127.013 114.978 128.129 116.094 129.507 116.094Z" fill="#DEDAF2"/>
</svg>
