<svg width="164" height="164" viewBox="0 0 164 164" fill="none" xmlns="http://www.w3.org/2000/svg">
<g opacity="0.5" clip-path="url(#clip0_758_2933)">
<path d="M25.9579 160.902C25.9579 159.191 24.5709 157.804 22.8599 157.804C21.149 157.804 19.762 159.191 19.762 160.902C19.762 162.613 21.149 164 22.8599 164C24.5709 164 25.9579 162.613 25.9579 160.902Z" fill="#6F2DBD"/>
<path d="M25.9579 145.122C25.9579 143.411 24.5709 142.024 22.8599 142.024C21.149 142.024 19.762 143.411 19.762 145.122C19.762 146.833 21.149 148.22 22.8599 148.22C24.5709 148.22 25.9579 146.833 25.9579 145.122Z" fill="#6F2DBD"/>
<path d="M25.9579 129.342C25.9579 127.631 24.5709 126.244 22.8599 126.244C21.149 126.244 19.762 127.631 19.762 129.342C19.762 131.053 21.149 132.44 22.8599 132.44C24.5709 132.44 25.9579 131.053 25.9579 129.342Z" fill="#6F2DBD"/>
<path d="M25.9579 113.56C25.9579 111.849 24.5709 110.462 22.8599 110.462C21.149 110.462 19.762 111.849 19.762 113.56C19.762 115.271 21.149 116.658 22.8599 116.658C24.5709 116.658 25.9579 115.271 25.9579 113.56Z" fill="#6F2DBD"/>
<path d="M25.9579 97.78C25.9579 96.069 24.5709 94.682 22.8599 94.682C21.149 94.682 19.762 96.069 19.762 97.78C19.762 99.4909 21.149 100.878 22.8599 100.878C24.5709 100.878 25.9579 99.4909 25.9579 97.78Z" fill="#6F2DBD"/>
<path d="M25.9579 82.0002C25.9579 80.2892 24.5709 78.9022 22.8599 78.9022C21.149 78.9022 19.762 80.2892 19.762 82.0002C19.762 83.7111 21.149 85.0981 22.8599 85.0981C24.5709 85.0981 25.9579 83.7111 25.9579 82.0002Z" fill="#6F2DBD"/>
<path d="M25.9579 66.2199C25.9579 64.509 24.5709 63.122 22.8599 63.122C21.149 63.122 19.762 64.509 19.762 66.2199C19.762 67.9309 21.149 69.3179 22.8599 69.3179C24.5709 69.3179 25.9579 67.9309 25.9579 66.2199Z" fill="#6F2DBD"/>
<path d="M25.9579 50.4396C25.9579 48.7287 24.5709 47.3417 22.8599 47.3417C21.149 47.3417 19.762 48.7287 19.762 50.4396C19.762 52.1506 21.149 53.5376 22.8599 53.5376C24.5709 53.5376 25.9579 52.1506 25.9579 50.4396Z" fill="#6F2DBD"/>
<path d="M25.9579 34.6579C25.9579 32.9469 24.5709 31.5599 22.8599 31.5599C21.149 31.5599 19.762 32.9469 19.762 34.6579C19.762 36.3689 21.149 37.7559 22.8599 37.7559C24.5709 37.7559 25.9579 36.3689 25.9579 34.6579Z" fill="#6F2DBD"/>
<path d="M25.9579 18.8781C25.9579 17.1672 24.5709 15.7802 22.8599 15.7802C21.149 15.7802 19.762 17.1672 19.762 18.8781C19.762 20.5891 21.149 21.9761 22.8599 21.9761C24.5709 21.9761 25.9579 20.5891 25.9579 18.8781Z" fill="#6F2DBD"/>
<path d="M25.9579 3.09784C25.9579 1.38688 24.5709 -0.000119152 22.8599 -0.000119172C21.149 -0.000119193 19.762 1.38688 19.762 3.09784C19.762 4.8088 21.149 6.1958 22.8599 6.1958C24.5709 6.1958 25.9579 4.8088 25.9579 3.09784Z" fill="#6F2DBD"/>
<path d="M40.7426 160.902C40.7426 159.191 39.3555 157.804 37.6446 157.804C35.9336 157.804 34.5466 159.191 34.5466 160.902C34.5466 162.613 35.9336 164 37.6446 164C39.3555 164 40.7426 162.613 40.7426 160.902Z" fill="#6F2DBD"/>
<path d="M40.7426 145.122C40.7426 143.411 39.3555 142.024 37.6446 142.024C35.9336 142.024 34.5466 143.411 34.5466 145.122C34.5466 146.833 35.9336 148.22 37.6446 148.22C39.3555 148.22 40.7426 146.833 40.7426 145.122Z" fill="#6F2DBD"/>
<path d="M40.7426 129.342C40.7426 127.631 39.3555 126.244 37.6446 126.244C35.9336 126.244 34.5466 127.631 34.5466 129.342C34.5466 131.053 35.9336 132.44 37.6446 132.44C39.3555 132.44 40.7426 131.053 40.7426 129.342Z" fill="#6F2DBD"/>
<path d="M40.7426 113.56C40.7426 111.849 39.3555 110.462 37.6446 110.462C35.9336 110.462 34.5466 111.849 34.5466 113.56C34.5466 115.271 35.9336 116.658 37.6446 116.658C39.3555 116.658 40.7426 115.271 40.7426 113.56Z" fill="#6F2DBD"/>
<path d="M40.7426 97.78C40.7426 96.069 39.3555 94.682 37.6446 94.682C35.9336 94.682 34.5466 96.069 34.5466 97.78C34.5466 99.4909 35.9336 100.878 37.6446 100.878C39.3555 100.878 40.7426 99.4909 40.7426 97.78Z" fill="#6F2DBD"/>
<path d="M40.7426 82.0002C40.7426 80.2892 39.3555 78.9022 37.6446 78.9022C35.9336 78.9022 34.5466 80.2892 34.5466 82.0002C34.5466 83.7111 35.9336 85.0981 37.6446 85.0981C39.3555 85.0981 40.7426 83.7111 40.7426 82.0002Z" fill="#6F2DBD"/>
<path d="M40.7426 66.2199C40.7426 64.509 39.3555 63.122 37.6446 63.122C35.9336 63.122 34.5466 64.509 34.5466 66.2199C34.5466 67.9309 35.9336 69.3179 37.6446 69.3179C39.3555 69.3179 40.7426 67.9309 40.7426 66.2199Z" fill="#6F2DBD"/>
<path d="M40.7426 50.4396C40.7426 48.7287 39.3555 47.3417 37.6446 47.3417C35.9336 47.3417 34.5466 48.7287 34.5466 50.4396C34.5466 52.1506 35.9336 53.5376 37.6446 53.5376C39.3555 53.5376 40.7426 52.1506 40.7426 50.4396Z" fill="#6F2DBD"/>
<path d="M40.7426 34.6579C40.7426 32.9469 39.3555 31.5599 37.6446 31.5599C35.9336 31.5599 34.5466 32.9469 34.5466 34.6579C34.5466 36.3689 35.9336 37.7559 37.6446 37.7559C39.3555 37.7559 40.7426 36.3689 40.7426 34.6579Z" fill="#6F2DBD"/>
<path d="M40.7426 18.8781C40.7426 17.1672 39.3555 15.7802 37.6446 15.7802C35.9336 15.7802 34.5466 17.1672 34.5466 18.8781C34.5466 20.5891 35.9336 21.9761 37.6446 21.9761C39.3555 21.9761 40.7426 20.5891 40.7426 18.8781Z" fill="#6F2DBD"/>
<path d="M40.7426 3.09784C40.7426 1.38688 39.3555 -0.000119152 37.6446 -0.000119172C35.9336 -0.000119193 34.5466 1.38688 34.5466 3.09784C34.5466 4.8088 35.9336 6.1958 37.6446 6.1958C39.3555 6.1958 40.7426 4.8088 40.7426 3.09784Z" fill="#6F2DBD"/>
<path d="M55.5272 160.902C55.5272 159.191 54.1402 157.804 52.4293 157.804C50.7183 157.804 49.3313 159.191 49.3313 160.902C49.3313 162.613 50.7183 164 52.4293 164C54.1402 164 55.5272 162.613 55.5272 160.902Z" fill="#6F2DBD"/>
<path d="M55.5272 145.122C55.5272 143.411 54.1402 142.024 52.4293 142.024C50.7183 142.024 49.3313 143.411 49.3313 145.122C49.3313 146.833 50.7183 148.22 52.4293 148.22C54.1402 148.22 55.5272 146.833 55.5272 145.122Z" fill="#6F2DBD"/>
<path d="M55.5272 129.342C55.5272 127.631 54.1402 126.244 52.4293 126.244C50.7183 126.244 49.3313 127.631 49.3313 129.342C49.3313 131.053 50.7183 132.44 52.4293 132.44C54.1402 132.44 55.5272 131.053 55.5272 129.342Z" fill="#6F2DBD"/>
<path d="M55.5272 113.56C55.5272 111.849 54.1402 110.462 52.4293 110.462C50.7183 110.462 49.3313 111.849 49.3313 113.56C49.3313 115.271 50.7183 116.658 52.4293 116.658C54.1402 116.658 55.5272 115.271 55.5272 113.56Z" fill="#6F2DBD"/>
<path d="M55.5272 97.78C55.5272 96.069 54.1402 94.682 52.4293 94.682C50.7183 94.682 49.3313 96.069 49.3313 97.78C49.3313 99.4909 50.7183 100.878 52.4293 100.878C54.1402 100.878 55.5272 99.4909 55.5272 97.78Z" fill="#6F2DBD"/>
<path d="M55.5272 82.0002C55.5272 80.2892 54.1402 78.9022 52.4293 78.9022C50.7183 78.9022 49.3313 80.2892 49.3313 82.0002C49.3313 83.7111 50.7183 85.0981 52.4293 85.0981C54.1402 85.0981 55.5272 83.7111 55.5272 82.0002Z" fill="#6F2DBD"/>
<path d="M55.5272 66.2199C55.5272 64.509 54.1402 63.122 52.4293 63.122C50.7183 63.122 49.3313 64.509 49.3313 66.2199C49.3313 67.9309 50.7183 69.3179 52.4293 69.3179C54.1402 69.3179 55.5272 67.9309 55.5272 66.2199Z" fill="#6F2DBD"/>
<path d="M55.5272 50.4396C55.5272 48.7287 54.1402 47.3417 52.4293 47.3417C50.7183 47.3417 49.3313 48.7287 49.3313 50.4396C49.3313 52.1506 50.7183 53.5376 52.4293 53.5376C54.1402 53.5376 55.5272 52.1506 55.5272 50.4396Z" fill="#6F2DBD"/>
<path d="M55.5272 34.6579C55.5272 32.9469 54.1402 31.5599 52.4293 31.5599C50.7183 31.5599 49.3313 32.9469 49.3313 34.6579C49.3313 36.3689 50.7183 37.7559 52.4293 37.7559C54.1402 37.7559 55.5272 36.3689 55.5272 34.6579Z" fill="#6F2DBD"/>
<path d="M55.5272 18.8781C55.5272 17.1672 54.1402 15.7802 52.4293 15.7802C50.7183 15.7802 49.3313 17.1672 49.3313 18.8781C49.3313 20.5891 50.7183 21.9761 52.4293 21.9761C54.1402 21.9761 55.5272 20.5891 55.5272 18.8781Z" fill="#6F2DBD"/>
<path d="M55.5272 3.09784C55.5272 1.38688 54.1402 -0.000119152 52.4293 -0.000119172C50.7183 -0.000119193 49.3313 1.38688 49.3313 3.09784C49.3313 4.8088 50.7183 6.1958 52.4293 6.1958C54.1402 6.1958 55.5272 4.8088 55.5272 3.09784Z" fill="#6F2DBD"/>
<path d="M70.3134 160.902C70.3134 159.191 68.9263 157.804 67.2154 157.804C65.5044 157.804 64.1174 159.191 64.1174 160.902C64.1174 162.613 65.5044 164 67.2154 164C68.9263 164 70.3134 162.613 70.3134 160.902Z" fill="#6F2DBD"/>
<path d="M70.3134 145.122C70.3134 143.411 68.9263 142.024 67.2154 142.024C65.5044 142.024 64.1174 143.411 64.1174 145.122C64.1174 146.833 65.5044 148.22 67.2154 148.22C68.9263 148.22 70.3134 146.833 70.3134 145.122Z" fill="#6F2DBD"/>
<path d="M70.3134 129.342C70.3134 127.631 68.9263 126.244 67.2154 126.244C65.5044 126.244 64.1174 127.631 64.1174 129.342C64.1174 131.053 65.5044 132.44 67.2154 132.44C68.9263 132.44 70.3134 131.053 70.3134 129.342Z" fill="#6F2DBD"/>
<path d="M70.3134 113.56C70.3134 111.849 68.9263 110.462 67.2154 110.462C65.5044 110.462 64.1174 111.849 64.1174 113.56C64.1174 115.271 65.5044 116.658 67.2154 116.658C68.9263 116.658 70.3134 115.271 70.3134 113.56Z" fill="#6F2DBD"/>
<path d="M70.3134 97.78C70.3134 96.069 68.9263 94.682 67.2154 94.682C65.5044 94.682 64.1174 96.069 64.1174 97.78C64.1174 99.4909 65.5044 100.878 67.2154 100.878C68.9263 100.878 70.3134 99.4909 70.3134 97.78Z" fill="#6F2DBD"/>
<path d="M70.3134 82.0002C70.3134 80.2892 68.9263 78.9022 67.2154 78.9022C65.5044 78.9022 64.1174 80.2892 64.1174 82.0002C64.1174 83.7111 65.5044 85.0981 67.2154 85.0981C68.9263 85.0981 70.3134 83.7111 70.3134 82.0002Z" fill="#6F2DBD"/>
<path d="M70.3134 66.2199C70.3134 64.509 68.9263 63.122 67.2154 63.122C65.5044 63.122 64.1174 64.509 64.1174 66.2199C64.1174 67.9309 65.5044 69.3179 67.2154 69.3179C68.9263 69.3179 70.3134 67.9309 70.3134 66.2199Z" fill="#6F2DBD"/>
<path d="M70.3134 50.4396C70.3134 48.7287 68.9263 47.3417 67.2154 47.3417C65.5044 47.3417 64.1174 48.7287 64.1174 50.4396C64.1174 52.1506 65.5044 53.5376 67.2154 53.5376C68.9263 53.5376 70.3134 52.1506 70.3134 50.4396Z" fill="#6F2DBD"/>
<path d="M70.3134 34.6579C70.3134 32.9469 68.9263 31.5599 67.2154 31.5599C65.5044 31.5599 64.1174 32.9469 64.1174 34.6579C64.1174 36.3689 65.5044 37.7559 67.2154 37.7559C68.9263 37.7559 70.3134 36.3689 70.3134 34.6579Z" fill="#6F2DBD"/>
<path d="M70.3134 18.8781C70.3134 17.1672 68.9263 15.7802 67.2154 15.7802C65.5044 15.7802 64.1174 17.1672 64.1174 18.8781C64.1174 20.5891 65.5044 21.9761 67.2154 21.9761C68.9263 21.9761 70.3134 20.5891 70.3134 18.8781Z" fill="#6F2DBD"/>
<path d="M70.3134 3.09784C70.3134 1.38688 68.9263 -0.000119152 67.2154 -0.000119172C65.5044 -0.000119193 64.1174 1.38688 64.1174 3.09784C64.1174 4.8088 65.5044 6.1958 67.2154 6.1958C68.9263 6.1958 70.3134 4.8088 70.3134 3.09784Z" fill="#6F2DBD"/>
<path d="M85.098 160.902C85.098 159.191 83.711 157.804 82.0001 157.804C80.2891 157.804 78.9021 159.191 78.9021 160.902C78.9021 162.613 80.2891 164 82.0001 164C83.711 164 85.098 162.613 85.098 160.902Z" fill="#6F2DBD"/>
<path d="M85.098 145.122C85.098 143.411 83.711 142.024 82.0001 142.024C80.2891 142.024 78.9021 143.411 78.9021 145.122C78.9021 146.833 80.2891 148.22 82.0001 148.22C83.711 148.22 85.098 146.833 85.098 145.122Z" fill="#6F2DBD"/>
<path d="M85.098 129.342C85.098 127.631 83.711 126.244 82.0001 126.244C80.2891 126.244 78.9021 127.631 78.9021 129.342C78.9021 131.053 80.2891 132.44 82.0001 132.44C83.711 132.44 85.098 131.053 85.098 129.342Z" fill="#6F2DBD"/>
<path d="M85.098 113.56C85.098 111.849 83.711 110.462 82.0001 110.462C80.2891 110.462 78.9021 111.849 78.9021 113.56C78.9021 115.271 80.2891 116.658 82.0001 116.658C83.711 116.658 85.098 115.271 85.098 113.56Z" fill="#6F2DBD"/>
<path d="M85.098 97.78C85.098 96.069 83.711 94.682 82.0001 94.682C80.2891 94.682 78.9021 96.069 78.9021 97.78C78.9021 99.4909 80.2891 100.878 82.0001 100.878C83.711 100.878 85.098 99.4909 85.098 97.78Z" fill="#6F2DBD"/>
<path d="M85.098 82.0002C85.098 80.2892 83.711 78.9022 82.0001 78.9022C80.2891 78.9022 78.9021 80.2892 78.9021 82.0002C78.9021 83.7111 80.2891 85.0981 82.0001 85.0981C83.711 85.0981 85.098 83.7111 85.098 82.0002Z" fill="#6F2DBD"/>
<path d="M85.098 66.2199C85.098 64.509 83.711 63.122 82.0001 63.122C80.2891 63.122 78.9021 64.509 78.9021 66.2199C78.9021 67.9309 80.2891 69.3179 82.0001 69.3179C83.711 69.3179 85.098 67.9309 85.098 66.2199Z" fill="#6F2DBD"/>
<path d="M85.098 50.4396C85.098 48.7287 83.711 47.3417 82.0001 47.3417C80.2891 47.3417 78.9021 48.7287 78.9021 50.4396C78.9021 52.1506 80.2891 53.5376 82.0001 53.5376C83.711 53.5376 85.098 52.1506 85.098 50.4396Z" fill="#6F2DBD"/>
<path d="M85.098 34.6579C85.098 32.9469 83.711 31.5599 82.0001 31.5599C80.2891 31.5599 78.9021 32.9469 78.9021 34.6579C78.9021 36.3689 80.2891 37.7559 82.0001 37.7559C83.711 37.7559 85.098 36.3689 85.098 34.6579Z" fill="#6F2DBD"/>
<path d="M85.098 18.8781C85.098 17.1672 83.711 15.7802 82.0001 15.7802C80.2891 15.7802 78.9021 17.1672 78.9021 18.8781C78.9021 20.5891 80.2891 21.9761 82.0001 21.9761C83.711 21.9761 85.098 20.5891 85.098 18.8781Z" fill="#6F2DBD"/>
<path d="M85.098 3.09784C85.098 1.38688 83.711 -0.000119152 82.0001 -0.000119172C80.2891 -0.000119193 78.9021 1.38688 78.9021 3.09784C78.9021 4.8088 80.2891 6.1958 82.0001 6.1958C83.711 6.1958 85.098 4.8088 85.098 3.09784Z" fill="#6F2DBD"/>
<path d="M99.8824 160.902C99.8824 159.191 98.4954 157.804 96.7845 157.804C95.0735 157.804 93.6865 159.191 93.6865 160.902C93.6865 162.613 95.0735 164 96.7845 164C98.4954 164 99.8824 162.613 99.8824 160.902Z" fill="#6F2DBD"/>
<path d="M99.8824 145.122C99.8824 143.411 98.4954 142.024 96.7845 142.024C95.0735 142.024 93.6865 143.411 93.6865 145.122C93.6865 146.833 95.0735 148.22 96.7845 148.22C98.4954 148.22 99.8824 146.833 99.8824 145.122Z" fill="#6F2DBD"/>
<path d="M99.8824 129.342C99.8824 127.631 98.4954 126.244 96.7845 126.244C95.0735 126.244 93.6865 127.631 93.6865 129.342C93.6865 131.053 95.0735 132.44 96.7845 132.44C98.4954 132.44 99.8824 131.053 99.8824 129.342Z" fill="#6F2DBD"/>
<path d="M99.8824 113.56C99.8824 111.849 98.4954 110.462 96.7845 110.462C95.0735 110.462 93.6865 111.849 93.6865 113.56C93.6865 115.271 95.0735 116.658 96.7845 116.658C98.4954 116.658 99.8824 115.271 99.8824 113.56Z" fill="#6F2DBD"/>
<path d="M99.8824 97.78C99.8824 96.069 98.4954 94.682 96.7845 94.682C95.0735 94.682 93.6865 96.069 93.6865 97.78C93.6865 99.4909 95.0735 100.878 96.7845 100.878C98.4954 100.878 99.8824 99.4909 99.8824 97.78Z" fill="#6F2DBD"/>
<path d="M99.8824 82.0002C99.8824 80.2892 98.4954 78.9022 96.7845 78.9022C95.0735 78.9022 93.6865 80.2892 93.6865 82.0002C93.6865 83.7111 95.0735 85.0981 96.7845 85.0981C98.4954 85.0981 99.8824 83.7111 99.8824 82.0002Z" fill="#6F2DBD"/>
<path d="M99.8824 66.2199C99.8824 64.509 98.4954 63.122 96.7845 63.122C95.0735 63.122 93.6865 64.509 93.6865 66.2199C93.6865 67.9309 95.0735 69.3179 96.7845 69.3179C98.4954 69.3179 99.8824 67.9309 99.8824 66.2199Z" fill="#6F2DBD"/>
<path d="M99.8824 50.4396C99.8824 48.7287 98.4954 47.3417 96.7845 47.3417C95.0735 47.3417 93.6865 48.7287 93.6865 50.4396C93.6865 52.1506 95.0735 53.5376 96.7845 53.5376C98.4954 53.5376 99.8824 52.1506 99.8824 50.4396Z" fill="#6F2DBD"/>
<path d="M99.8824 34.6579C99.8824 32.9469 98.4954 31.5599 96.7845 31.5599C95.0735 31.5599 93.6865 32.9469 93.6865 34.6579C93.6865 36.3689 95.0735 37.7559 96.7845 37.7559C98.4954 37.7559 99.8824 36.3689 99.8824 34.6579Z" fill="#6F2DBD"/>
<path d="M99.8824 18.8781C99.8824 17.1672 98.4954 15.7802 96.7845 15.7802C95.0735 15.7802 93.6865 17.1672 93.6865 18.8781C93.6865 20.5891 95.0735 21.9761 96.7845 21.9761C98.4954 21.9761 99.8824 20.5891 99.8824 18.8781Z" fill="#6F2DBD"/>
<path d="M99.8824 3.09784C99.8824 1.38688 98.4954 -0.000119152 96.7845 -0.000119172C95.0735 -0.000119193 93.6865 1.38688 93.6865 3.09784C93.6865 4.8088 95.0735 6.1958 96.7845 6.1958C98.4954 6.1958 99.8824 4.8088 99.8824 3.09784Z" fill="#6F2DBD"/>
<path d="M114.669 160.902C114.669 159.191 113.282 157.804 111.571 157.804C109.86 157.804 108.473 159.191 108.473 160.902C108.473 162.613 109.86 164 111.571 164C113.282 164 114.669 162.613 114.669 160.902Z" fill="#6F2DBD"/>
<path d="M114.669 145.122C114.669 143.411 113.282 142.024 111.571 142.024C109.86 142.024 108.473 143.411 108.473 145.122C108.473 146.833 109.86 148.22 111.571 148.22C113.282 148.22 114.669 146.833 114.669 145.122Z" fill="#6F2DBD"/>
<path d="M114.669 129.342C114.669 127.631 113.282 126.244 111.571 126.244C109.86 126.244 108.473 127.631 108.473 129.342C108.473 131.053 109.86 132.44 111.571 132.44C113.282 132.44 114.669 131.053 114.669 129.342Z" fill="#6F2DBD"/>
<path d="M114.669 113.56C114.669 111.849 113.282 110.462 111.571 110.462C109.86 110.462 108.473 111.849 108.473 113.56C108.473 115.271 109.86 116.658 111.571 116.658C113.282 116.658 114.669 115.271 114.669 113.56Z" fill="#6F2DBD"/>
<path d="M114.669 97.78C114.669 96.069 113.282 94.682 111.571 94.682C109.86 94.682 108.473 96.069 108.473 97.78C108.473 99.4909 109.86 100.878 111.571 100.878C113.282 100.878 114.669 99.4909 114.669 97.78Z" fill="#6F2DBD"/>
<path d="M114.669 82.0002C114.669 80.2892 113.282 78.9022 111.571 78.9022C109.86 78.9022 108.473 80.2892 108.473 82.0002C108.473 83.7111 109.86 85.0981 111.571 85.0981C113.282 85.0981 114.669 83.7111 114.669 82.0002Z" fill="#6F2DBD"/>
<path d="M114.669 66.2199C114.669 64.509 113.282 63.122 111.571 63.122C109.86 63.122 108.473 64.509 108.473 66.2199C108.473 67.9309 109.86 69.3179 111.571 69.3179C113.282 69.3179 114.669 67.9309 114.669 66.2199Z" fill="#6F2DBD"/>
<path d="M114.669 50.4396C114.669 48.7287 113.282 47.3417 111.571 47.3417C109.86 47.3417 108.473 48.7287 108.473 50.4396C108.473 52.1506 109.86 53.5376 111.571 53.5376C113.282 53.5376 114.669 52.1506 114.669 50.4396Z" fill="#6F2DBD"/>
<path d="M114.669 34.6579C114.669 32.9469 113.282 31.5599 111.571 31.5599C109.86 31.5599 108.473 32.9469 108.473 34.6579C108.473 36.3689 109.86 37.7559 111.571 37.7559C113.282 37.7559 114.669 36.3689 114.669 34.6579Z" fill="#6F2DBD"/>
<path d="M114.669 18.8781C114.669 17.1672 113.282 15.7802 111.571 15.7802C109.86 15.7802 108.473 17.1672 108.473 18.8781C108.473 20.5891 109.86 21.9761 111.571 21.9761C113.282 21.9761 114.669 20.5891 114.669 18.8781Z" fill="#6F2DBD"/>
<path d="M114.669 3.09784C114.669 1.38688 113.282 -0.000119152 111.571 -0.000119172C109.86 -0.000119193 108.473 1.38688 108.473 3.09784C108.473 4.8088 109.86 6.1958 111.571 6.1958C113.282 6.1958 114.669 4.8088 114.669 3.09784Z" fill="#6F2DBD"/>
<path d="M129.453 160.902C129.453 159.191 128.066 157.804 126.356 157.804C124.645 157.804 123.258 159.191 123.258 160.902C123.258 162.613 124.645 164 126.356 164C128.066 164 129.453 162.613 129.453 160.902Z" fill="#6F2DBD"/>
<path d="M129.453 145.122C129.453 143.411 128.066 142.024 126.356 142.024C124.645 142.024 123.258 143.411 123.258 145.122C123.258 146.833 124.645 148.22 126.356 148.22C128.066 148.22 129.453 146.833 129.453 145.122Z" fill="#6F2DBD"/>
<path d="M129.453 129.342C129.453 127.631 128.066 126.244 126.356 126.244C124.645 126.244 123.258 127.631 123.258 129.342C123.258 131.053 124.645 132.44 126.356 132.44C128.066 132.44 129.453 131.053 129.453 129.342Z" fill="#6F2DBD"/>
<path d="M129.453 113.56C129.453 111.849 128.066 110.462 126.356 110.462C124.645 110.462 123.258 111.849 123.258 113.56C123.258 115.271 124.645 116.658 126.356 116.658C128.066 116.658 129.453 115.271 129.453 113.56Z" fill="#6F2DBD"/>
<path d="M129.453 97.78C129.453 96.069 128.066 94.682 126.356 94.682C124.645 94.682 123.258 96.069 123.258 97.78C123.258 99.4909 124.645 100.878 126.356 100.878C128.066 100.878 129.453 99.4909 129.453 97.78Z" fill="#6F2DBD"/>
<path d="M129.453 82.0002C129.453 80.2892 128.066 78.9022 126.356 78.9022C124.645 78.9022 123.258 80.2892 123.258 82.0002C123.258 83.7111 124.645 85.0981 126.356 85.0981C128.066 85.0981 129.453 83.7111 129.453 82.0002Z" fill="#6F2DBD"/>
<path d="M129.453 66.2199C129.453 64.509 128.066 63.122 126.356 63.122C124.645 63.122 123.258 64.509 123.258 66.2199C123.258 67.9309 124.645 69.3179 126.356 69.3179C128.066 69.3179 129.453 67.9309 129.453 66.2199Z" fill="#6F2DBD"/>
<path d="M129.453 50.4396C129.453 48.7287 128.066 47.3417 126.356 47.3417C124.645 47.3417 123.258 48.7287 123.258 50.4396C123.258 52.1506 124.645 53.5376 126.356 53.5376C128.066 53.5376 129.453 52.1506 129.453 50.4396Z" fill="#6F2DBD"/>
<path d="M129.453 34.6579C129.453 32.9469 128.066 31.5599 126.356 31.5599C124.645 31.5599 123.258 32.9469 123.258 34.6579C123.258 36.3689 124.645 37.7559 126.356 37.7559C128.066 37.7559 129.453 36.3689 129.453 34.6579Z" fill="#6F2DBD"/>
<path d="M129.453 18.8781C129.453 17.1672 128.066 15.7802 126.356 15.7802C124.645 15.7802 123.258 17.1672 123.258 18.8781C123.258 20.5891 124.645 21.9761 126.356 21.9761C128.066 21.9761 129.453 20.5891 129.453 18.8781Z" fill="#6F2DBD"/>
<path d="M129.453 3.09784C129.453 1.38688 128.066 -0.000119152 126.356 -0.000119172C124.645 -0.000119193 123.258 1.38688 123.258 3.09784C123.258 4.8088 124.645 6.1958 126.356 6.1958C128.066 6.1958 129.453 4.8088 129.453 3.09784Z" fill="#6F2DBD"/>
<path d="M144.238 160.902C144.238 159.191 142.851 157.804 141.14 157.804C139.429 157.804 138.042 159.191 138.042 160.902C138.042 162.613 139.429 164 141.14 164C142.851 164 144.238 162.613 144.238 160.902Z" fill="#6F2DBD"/>
<path d="M144.238 145.122C144.238 143.411 142.851 142.024 141.14 142.024C139.429 142.024 138.042 143.411 138.042 145.122C138.042 146.833 139.429 148.22 141.14 148.22C142.851 148.22 144.238 146.833 144.238 145.122Z" fill="#6F2DBD"/>
<path d="M144.238 129.342C144.238 127.631 142.851 126.244 141.14 126.244C139.429 126.244 138.042 127.631 138.042 129.342C138.042 131.053 139.429 132.44 141.14 132.44C142.851 132.44 144.238 131.053 144.238 129.342Z" fill="#6F2DBD"/>
<path d="M144.238 113.56C144.238 111.849 142.851 110.462 141.14 110.462C139.429 110.462 138.042 111.849 138.042 113.56C138.042 115.271 139.429 116.658 141.14 116.658C142.851 116.658 144.238 115.271 144.238 113.56Z" fill="#6F2DBD"/>
<path d="M144.238 97.78C144.238 96.069 142.851 94.682 141.14 94.682C139.429 94.682 138.042 96.069 138.042 97.78C138.042 99.4909 139.429 100.878 141.14 100.878C142.851 100.878 144.238 99.4909 144.238 97.78Z" fill="#6F2DBD"/>
<path d="M144.238 82.0002C144.238 80.2892 142.851 78.9022 141.14 78.9022C139.429 78.9022 138.042 80.2892 138.042 82.0002C138.042 83.7111 139.429 85.0981 141.14 85.0981C142.851 85.0981 144.238 83.7111 144.238 82.0002Z" fill="#6F2DBD"/>
<path d="M144.238 66.2199C144.238 64.509 142.851 63.122 141.14 63.122C139.429 63.122 138.042 64.509 138.042 66.2199C138.042 67.9309 139.429 69.3179 141.14 69.3179C142.851 69.3179 144.238 67.9309 144.238 66.2199Z" fill="#6F2DBD"/>
<path d="M144.238 50.4396C144.238 48.7287 142.851 47.3417 141.14 47.3417C139.429 47.3417 138.042 48.7287 138.042 50.4396C138.042 52.1506 139.429 53.5376 141.14 53.5376C142.851 53.5376 144.238 52.1506 144.238 50.4396Z" fill="#6F2DBD"/>
<path d="M144.238 34.6579C144.238 32.9469 142.851 31.5599 141.14 31.5599C139.429 31.5599 138.042 32.9469 138.042 34.6579C138.042 36.3689 139.429 37.7559 141.14 37.7559C142.851 37.7559 144.238 36.3689 144.238 34.6579Z" fill="#6F2DBD"/>
<path d="M144.238 18.8781C144.238 17.1672 142.851 15.7802 141.14 15.7802C139.429 15.7802 138.042 17.1672 138.042 18.8781C138.042 20.5891 139.429 21.9761 141.14 21.9761C142.851 21.9761 144.238 20.5891 144.238 18.8781Z" fill="#6F2DBD"/>
<path d="M144.238 3.09784C144.238 1.38688 142.851 -0.000119152 141.14 -0.000119172C139.429 -0.000119193 138.042 1.38688 138.042 3.09784C138.042 4.8088 139.429 6.1958 141.14 6.1958C142.851 6.1958 144.238 4.8088 144.238 3.09784Z" fill="#6F2DBD"/>
</g>
<defs>
<clipPath id="clip0_758_2933">
<rect width="164" height="164" fill="white" transform="translate(0 164) rotate(-90)"/>
</clipPath>
</defs>
</svg>
