<svg width="496" height="392" viewBox="0 0 496 392" fill="none" xmlns="http://www.w3.org/2000/svg">
<path d="M49.5009 390.976L49.5008 1.0235C49.5008 0.75205 49.4745 0.491703 49.4275 0.299759C49.3805 0.107816 49.3168 -1.38493e-08 49.2504 -1.09462e-08C49.184 -8.0431e-09 49.1203 0.107816 49.0734 0.299759C49.0264 0.491703 49 0.75205 49 1.0235L49 390.976C49 391.248 49.0264 391.508 49.0734 391.7C49.1203 391.892 49.184 392 49.2504 392C49.3169 392 49.3805 391.892 49.4275 391.7C49.4745 391.508 49.5009 391.248 49.5009 390.976Z" fill="#EAEDEE"/>
<path d="M333.728 390.976L333.728 1.0235C333.728 0.75205 333.702 0.491703 333.655 0.299759C333.608 0.107816 333.544 -1.38493e-08 333.477 -1.09462e-08C333.411 -8.0431e-09 333.347 0.107816 333.3 0.299759C333.253 0.491703 333.227 0.75205 333.227 1.0235L333.227 390.976C333.227 391.248 333.253 391.508 333.3 391.7C333.347 391.892 333.411 392 333.477 392C333.544 392 333.608 391.892 333.655 391.7C333.702 391.508 333.728 391.248 333.728 390.976Z" fill="#EAEDEE"/>
<path d="M90.069 390.976L90.069 1.0235C90.069 0.75205 90.0426 0.491703 89.9956 0.299759C89.9486 0.107816 89.885 -1.38493e-08 89.8185 -1.09462e-08C89.7521 -8.0431e-09 89.6884 0.107816 89.6415 0.299759C89.5945 0.491703 89.5681 0.75205 89.5681 1.0235L89.5681 390.976C89.5681 391.248 89.5945 391.508 89.6415 391.7C89.6884 391.892 89.7521 392 89.8186 392C89.885 392 89.9487 391.892 89.9956 391.7C90.0426 391.508 90.069 391.248 90.069 390.976Z" fill="#EAEDEE"/>
<path d="M374.296 390.976L374.296 1.0235C374.296 0.75205 374.269 0.491703 374.222 0.299759C374.175 0.107816 374.112 -1.38493e-08 374.045 -1.09462e-08C373.979 -8.0431e-09 373.915 0.107816 373.868 0.299759C373.821 0.491703 373.795 0.75205 373.795 1.0235L373.795 390.976C373.795 391.248 373.821 391.508 373.868 391.7C373.915 391.892 373.979 392 374.045 392C374.112 392 374.175 391.892 374.222 391.7C374.269 391.508 374.296 391.248 374.296 390.976Z" fill="#EAEDEE"/>
<path d="M130.637 390.976L130.637 1.0235C130.637 0.75205 130.61 0.491703 130.563 0.299759C130.517 0.107816 130.453 -1.38493e-08 130.386 -1.09462e-08C130.32 -8.0431e-09 130.256 0.107816 130.209 0.299759C130.162 0.491703 130.136 0.75205 130.136 1.0235L130.136 390.976C130.136 391.248 130.162 391.508 130.209 391.7C130.256 391.892 130.32 392 130.386 392C130.453 392 130.517 391.892 130.563 391.7C130.61 391.508 130.637 391.248 130.637 390.976Z" fill="#EAEDEE"/>
<path d="M414.864 390.976L414.864 1.0235C414.864 0.75205 414.837 0.491703 414.79 0.299759C414.743 0.107816 414.68 -1.38493e-08 414.613 -1.09462e-08C414.547 -8.0431e-09 414.483 0.107816 414.436 0.299759C414.389 0.491703 414.363 0.75205 414.363 1.0235L414.363 390.976C414.363 391.248 414.389 391.508 414.436 391.7C414.483 391.892 414.547 392 414.613 392C414.68 392 414.743 391.892 414.79 391.7C414.837 391.508 414.864 391.248 414.864 390.976Z" fill="#EAEDEE"/>
<path d="M171.205 390.976L171.205 1.0235C171.205 0.75205 171.179 0.491703 171.132 0.299759C171.085 0.107816 171.021 -1.38493e-08 170.955 -1.09462e-08C170.888 -8.0431e-09 170.824 0.107816 170.777 0.299759C170.73 0.491703 170.704 0.75205 170.704 1.0235L170.704 390.976C170.704 391.248 170.731 391.508 170.777 391.7C170.824 391.892 170.888 392 170.955 392C171.021 392 171.085 391.892 171.132 391.7C171.179 391.508 171.205 391.248 171.205 390.976Z" fill="#EAEDEE"/>
<path d="M455.432 390.976L455.432 1.0235C455.432 0.75205 455.405 0.491703 455.358 0.299759C455.311 0.107816 455.248 -1.38493e-08 455.181 -1.09462e-08C455.115 -8.0431e-09 455.051 0.107816 455.004 0.299759C454.957 0.491703 454.931 0.75205 454.931 1.0235L454.931 390.976C454.931 391.248 454.957 391.508 455.004 391.7C455.051 391.892 455.115 392 455.181 392C455.248 392 455.311 391.892 455.358 391.7C455.405 391.508 455.432 391.248 455.432 390.976Z" fill="#EAEDEE"/>
<path d="M211.773 390.976L211.773 1.0235C211.773 0.75205 211.746 0.491703 211.699 0.299759C211.653 0.107816 211.589 -1.38493e-08 211.522 -1.09462e-08C211.456 -8.0431e-09 211.392 0.107816 211.345 0.299759C211.298 0.491703 211.272 0.75205 211.272 1.0235L211.272 390.976C211.272 391.248 211.298 391.508 211.345 391.7C211.392 391.892 211.456 392 211.522 392C211.589 392 211.653 391.892 211.699 391.7C211.746 391.508 211.773 391.248 211.773 390.976Z" fill="#EAEDEE"/>
<path d="M496 390.976L496 1.0235C496 0.75205 495.973 0.491703 495.926 0.299759C495.879 0.107816 495.816 -1.38493e-08 495.749 -1.09462e-08C495.683 -8.0431e-09 495.619 0.107816 495.572 0.299759C495.525 0.491703 495.499 0.75205 495.499 1.0235L495.499 390.976C495.499 391.248 495.525 391.508 495.572 391.7C495.619 391.892 495.683 392 495.749 392C495.816 392 495.879 391.892 495.926 391.7C495.973 391.508 496 391.248 496 390.976Z" fill="#EAEDEE"/>
<path d="M252.341 390.976L252.341 1.0235C252.341 0.75205 252.314 0.491703 252.267 0.299759C252.22 0.107816 252.157 -1.38493e-08 252.09 -1.09462e-08C252.024 -8.0431e-09 251.96 0.107816 251.913 0.299759C251.866 0.491703 251.84 0.75205 251.84 1.0235L251.84 390.976C251.84 391.248 251.866 391.508 251.913 391.7C251.96 391.892 252.024 392 252.09 392C252.157 392 252.22 391.892 252.267 391.7C252.314 391.508 252.341 391.248 252.341 390.976Z" fill="#EAEDEE"/>
<path d="M292.909 390.976L292.909 1.0235C292.909 0.75205 292.882 0.491703 292.835 0.299759C292.788 0.107816 292.725 -1.38493e-08 292.658 -1.09462e-08C292.592 -8.0431e-09 292.528 0.107816 292.481 0.299759C292.434 0.491703 292.408 0.75205 292.408 1.0235L292.408 390.976C292.408 391.248 292.434 391.508 292.481 391.7C292.528 391.892 292.592 392 292.658 392C292.725 392 292.788 391.892 292.835 391.7C292.882 391.508 292.909 391.248 292.909 390.976Z" fill="#EAEDEE"/>
<path d="M1.29504 33.4H494.705C495.048 33.4 495.378 33.3789 495.621 33.3414C495.864 33.3039 496 33.253 496 33.2C496 33.147 495.864 33.0961 495.621 33.0586C495.378 33.0211 495.048 33 494.705 33H1.29504C0.951569 33 0.622192 33.0211 0.379333 33.0586C0.136444 33.0961 0 33.147 0 33.2C0 33.253 0.136444 33.3039 0.379333 33.3414C0.622192 33.3789 0.951569 33.4 1.29504 33.4Z" fill="#EAEDEE"/>
<path d="M1.29504 260.4H494.705C495.048 260.4 495.378 260.379 495.621 260.341C495.864 260.304 496 260.253 496 260.2C496 260.147 495.864 260.096 495.621 260.059C495.378 260.021 495.048 260 494.705 260H1.29504C0.951569 260 0.622192 260.021 0.379333 260.059C0.136444 260.096 0 260.147 0 260.2C0 260.253 0.136444 260.304 0.379333 260.341C0.622192 260.379 0.951569 260.4 1.29504 260.4Z" fill="#EAEDEE"/>
<path d="M1.29504 65.7999H494.705C495.048 65.7999 495.378 65.7788 495.621 65.7413C495.864 65.7038 496 65.6529 496 65.5999C496 65.5469 495.864 65.496 495.621 65.4585C495.378 65.421 495.048 65.3999 494.705 65.3999H1.29504C0.951569 65.3999 0.622192 65.421 0.379333 65.4585C0.136444 65.496 0 65.5469 0 65.5999C0 65.6529 0.136444 65.7038 0.379333 65.7413C0.622192 65.7788 0.951569 65.7999 1.29504 65.7999Z" fill="#EAEDEE"/>
<path d="M1.29504 292.8H494.705C495.048 292.8 495.378 292.779 495.621 292.741C495.864 292.704 496 292.653 496 292.6C496 292.547 495.864 292.496 495.621 292.458C495.378 292.421 495.048 292.4 494.705 292.4H1.29504C0.951569 292.4 0.622192 292.421 0.379333 292.458C0.136444 292.496 0 292.547 0 292.6C0 292.653 0.136444 292.704 0.379333 292.741C0.622192 292.779 0.951569 292.8 1.29504 292.8Z" fill="#EAEDEE"/>
<path d="M1.29504 98.1998H494.705C495.048 98.1998 495.378 98.1787 495.621 98.1412C495.864 98.1037 496 98.0528 496 97.9998C496 97.9468 495.864 97.8959 495.621 97.8584C495.378 97.8209 495.048 97.7998 494.705 97.7998H1.29504C0.951569 97.7998 0.622192 97.8209 0.379333 97.8584C0.136444 97.8959 0 97.9468 0 97.9998C0 98.0528 0.136444 98.1037 0.379333 98.1412C0.622192 98.1787 0.951569 98.1998 1.29504 98.1998Z" fill="#EAEDEE"/>
<path d="M1.29504 325.2H494.705C495.048 325.2 495.378 325.179 495.621 325.141C495.864 325.104 496 325.053 496 325C496 324.947 495.864 324.896 495.621 324.858C495.378 324.821 495.048 324.8 494.705 324.8H1.29504C0.951569 324.8 0.622192 324.821 0.379333 324.858C0.136444 324.896 0 324.947 0 325C0 325.053 0.136444 325.104 0.379333 325.141C0.622192 325.179 0.951569 325.2 1.29504 325.2Z" fill="#EAEDEE"/>
<path d="M1.29504 130.6H494.705C495.048 130.6 495.378 130.579 495.621 130.541C495.864 130.504 496 130.453 496 130.4C496 130.347 495.864 130.296 495.621 130.258C495.378 130.221 495.048 130.2 494.705 130.2H1.29504C0.951569 130.2 0.622192 130.221 0.379333 130.258C0.136444 130.296 0 130.347 0 130.4C0 130.453 0.136444 130.504 0.379333 130.541C0.622192 130.579 0.951569 130.6 1.29504 130.6Z" fill="#EAEDEE"/>
<path d="M1.29504 357.6H494.705C495.048 357.6 495.378 357.579 495.621 357.541C495.864 357.504 496 357.453 496 357.4C496 357.347 495.864 357.296 495.621 357.258C495.378 357.221 495.048 357.2 494.705 357.2H1.29504C0.951569 357.2 0.622192 357.221 0.379333 357.258C0.136444 357.296 0 357.347 0 357.4C0 357.453 0.136444 357.504 0.379333 357.541C0.622192 357.579 0.951569 357.6 1.29504 357.6Z" fill="#EAEDEE"/>
<path d="M1.29504 163H494.705C495.048 163 495.378 162.979 495.621 162.941C495.864 162.904 496 162.853 496 162.8C496 162.747 495.864 162.696 495.621 162.658C495.378 162.621 495.048 162.6 494.705 162.6H1.29504C0.951569 162.6 0.622192 162.621 0.379333 162.658C0.136444 162.696 0 162.747 0 162.8C0 162.853 0.136444 162.904 0.379333 162.941C0.622192 162.979 0.951569 163 1.29504 163Z" fill="#EAEDEE"/>
<path d="M1.29504 390H494.705C495.048 390 495.378 389.979 495.621 389.941C495.864 389.904 496 389.853 496 389.8C496 389.747 495.864 389.696 495.621 389.658C495.378 389.621 495.048 389.6 494.705 389.6H1.29504C0.951569 389.6 0.622192 389.621 0.379333 389.658C0.136444 389.696 0 389.747 0 389.8C0 389.853 0.136444 389.904 0.379333 389.941C0.622192 389.979 0.951569 390 1.29504 390Z" fill="#EAEDEE"/>
<path d="M1.29504 195.4H494.705C495.048 195.4 495.378 195.378 495.621 195.341C495.864 195.303 496 195.253 496 195.2C496 195.146 495.864 195.096 495.621 195.058C495.378 195.021 495.048 195 494.705 195H1.29504C0.951569 195 0.622192 195.021 0.379333 195.058C0.136444 195.096 0 195.146 0 195.2C0 195.253 0.136444 195.303 0.379333 195.341C0.622192 195.378 0.951569 195.4 1.29504 195.4Z" fill="#EAEDEE"/>
<path d="M1.29504 227.799H494.705C495.048 227.799 495.378 227.778 495.621 227.741C495.864 227.703 496 227.652 496 227.599C496 227.546 495.864 227.496 495.621 227.458C495.378 227.42 495.048 227.399 494.705 227.399H1.29504C0.951569 227.399 0.622192 227.42 0.379333 227.458C0.136444 227.496 0 227.546 0 227.599C0 227.652 0.136444 227.703 0.379333 227.741C0.622192 227.778 0.951569 227.799 1.29504 227.799Z" fill="#EAEDEE"/>
</svg>
