<svg width="168" height="406" viewBox="0 0 168 406" fill="none" xmlns="http://www.w3.org/2000/svg">
<path d="M72.5329 392.999L59.7929 392.998L53.7329 343.86L72.5349 343.861L72.5329 392.999Z" fill="#FFB8B8"/>
<path d="M75.782 388.84L50.6933 388.839H50.6923C46.452 388.839 42.3854 390.523 39.3871 393.522C36.3887 396.52 34.7042 400.586 34.7039 404.827V405.346L75.7812 405.348L75.782 388.84Z" fill="#2F2E41"/>
<path d="M163.909 379.455L139.555 385.482L139.554 385.482C135.438 386.501 131.895 389.114 129.705 392.745C127.515 396.375 126.856 400.728 127.875 404.844L128 405.348L167.874 395.48L163.909 379.455Z" fill="#2F2E41"/>
<path d="M114.627 194.519L125.829 258.284C125.829 258.284 130.137 266.039 128.414 269.486C126.69 272.933 125.829 272.933 128.414 274.656C130.999 276.38 134.446 274.656 133.584 278.965C133.067 281.519 132.779 284.114 132.722 286.72L156.85 369.443C156.85 369.443 172.36 376.336 161.158 380.645C149.956 384.953 138.754 388.4 136.169 384.092C133.584 379.783 136.169 374.613 136.169 374.613L96.531 279.826C96.531 279.826 90.4992 271.209 90.4992 266.039C90.4992 260.869 70.6802 223.816 70.6802 223.816C70.6802 223.816 69.8185 260.869 68.9568 263.454C68.0951 266.039 70.6802 271.209 70.6802 274.656C70.6802 278.103 72.4036 278.103 70.6802 279.826C68.9568 281.55 68.9568 301.369 68.9568 301.369C68.9568 301.369 79.2971 378.06 73.2653 378.921C67.2334 379.783 49.9995 378.06 49.9995 374.613C49.9242 373.714 50.1333 372.815 50.5972 372.042C51.0611 371.269 51.7563 370.661 52.5845 370.304L41.3826 304.816C41.3826 304.816 42.2442 300.507 40.5208 297.06C38.7974 293.614 38.7974 293.613 38.7974 291.89C38.7974 290.167 39.6591 289.305 38.7974 288.443C38.2346 287.699 37.9319 286.791 37.9358 285.858C37.9358 285.858 39.6591 280.688 38.7974 279.826C37.9357 278.965 18.9784 214.337 25.0103 206.582C31.0422 198.827 114.627 194.519 114.627 194.519Z" fill="#2F2E41"/>
<path d="M73.0878 56.9151C60.7144 56.9151 50.6837 46.8845 50.6837 34.511C50.6837 22.1376 60.7144 12.1069 73.0878 12.1069C85.4613 12.1069 95.4919 22.1376 95.4919 34.511C95.4919 46.8845 85.4613 56.9151 73.0878 56.9151Z" fill="#FFB8B8"/>
<path d="M88.9172 50.7354C87.7652 49.9629 87.7206 48.1952 88.1067 46.7608C88.4929 45.3265 89.1949 43.9161 89.1347 42.4572C88.9697 38.4594 83.4636 36.8558 83.149 32.8776C82.9555 30.4309 84.8542 27.7255 83.7586 25.6071C83.0667 24.2694 81.4575 23.8232 79.9922 23.5664C74.3054 22.5842 68.4859 22.6623 62.8274 23.7969L62.002 21.6284L57.8086 24.3953C57.5796 23.0496 55.7169 22.9146 54.4995 23.5605C53.2821 24.2064 52.2282 25.3217 50.8997 25.537C48.7824 25.8803 47.1087 23.5873 47.2205 21.381C47.3323 19.1746 48.6785 17.1759 50.0878 15.4333C53.6144 11.0653 57.8925 7.36192 62.7208 4.49756L61.5572 2.40079L64.0492 3.40155L64.3225 0.89386L66.7503 2.25836L66.7848 -0.000244141C69.3841 2.98443 73.9108 2.8816 77.8843 3.15076C84.5273 3.45826 90.9088 5.83086 96.1392 9.93777C98.7503 12.0696 100.889 14.7218 102.418 17.7255C103.948 20.7293 104.835 24.0187 105.023 27.3842C105.249 32.655 103.432 39.0702 99.5398 42.9787C96.0024 46.5314 90.7613 44.3754 88.9172 50.7354Z" fill="#2F2E41"/>
<path d="M18.1141 251.882C19.2516 250.815 20.1414 249.512 20.7208 248.064C21.3001 246.616 21.5549 245.059 21.4673 243.501C21.3796 241.944 20.9516 240.425 20.2134 239.051C19.4752 237.678 18.4447 236.482 17.1946 235.55L23.1702 211.915L9.69312 204.781L1.72314 238.276C0.295799 240.48 -0.273457 243.131 0.123169 245.727C0.519794 248.322 1.85479 250.682 3.87518 252.359C5.89557 254.037 8.46095 254.914 11.0853 254.826C13.7096 254.738 16.2105 253.691 18.1141 251.882Z" fill="#FFB8B8"/>
<path d="M54.1339 221.296C81.3672 221.298 106.435 208.972 106.774 208.802L107.055 208.662L109.34 153.816C110.003 151.878 123.053 113.634 125.263 101.478C127.502 89.1628 95.0477 78.3544 91.1066 77.0904L90.2122 67.1832L53.8431 63.2642L49.2336 75.9409L36.1859 80.8334C34.7068 81.3885 33.4826 82.4669 32.7454 83.8643C32.0082 85.2616 31.8091 86.8809 32.186 88.4152L39.4378 117.905L25.1735 215.473L25.5397 215.638C34.5617 219.531 44.309 221.46 54.1339 221.296Z" fill="#392D69"/>
<path d="M21.6194 227.417L34.2407 175.458L47.9207 112.759L40.9766 81.509H35.0398C34.931 81.509 24.1427 81.6704 21.8198 95.6065C19.5701 109.105 12.7858 152.063 12.7177 152.495L1.25146 225.879L21.6194 227.417Z" fill="#392D69"/>
<path d="M75.626 218.636C75.6998 217.078 76.1143 215.556 76.8403 214.175C77.5663 212.795 78.586 211.591 79.8278 210.647C81.0696 209.704 82.5031 209.044 84.0275 208.714C85.5519 208.384 87.13 208.393 88.6507 208.739L102.758 188.858L116.931 194.484L96.6142 222.281C95.8632 224.797 94.2153 226.95 91.9828 228.333C89.7503 229.715 87.0883 230.23 84.5013 229.781C81.9142 229.332 79.5818 227.949 77.946 225.895C76.3102 223.841 75.4848 221.258 75.626 218.636V218.636Z" fill="#FFB8B8"/>
<path d="M103.122 217.163L145.809 161.784L129.815 111.516C128.643 98.8774 120.734 95.3483 120.397 95.2041L119.884 94.9839L105.966 132.101L116.185 159.352L91.1021 201.538L103.122 217.163Z" fill="#392D69"/>
</svg>
