<svg width="219" height="337" viewBox="0 0 219 337" fill="none" xmlns="http://www.w3.org/2000/svg">
<path d="M168.313 109.138C185.478 104.32 202.492 100.397 219 97.3765V101.817C202.874 104.794 186.26 108.639 169.491 113.345C116.105 128.328 67.7967 150.162 36.9535 173.25L34.3401 169.75C65.5976 146.352 114.429 124.26 168.313 109.138Z" fill="#CCCCCC"/>
<path d="M40.1554 191.033C40.1688 169.054 45.1363 147.362 54.6878 127.572C64.2393 107.783 78.1284 90.4079 95.3199 76.7414C112.511 63.0749 132.562 53.4699 153.976 48.6423C175.391 43.8146 197.618 43.8888 219 48.8594V333.197C186.851 340.69 153.115 337.042 123.305 322.847C93.496 308.653 69.3777 284.753 54.893 255.054C54.1409 253.519 53.4179 251.969 52.7239 250.405C44.4106 231.72 40.1277 211.489 40.1551 191.033L40.1554 191.033Z" fill="#A6A1BC"/>
<path opacity="0.1" d="M183.731 89.0151C176.966 89.0151 171.482 83.5241 171.482 76.7506C171.482 69.9771 176.966 64.4861 183.731 64.4861C190.495 64.4861 195.979 69.9771 195.979 76.7506C195.979 83.5241 190.495 89.0151 183.731 89.0151Z" fill="black"/>
<path opacity="0.1" d="M183.731 197.723C176.966 197.723 171.482 192.232 171.482 185.459C171.482 178.685 176.966 173.194 183.731 173.194C190.495 173.194 195.979 178.685 195.979 185.459C195.979 192.232 190.495 197.723 183.731 197.723Z" fill="black"/>
<path opacity="0.1" d="M118.033 131.941C111.268 131.941 105.784 126.45 105.784 119.676C105.784 112.903 111.268 107.412 118.033 107.412C124.798 107.412 130.282 112.903 130.282 119.676C130.282 126.45 124.798 131.941 118.033 131.941Z" fill="black"/>
<path opacity="0.1" d="M77.3895 215.005C70.6247 215.005 65.1407 209.514 65.1407 202.74C65.1407 195.967 70.6247 190.476 77.3895 190.476C84.1542 190.476 89.6382 195.967 89.6382 202.74C89.6382 209.514 84.1542 215.005 77.3895 215.005Z" fill="black"/>
<path d="M6.8259 197.176C12.5775 188.339 21.8344 179.112 34.3401 169.75L36.9535 173.25C12.6516 191.441 1.33142 208.83 5.07729 222.212C7.16335 229.665 13.7765 235.718 24.7326 240.204C35.7159 244.701 50.455 247.392 68.5407 248.204C72.3835 248.376 76.3264 248.462 80.3696 248.462C115.757 248.461 158.425 241.901 202.05 229.658C207.77 228.052 213.42 226.373 219 224.62V229.196C213.803 230.813 208.546 232.369 203.228 233.865C159.222 246.215 116.141 252.832 80.348 252.831C76.2503 252.831 72.2422 252.744 68.3451 252.569C29.6171 250.831 5.65538 240.469 0.874908 223.392C-1.34238 215.47 0.659592 206.65 6.8259 197.176Z" fill="#F4EBFF"/>
<path opacity="0.1" d="M68.5395 251.698C72.3813 251.87 76.325 251.956 80.3705 251.956C115.755 251.956 158.427 245.397 202.05 233.153C207.77 231.548 213.42 229.869 219 228.116V232.692C213.804 234.309 208.547 235.865 203.229 237.361C159.221 249.71 116.143 256.326 80.3486 256.326C76.2509 256.326 72.24 256.238 68.3429 256.064C63.6356 255.854 59.1523 255.518 54.893 255.054C54.1406 253.519 53.4176 251.969 52.7239 250.405C57.6728 251.014 62.9446 251.445 68.5395 251.698Z" fill="black"/>
<path d="M118.082 84.5024C109.261 84.5024 102.111 77.3429 102.111 68.5113C102.111 59.6797 109.261 52.5203 118.082 52.5203C126.902 52.5203 134.052 59.6797 134.052 68.5113C134.052 77.3429 126.902 84.5024 118.082 84.5024Z" fill="white"/>
<path d="M118.033 44.9746C124.087 44.9746 129.893 47.3827 134.174 51.6691C138.455 55.9556 140.86 61.7692 140.86 67.8311C140.86 80.4544 118.033 121.906 118.033 121.906C118.033 121.906 95.2061 80.4544 95.2061 67.8311C95.2061 61.7692 97.611 55.9556 101.892 51.6691C106.173 47.3827 111.979 44.9746 118.033 44.9746ZM118.033 78.9807C120.125 78.9807 122.171 78.3594 123.91 77.1956C125.65 76.0317 127.006 74.3774 127.806 72.442C128.607 70.5065 128.816 68.3769 128.408 66.3222C128 64.2675 126.993 62.3802 125.513 60.8989C124.034 59.4175 122.149 58.4087 120.097 58C118.045 57.5913 115.918 57.8011 113.985 58.6028C112.052 59.4045 110.4 60.7621 109.238 62.504C108.075 64.2458 107.455 66.2937 107.455 68.3886C107.455 71.1978 108.569 73.8919 110.553 75.8783C112.537 77.8647 115.228 78.9807 118.033 78.9807Z" fill="#6F2DBD"/>
<path d="M183.96 142.47C175.14 142.47 167.99 135.31 167.99 126.479C167.99 117.647 175.14 110.488 183.96 110.488C192.78 110.488 199.931 117.647 199.931 126.479C199.931 135.31 192.78 142.47 183.96 142.47Z" fill="white"/>
<path d="M183.911 102.942C189.966 102.942 195.772 105.35 200.053 109.637C204.334 113.923 206.739 119.737 206.739 125.799C206.739 138.422 183.911 179.874 183.911 179.874C183.911 179.874 161.084 138.422 161.084 125.799C161.084 119.737 163.489 113.923 167.77 109.637C172.051 105.35 177.857 102.942 183.911 102.942ZM183.911 136.948C186.004 136.948 188.049 136.327 189.789 135.163C191.528 133.999 192.884 132.345 193.685 130.41C194.485 128.474 194.695 126.344 194.287 124.29C193.878 122.235 192.871 120.348 191.392 118.866C189.912 117.385 188.027 116.376 185.975 115.968C183.923 115.559 181.796 115.769 179.863 116.57C177.93 117.372 176.278 118.73 175.116 120.471C173.953 122.213 173.333 124.261 173.333 126.356C173.333 129.165 174.448 131.859 176.431 133.846C178.415 135.832 181.106 136.948 183.911 136.948Z" fill="#6F2DBD"/>
<path d="M183.96 39.5275C175.14 39.5275 167.99 32.3681 167.99 23.5365C167.99 14.7048 175.14 7.54541 183.96 7.54541C192.78 7.54541 199.931 14.7048 199.931 23.5365C199.931 32.3681 192.78 39.5275 183.96 39.5275Z" fill="white"/>
<path d="M183.911 -0.000244141C189.966 -0.000236189 195.772 2.40786 200.053 6.69428C204.334 10.9807 206.739 16.7943 206.739 22.8563C206.739 35.4796 183.911 76.9315 183.911 76.9315C183.911 76.9315 161.084 35.4796 161.084 22.8563C161.084 16.7943 163.489 10.9807 167.77 6.69428C172.051 2.40786 177.857 -0.000236189 183.911 -0.000244141ZM183.911 34.0058C186.004 34.0058 188.049 33.3846 189.789 32.2207C191.528 31.0568 192.884 29.4026 193.685 27.4671C194.485 25.5317 194.695 23.402 194.287 21.3473C193.878 19.2927 192.871 17.4053 191.392 15.924C189.912 14.4427 188.027 13.4339 185.975 13.0252C183.923 12.6165 181.796 12.8262 179.863 13.6279C177.93 14.4296 176.278 15.7872 175.116 17.5291C173.953 19.271 173.333 21.3188 173.333 23.4137C173.333 24.8047 173.607 26.1821 174.138 27.4671C174.67 28.7522 175.449 29.9199 176.431 30.9035C177.414 31.887 178.58 32.6672 179.863 33.1995C181.147 33.7318 182.522 34.0058 183.911 34.0058Z" fill="#F4EBFF"/>
<path d="M77.1573 163.458C68.3371 163.458 61.1868 156.299 61.1868 147.467C61.1868 138.636 68.3371 131.476 77.1573 131.476C85.9776 131.476 93.1278 138.636 93.1278 147.467C93.1278 156.299 85.9776 163.458 77.1573 163.458Z" fill="white"/>
<path d="M77.1087 123.93C83.1628 123.93 88.969 126.339 93.2499 130.625C97.5308 134.911 99.9358 140.725 99.9358 146.787C99.9358 159.41 77.1087 200.862 77.1087 200.862C77.1087 200.862 54.2816 159.41 54.2816 146.787C54.2816 140.725 56.6866 134.911 60.9675 130.625C65.2484 126.339 71.0546 123.93 77.1087 123.93ZM77.1087 157.936C79.2009 157.936 81.2462 157.315 82.9858 156.151C84.7254 154.987 86.0812 153.333 86.8819 151.398C87.6826 149.462 87.8921 147.333 87.4839 145.278C87.0757 143.223 86.0682 141.336 84.5888 139.855C83.1094 138.373 81.2245 137.365 79.1725 136.956C77.1204 136.547 74.9935 136.757 73.0605 137.559C71.1276 138.36 69.4754 139.718 68.3131 141.46C67.1507 143.202 66.5302 145.249 66.5302 147.344C66.5302 150.154 67.6448 152.848 69.6286 154.834C71.6125 156.821 74.3031 157.936 77.1087 157.936Z" fill="#F4EBFF"/>
</svg>
