<svg width="383" height="124" viewBox="0 0 383 124" fill="none" xmlns="http://www.w3.org/2000/svg">
<path d="M264.772 124C271.283 109.949 277.789 95.6888 280.614 80.464C283.44 65.2393 282.254 48.716 274.162 35.5107C266.069 22.3054 250.135 13.3508 234.929 16.3359C222.44 18.7877 212.412 28.6164 206.54 39.8998C200.668 51.1833 198.312 63.91 196.028 76.4214C195.29 62.2076 194.509 47.765 189.783 34.3381C185.058 20.9112 175.753 8.39866 162.492 3.203C149.23 -1.99265 131.979 2.09313 124.99 14.4948C115.143 31.9667 128.2 56.4745 116.877 73.0298C114.935 56.4235 97.555 43.3032 81.0372 45.9738C64.5194 48.6443 52.1673 66.5715 55.5653 82.9424C57.5872 92.6836 64.2388 100.969 72.1911 106.955C80.1435 112.941 89.3925 119.879 98.5419 123.803L264.772 124Z" fill="#F4EBFF"/>
<path d="M1 123.928H382C382.265 123.928 382.52 123.822 382.707 123.635C382.895 123.447 383 123.193 383 122.928C383 122.663 382.895 122.408 382.707 122.221C382.52 122.033 382.265 121.928 382 121.928H1C0.734772 121.928 0.480438 122.033 0.292908 122.221C0.105377 122.408 0 122.663 0 122.928C0 123.193 0.105377 123.447 0.292908 123.635C0.480438 123.822 0.734772 123.928 1 123.928Z" fill="#CCCCCC"/>
<path d="M140.133 1.64288C148.196 15.1125 154.653 29.4854 159.37 44.4661C164.097 59.4415 167.075 74.9165 168.243 90.5804C168.89 99.3489 168.96 108.151 168.455 116.928C168.372 118.36 170.593 118.355 170.675 116.928C171.57 101.102 170.615 85.2255 167.829 69.6222C165.046 54.0207 160.474 38.7944 154.202 24.2468C150.681 16.0757 146.622 8.14896 142.05 0.519211C141.896 0.274997 141.654 0.100192 141.374 0.0317348C141.094 -0.036722 140.799 0.00652412 140.55 0.152281C140.302 0.298037 140.119 0.534972 140.041 0.813063C139.964 1.09115 139.996 1.38868 140.133 1.64288Z" fill="white"/>
<path d="M248.963 14.5767C237.48 40.1015 229.399 66.9946 224.923 94.5804C223.667 102.329 222.694 110.115 222.005 117.94C221.88 119.358 224.116 119.349 224.24 117.94C226.674 90.4158 232.687 63.3173 242.13 37.3154C244.783 30.0048 247.704 22.7973 250.893 15.6928C251.471 14.4035 249.546 13.2771 248.963 14.5767Z" fill="white"/>
</svg>
