<svg width="273" height="142" viewBox="0 0 273 142" fill="none" xmlns="http://www.w3.org/2000/svg">
<g clip-path="url(#clip0_758_2310)">
<rect y="74.3291" width="263.11" height="70.1506" rx="12" transform="rotate(-16.4096 0 74.3291)" fill="white"/>
<g clip-path="url(#clip1_758_2310)">
<path d="M58.6033 91.8753L59.0863 93.4496C60.2165 97.1405 60.1233 101.098 58.8206 104.731C57.5179 108.365 55.0756 111.48 51.8578 113.612C48.64 115.744 44.8192 116.779 40.9653 116.563C37.1113 116.346 33.4307 114.889 30.4723 112.41C27.5139 109.93 25.4362 106.561 24.5492 102.804C23.6622 99.0471 24.0134 95.1043 25.5503 91.5634C27.0872 88.0225 29.7275 85.0733 33.0775 83.1556C36.4275 81.2379 40.3077 80.4545 44.1393 80.9222" stroke="#00D69A" stroke-width="3" stroke-linecap="round" stroke-linejoin="round"/>
<path d="M54.8857 79.7596L43.0288 102.14L36.3198 98.5816" stroke="#00D69A" stroke-width="3" stroke-linecap="round" stroke-linejoin="round"/>
</g>
<path d="M78.221 94.0685L76.3343 94.6309L76.8609 83.8494L79.0431 83.199L85.3915 91.9312L83.5048 92.4936L78.5866 85.5139L78.5103 85.5366L78.221 94.0685ZM77.1425 90.2242L82.2881 88.6904L82.7113 90.1102L77.5658 91.644L77.1425 90.2242ZM89.6125 90.8286C88.8819 91.0464 88.2068 91.073 87.5871 90.9084C86.9706 90.7428 86.4367 90.4195 85.9855 89.9384C85.5365 89.4532 85.2017 88.8405 84.9811 88.1004C84.7595 87.3572 84.707 86.6587 84.8234 86.0049C84.9388 85.348 85.2096 84.783 85.6359 84.3101C86.0643 83.8331 86.6359 83.4881 87.3506 83.2751C87.9445 83.098 88.5029 83.0509 89.0256 83.1337C89.5505 83.2124 90.0088 83.4096 90.4003 83.7252C90.7908 84.0377 91.0838 84.4518 91.279 84.9677L89.6305 85.4591C89.4587 85.1264 89.2124 84.88 88.8914 84.7197C88.5726 84.5553 88.2052 84.5352 87.7891 84.6592C87.4365 84.7643 87.1552 84.9519 86.9452 85.222C86.7343 85.4889 86.6067 85.8209 86.5625 86.218C86.5215 86.6141 86.5744 87.0583 86.7211 87.5506C86.8698 88.0493 87.0706 88.4563 87.3237 88.7717C87.5759 89.0839 87.8626 89.2976 88.184 89.4128C88.5076 89.5238 88.8489 89.5258 89.2078 89.4189C89.4619 89.3431 89.6748 89.2278 89.8465 89.0728C90.0205 88.9138 90.1483 88.7218 90.2299 88.4968C90.3116 88.2719 90.3386 88.0201 90.3108 87.7413L91.9593 87.2499C92.0723 87.7799 92.0567 88.2844 91.9123 88.7632C91.7671 89.2388 91.5009 89.657 91.1139 90.0179C90.726 90.3757 90.2255 90.6459 89.6125 90.8286ZM97.3559 88.5205C96.6253 88.7383 95.9502 88.7648 95.3305 88.6003C94.714 88.4347 94.1801 88.1114 93.7289 87.6303C93.2799 87.145 92.9451 86.5324 92.7245 85.7923C92.5029 85.0491 92.4504 84.3505 92.5668 83.6968C92.6822 83.0398 92.953 82.4749 93.3793 82.002C93.8077 81.525 94.3793 81.18 95.094 80.9669C95.6879 80.7899 96.2463 80.7428 96.769 80.8256C97.2939 80.9043 97.7522 81.1015 98.1437 81.4171C98.5342 81.7295 98.8272 82.1437 99.0224 82.6596L97.3739 83.151C97.2021 82.8183 96.9558 82.5718 96.6348 82.4116C96.316 82.2472 95.9486 82.227 95.5325 82.3511C95.1799 82.4562 94.8986 82.6438 94.6886 82.9139C94.4777 83.1808 94.3501 83.5128 94.3059 83.9099C94.2649 84.306 94.3178 84.7502 94.4645 85.2425C94.6132 85.7412 94.814 86.1482 95.0671 86.4636C95.3193 86.7758 95.606 86.9895 95.9274 87.1046C96.251 87.2157 96.5923 87.2177 96.9512 87.1107C97.2053 87.035 97.4182 86.9196 97.5899 86.7647C97.7639 86.6057 97.8917 86.4137 97.9733 86.1887C98.055 85.9638 98.082 85.7119 98.0542 85.4331L99.7027 84.9418C99.8157 85.4718 99.8001 85.9762 99.6557 86.455C99.5105 86.9306 99.2443 87.3489 98.8573 87.7098C98.4694 88.0675 97.9689 88.3378 97.3559 88.5205ZM105.611 82.5528L104.348 78.3124L106.072 77.7983L108.254 85.1165L106.581 85.615L106.194 84.3143L106.117 84.337C106.074 84.796 105.903 85.212 105.602 85.5852C105.305 85.9573 104.882 86.2253 104.332 86.3891C103.853 86.5321 103.397 86.5521 102.965 86.4491C102.535 86.342 102.156 86.1143 101.828 85.7661C101.498 85.4147 101.246 84.9468 101.072 84.3624L99.6831 79.7028L101.408 79.1887L102.717 83.5815C102.855 84.0452 103.092 84.3758 103.428 84.5732C103.763 84.7706 104.138 84.8078 104.551 84.6847C104.805 84.609 105.032 84.4737 105.234 84.2788C105.435 84.0839 105.575 83.8415 105.655 83.5514C105.737 83.2573 105.722 82.9244 105.611 82.5528ZM110.027 84.5879L107.846 77.2697L109.518 76.7712L109.882 77.9909L109.958 77.9682C109.965 77.506 110.097 77.1122 110.353 76.787C110.611 76.4576 110.95 76.2304 111.369 76.1054C111.464 76.077 111.572 76.0501 111.692 76.0246C111.815 75.9949 111.918 75.9762 112.002 75.9684L112.475 77.555C112.395 77.5514 112.272 77.5637 112.108 77.592C111.945 77.6161 111.791 77.65 111.645 77.6935C111.331 77.7873 111.068 77.9398 110.858 78.1512C110.65 78.3584 110.51 78.6025 110.438 78.8833C110.366 79.1641 110.377 79.4602 110.469 79.7715L111.752 84.0738L110.027 84.5879ZM117.366 82.5613C116.902 82.6995 116.46 82.7414 116.039 82.687C115.62 82.6285 115.254 82.4679 114.94 82.2051C114.63 81.9414 114.403 81.5697 114.261 81.0901C114.137 80.6772 114.112 80.313 114.184 79.9975C114.256 79.6821 114.4 79.4041 114.615 79.1635C114.83 78.923 115.091 78.7122 115.396 78.5311C115.704 78.3459 116.031 78.1813 116.375 78.0371C116.791 77.8648 117.126 77.7215 117.383 77.607C117.638 77.4894 117.815 77.3744 117.913 77.2622C118.013 77.1459 118.039 77.0051 117.989 76.84L117.981 76.8114C117.874 76.4525 117.685 76.2063 117.413 76.0728C117.142 75.9393 116.806 75.9322 116.406 76.0515C115.983 76.1774 115.676 76.3694 115.483 76.6274C115.293 76.8846 115.193 77.1514 115.182 77.4279L113.503 77.6792C113.498 77.1966 113.597 76.7625 113.8 76.3769C114.002 75.988 114.292 75.656 114.67 75.3808C115.047 75.1024 115.491 74.887 116.003 74.7345C116.355 74.6295 116.719 74.5661 117.093 74.5446C117.467 74.523 117.826 74.5644 118.172 74.6689C118.517 74.7701 118.825 74.9567 119.097 75.2286C119.371 75.4995 119.581 75.878 119.726 76.364L121.185 81.2618L119.527 81.756L119.228 80.7507L119.171 80.7678C119.126 81.0023 119.036 81.2369 118.898 81.4716C118.763 81.7021 118.568 81.914 118.314 82.1072C118.063 82.2963 117.747 82.4477 117.366 82.5613ZM117.436 81.1604C117.782 81.0572 118.062 80.8995 118.275 80.6872C118.488 80.4717 118.628 80.2292 118.696 79.9598C118.768 79.6895 118.763 79.4193 118.683 79.1493L118.426 78.2869C118.385 78.3475 118.305 78.4162 118.187 78.4932C118.071 78.5692 117.938 78.6451 117.788 78.721C117.637 78.797 117.488 78.8693 117.339 78.9379C117.19 79.0065 117.06 79.0658 116.951 79.1158C116.704 79.2274 116.491 79.3532 116.311 79.4932C116.131 79.6332 116.004 79.7922 115.929 79.9702C115.853 80.1449 115.849 80.3435 115.915 80.5658C116.009 80.8835 116.197 81.0887 116.477 81.1816C116.757 81.2745 117.077 81.2674 117.436 81.1604ZM124.393 72.3374L124.79 73.6715L120.583 74.9255L120.186 73.5914L124.393 72.3374ZM120.702 71.5285L122.426 71.0144L124.474 77.8848C124.543 78.1166 124.631 78.2841 124.738 78.3871C124.847 78.4861 124.967 78.5402 125.098 78.5497C125.229 78.5591 125.366 78.5425 125.508 78.4999C125.616 78.4677 125.713 78.4304 125.797 78.388C125.884 78.3447 125.95 78.3096 125.994 78.2827L126.686 79.5444C126.604 79.6036 126.482 79.6778 126.322 79.7671C126.165 79.8554 125.965 79.9391 125.722 80.0184C125.294 80.1599 124.886 80.2107 124.497 80.171C124.107 80.1281 123.765 79.9845 123.471 79.7401C123.18 79.4949 122.968 79.1431 122.835 78.6847L120.702 71.5285ZM131.22 78.4263C130.487 78.645 129.807 78.6814 129.183 78.5356C128.561 78.3856 128.023 78.0721 127.569 77.5951C127.115 77.1149 126.774 76.4921 126.546 75.7266C126.321 74.9738 126.267 74.2706 126.384 73.6168C126.502 72.9589 126.773 72.394 127.196 71.922C127.618 71.4469 128.179 71.1052 128.877 70.8969C129.328 70.7625 129.776 70.7086 130.22 70.7355C130.666 70.7582 131.088 70.8745 131.486 71.0844C131.887 71.2933 132.246 71.6048 132.563 72.0187C132.879 72.4294 133.133 72.9555 133.324 73.5971L133.482 74.126L127.483 75.914L127.137 74.7515L131.482 73.4563C131.38 73.1269 131.221 72.8544 131.005 72.6388C130.787 72.42 130.531 72.2733 130.236 72.1988C129.943 72.1234 129.632 72.1349 129.302 72.2334C128.949 72.3385 128.665 72.5165 128.449 72.7676C128.233 73.0155 128.091 73.2998 128.024 73.6206C127.959 73.9374 127.974 74.2598 128.068 74.5879L128.371 75.6027C128.498 76.0283 128.685 76.3704 128.931 76.6289C129.177 76.8843 129.463 77.0513 129.791 77.13C130.118 77.2055 130.469 77.1874 130.844 77.0756C131.095 77.0008 131.311 76.8982 131.494 76.7677C131.675 76.6341 131.82 76.4751 131.927 76.2909C132.035 76.1066 132.096 75.8999 132.111 75.6707L133.775 75.3718C133.8 75.8277 133.717 76.2571 133.526 76.6599C133.337 77.0586 133.048 77.4111 132.659 77.7174C132.268 78.0205 131.789 78.2568 131.22 78.4263ZM139.219 75.8865L137.037 68.5683L138.686 68.0769L139.057 69.3205L139.142 69.2949C139.17 68.8302 139.325 68.4278 139.607 68.0876C139.889 67.7443 140.274 67.4997 140.763 67.3539C141.259 67.2062 141.713 67.2024 142.124 67.3425C142.538 67.4785 142.877 67.7321 143.14 68.1034L143.216 68.0807C143.257 67.6258 143.433 67.2204 143.746 66.8644C144.06 66.5044 144.483 66.2453 145.013 66.0872C145.687 65.8864 146.3 65.9355 146.852 66.2342C147.405 66.533 147.803 67.0905 148.046 67.9068L149.51 72.8189L147.781 73.3345L146.396 68.6891C146.261 68.2349 146.041 67.939 145.737 67.8013C145.432 67.6604 145.105 67.6421 144.756 67.7462C144.34 67.8703 144.053 68.0975 143.895 68.428C143.74 68.7544 143.724 69.1241 143.847 69.537L145.208 74.1013L143.516 74.6055L142.11 69.8887C141.998 69.5107 141.793 69.2431 141.498 69.0857C141.205 68.9274 140.876 68.9027 140.511 69.0116C140.263 69.0854 140.056 69.2162 139.891 69.4038C139.724 69.5883 139.615 69.8129 139.562 70.0775C139.509 70.339 139.527 70.6207 139.617 70.9224L140.944 75.3724L139.219 75.8865ZM153.41 71.8174C152.946 71.9556 152.504 71.9975 152.083 71.9431C151.664 71.8846 151.298 71.7239 150.985 71.4612C150.674 71.1974 150.448 70.8258 150.305 70.3462C150.182 69.9332 150.156 69.5691 150.228 69.2536C150.3 68.9382 150.444 68.6602 150.659 68.4196C150.874 68.1791 151.135 67.9682 151.441 67.7872C151.749 67.602 152.075 67.4374 152.419 67.2932C152.835 67.1209 153.171 66.9775 153.427 66.8631C153.682 66.7454 153.859 66.6305 153.957 66.5183C154.057 66.402 154.083 66.2612 154.034 66.0961L154.025 66.0675C153.918 65.7085 153.729 65.4623 153.457 65.3288C153.186 65.1953 152.85 65.1882 152.45 65.3075C152.027 65.4335 151.72 65.6255 151.527 65.8835C151.337 66.1407 151.237 66.4075 151.226 66.684L149.547 66.9353C149.542 66.4527 149.641 66.0186 149.844 65.6329C150.046 65.2441 150.336 64.9121 150.714 64.6369C151.091 64.3585 151.535 64.1431 152.047 63.9906C152.399 63.8855 152.763 63.8222 153.137 63.8006C153.511 63.7791 153.871 63.8205 154.216 63.9249C154.561 64.0262 154.869 64.2128 155.141 64.4847C155.415 64.7556 155.625 65.1341 155.77 65.6201L157.23 70.5179L155.572 71.0121L155.272 70.0068L155.215 70.0239C155.171 70.2584 155.08 70.493 154.942 70.7277C154.807 70.9582 154.612 71.1701 154.359 71.3633C154.107 71.5524 153.791 71.7037 153.41 71.8174ZM153.48 70.4165C153.826 70.3133 154.106 70.1556 154.319 69.9432C154.532 69.7277 154.672 69.4853 154.74 69.2159C154.812 68.9455 154.808 68.6754 154.727 68.4054L154.47 67.543C154.429 67.6036 154.35 67.6723 154.231 67.7493C154.115 67.8253 153.982 67.9012 153.832 67.9771C153.681 68.0531 153.532 68.1253 153.383 68.194C153.234 68.2626 153.104 68.3219 152.995 68.3718C152.748 68.4835 152.535 68.6093 152.355 68.7493C152.175 68.8893 152.048 69.0483 151.973 69.2262C151.897 69.401 151.893 69.5996 151.959 69.8219C152.054 70.1396 152.241 70.3448 152.521 70.4377C152.801 70.5306 153.121 70.5235 153.48 70.4165ZM160.437 61.5935L160.834 62.9276L156.627 64.1816L156.23 62.8475L160.437 61.5935ZM156.746 60.7846L158.471 60.2705L160.518 67.1408C160.588 67.3727 160.676 67.5402 160.782 67.6432C160.891 67.7421 161.011 67.7963 161.142 67.8058C161.273 67.8152 161.41 67.7986 161.553 67.756C161.661 67.7238 161.757 67.6865 161.841 67.6441C161.928 67.6008 161.994 67.5657 162.038 67.5388L162.73 68.8005C162.648 68.8597 162.526 68.9339 162.366 69.0232C162.209 69.1115 162.009 69.1952 161.767 69.2745C161.338 69.416 160.93 69.4668 160.541 69.4271C160.151 69.3842 159.809 69.2406 159.515 68.9962C159.224 68.7509 159.012 68.3991 158.879 67.9408L156.746 60.7846ZM167.217 67.6966C166.486 67.9144 165.811 67.9409 165.191 67.7764C164.575 67.6108 164.041 67.2875 163.59 66.8064C163.141 66.3211 162.806 65.7085 162.585 64.9684C162.364 64.2252 162.311 63.5266 162.428 62.8729C162.543 62.2159 162.814 61.651 163.24 61.1781C163.669 60.7011 164.24 60.3561 164.955 60.143C165.549 59.966 166.107 59.9189 166.63 60.0017C167.155 60.0804 167.613 60.2776 168.005 60.5932C168.395 60.9056 168.688 61.3198 168.883 61.8357L167.235 62.3271C167.063 61.9944 166.817 61.7479 166.496 61.5877C166.177 61.4233 165.809 61.4031 165.393 61.5272C165.041 61.6323 164.76 61.8199 164.55 62.09C164.339 62.3569 164.211 62.6889 164.167 63.086C164.126 63.4821 164.179 63.9263 164.325 64.4186C164.474 64.9173 164.675 65.3243 164.928 65.6397C165.18 65.9519 165.467 66.1656 165.788 66.2807C166.112 66.3918 166.453 66.3938 166.812 66.2868C167.066 66.2111 167.279 66.0957 167.451 65.9408C167.625 65.7818 167.753 65.5898 167.834 65.3648C167.916 65.1399 167.943 64.888 167.915 64.6092L169.564 64.1179C169.677 64.6479 169.661 65.1523 169.517 65.6311C169.371 66.1067 169.105 66.525 168.718 66.8859C168.33 67.2436 167.83 67.5139 167.217 67.6966ZM172.172 61.395L173.45 65.683L171.725 66.1971L168.817 56.4395L170.504 55.9367L171.601 59.6197L171.687 59.5941C171.736 59.1301 171.904 58.7254 172.192 58.3802C172.482 58.0309 172.906 57.7729 173.465 57.6063C173.974 57.4548 174.448 57.4291 174.89 57.5293C175.331 57.6294 175.716 57.8536 176.045 58.2018C176.377 58.549 176.631 59.0181 176.807 59.6088L178.196 64.2685L176.471 64.7826L175.161 60.3898C175.015 59.8974 174.774 59.5526 174.438 59.3551C174.105 59.1536 173.711 59.1205 173.257 59.2559C172.952 59.3468 172.699 59.4949 172.497 59.7003C172.297 59.9015 172.166 60.1464 172.104 60.4348C172.044 60.7223 172.067 61.0424 172.172 61.395ZM184.807 54.3294L185.205 55.6634L180.878 56.9529L180.481 55.6189L184.807 54.3294ZM183.744 62.6147L181.356 54.6057C181.21 54.1133 181.189 53.6733 181.295 53.2856C181.404 52.8969 181.607 52.5699 181.905 52.3047C182.203 52.0395 182.563 51.844 182.986 51.7181C183.284 51.6291 183.557 51.5738 183.803 51.5524C184.049 51.5309 184.233 51.5226 184.356 51.5276L184.41 52.9639C184.331 52.9634 184.232 52.9687 184.114 52.9796C183.995 52.9873 183.868 53.0115 183.731 53.0522C183.41 53.1479 183.206 53.2934 183.119 53.4888C183.035 53.6801 183.035 53.9186 183.12 54.2045L185.473 62.0992L183.744 62.6147ZM191.299 60.5184C190.584 60.7314 189.918 60.7588 189.3 60.6006C188.682 60.4423 188.144 60.1236 187.687 59.6444C187.232 59.1642 186.893 58.5461 186.667 57.7902C186.442 57.0342 186.387 56.3294 186.504 55.6756C186.623 55.0209 186.898 54.4582 187.329 53.9875C187.759 53.5168 188.332 53.175 189.046 52.962C189.761 52.7489 190.427 52.7216 191.045 52.8798C191.663 53.038 192.199 53.3588 192.655 53.8422C193.113 54.3246 193.455 54.9437 193.68 55.6997C193.906 56.4556 193.958 57.1594 193.838 57.8109C193.72 58.4615 193.447 59.0222 193.016 59.4928C192.586 59.9635 192.013 60.3053 191.299 60.5184ZM190.896 59.1338C191.284 59.0183 191.576 58.8154 191.773 58.5249C191.969 58.2313 192.077 57.8845 192.096 57.4845C192.118 57.0836 192.063 56.6608 191.931 56.2161C191.797 55.7683 191.611 55.3827 191.373 55.0594C191.137 54.732 190.857 54.4991 190.532 54.3608C190.207 54.2224 189.851 54.211 189.463 54.3265C189.066 54.4449 188.768 54.6513 188.569 54.9459C188.373 55.2395 188.264 55.5884 188.243 55.9925C188.224 56.3924 188.281 56.8164 188.414 57.2642C188.547 57.7089 188.731 58.0933 188.966 58.4176C189.204 58.7409 189.485 58.9717 189.81 59.11C190.137 59.2442 190.499 59.2522 190.896 59.1338ZM196.227 58.8938L194.045 51.5757L195.717 51.0772L196.081 52.2969L196.157 52.2742C196.165 51.812 196.296 51.4182 196.552 51.093C196.81 50.7636 197.149 50.5364 197.568 50.4114C197.663 50.383 197.771 50.3561 197.892 50.3306C198.014 50.3009 198.118 50.2822 198.202 50.2744L198.675 51.861C198.594 51.8574 198.471 51.8697 198.307 51.898C198.145 51.9221 197.991 51.956 197.844 51.9995C197.53 52.0933 197.268 52.2458 197.057 52.4572C196.849 52.6644 196.709 52.9085 196.638 53.1893C196.566 53.4701 196.576 53.7662 196.669 54.0775L197.951 58.3797L196.227 58.8938ZM206.347 47.9088L206.745 49.2428L202.538 50.4969L202.14 49.1628L206.347 47.9088ZM202.656 47.0999L204.381 46.5858L206.429 53.4561C206.498 53.688 206.586 53.8554 206.692 53.9585C206.801 54.0574 206.921 54.1116 207.052 54.121C207.183 54.1305 207.32 54.1139 207.463 54.0713C207.571 54.0391 207.667 54.0018 207.751 53.9594C207.838 53.9161 207.904 53.8809 207.948 53.854L208.64 55.1157C208.558 55.175 208.436 55.2492 208.276 55.3384C208.119 55.4267 207.919 55.5105 207.677 55.5898C207.249 55.7312 206.84 55.7821 206.451 55.7424C206.061 55.6994 205.719 55.5558 205.425 55.3115C205.134 55.0662 204.922 54.7144 204.789 54.2561L202.656 47.0999ZM210.575 49.9481L211.853 54.2361L210.128 54.7502L207.219 44.9926L208.906 44.4899L210.004 48.1728L210.09 48.1472C210.138 47.6832 210.306 47.2785 210.594 46.9333C210.884 46.584 211.309 46.326 211.868 46.1594C212.376 46.0079 212.851 45.9822 213.292 46.0824C213.734 46.1825 214.119 46.4067 214.447 46.7549C214.779 47.1021 215.033 47.5712 215.209 48.162L216.598 52.8216L214.873 53.3357L213.564 48.9429C213.417 48.4505 213.176 48.1057 212.841 47.9082C212.507 47.7067 212.113 47.6736 211.659 47.809C211.354 47.8999 211.101 48.048 210.899 48.2534C210.7 48.4546 210.569 48.6995 210.506 48.9879C210.447 49.2755 210.469 49.5955 210.575 49.9481ZM221.639 51.4747C220.905 51.6935 220.226 51.7299 219.601 51.584C218.979 51.434 218.441 51.1205 217.988 50.6435C217.533 50.1634 217.192 49.5405 216.964 48.7751C216.739 48.0223 216.685 47.319 216.802 46.6652C216.92 46.0073 217.191 45.4424 217.614 44.9705C218.036 44.4953 218.597 44.1536 219.296 43.9453C219.747 43.8109 220.194 43.7571 220.638 43.7839C221.084 43.8066 221.506 43.9229 221.904 44.1328C222.305 44.3418 222.664 44.6532 222.981 45.0671C223.297 45.4778 223.551 46.004 223.742 46.6456L223.9 47.1744L217.902 48.9624L217.555 47.7999L221.9 46.5047C221.799 46.1753 221.64 45.9028 221.423 45.6872C221.206 45.4684 220.949 45.3218 220.654 45.2473C220.362 45.1718 220.05 45.1833 219.72 45.2818C219.367 45.3869 219.083 45.565 218.868 45.816C218.651 46.0639 218.509 46.3482 218.442 46.6691C218.378 46.9858 218.392 47.3082 218.487 47.6363L218.789 48.6511C218.916 49.0768 219.103 49.4188 219.349 49.6774C219.595 49.9327 219.882 50.0997 220.209 50.1784C220.536 50.2539 220.887 50.2358 221.262 50.1241C221.513 50.0493 221.73 49.9466 221.912 49.8162C222.093 49.6825 222.238 49.5236 222.346 49.3393C222.453 49.1551 222.514 48.9483 222.529 48.7192L224.193 48.4202C224.219 48.8761 224.136 49.3055 223.945 49.7083C223.756 50.1071 223.466 50.4596 223.077 50.7659C222.687 51.069 222.207 51.3053 221.639 51.4747ZM227.456 41.6168L229.18 41.1027L231.487 48.8401C231.644 49.3674 231.674 49.8323 231.576 50.235C231.478 50.6377 231.265 50.9796 230.937 51.2606C230.61 51.5416 230.176 51.7626 229.636 51.9235C229.572 51.9424 229.513 51.9584 229.458 51.9713C229.404 51.9874 229.345 52.0033 229.28 52.0191L228.861 50.6136C228.91 50.6025 228.953 50.5913 228.991 50.58C229.03 50.5718 229.071 50.5616 229.112 50.5492C229.442 50.4508 229.655 50.2993 229.749 50.0947C229.845 49.8932 229.847 49.6385 229.755 49.3304L227.456 41.6168ZM228.004 40.3225C227.727 40.4048 227.464 40.3849 227.213 40.2625C226.964 40.136 226.802 39.9442 226.725 39.6869C226.647 39.4264 226.678 39.1768 226.818 38.938C226.96 38.6951 227.169 38.5324 227.446 38.4501C227.719 38.3686 227.98 38.3912 228.228 38.5176C228.479 38.64 228.644 38.8314 228.721 39.0918C228.798 39.3491 228.765 39.5992 228.623 39.8421C228.483 40.0809 228.277 40.2411 228.004 40.3225ZM236.37 47.0836C235.656 47.2966 234.989 47.324 234.371 47.1658C233.754 47.0075 233.216 46.6888 232.758 46.2096C232.304 45.7294 231.964 45.1114 231.739 44.3554C231.513 43.5994 231.459 42.8946 231.575 42.2408C231.695 41.5861 231.97 41.0234 232.4 40.5527C232.831 40.0821 233.403 39.7402 234.118 39.5272C234.832 39.3142 235.499 39.2868 236.117 39.445C236.734 39.6032 237.271 39.924 237.726 40.4074C238.185 40.8898 238.527 41.509 238.752 42.2649C238.977 43.0209 239.03 43.7246 238.909 44.3762C238.792 45.0267 238.518 45.5874 238.088 46.058C237.657 46.5287 237.085 46.8706 236.37 47.0836ZM235.968 45.6991C236.355 45.5836 236.648 45.3806 236.845 45.0901C237.041 44.7965 237.148 44.4497 237.167 44.0497C237.19 43.6488 237.135 43.226 237.002 42.7814C236.869 42.3335 236.683 41.9479 236.445 41.6247C236.209 41.2972 235.928 41.0644 235.603 40.926C235.279 40.7877 234.922 40.7762 234.535 40.8918C234.138 41.0101 233.84 41.2166 233.64 41.5111C233.444 41.8048 233.336 42.1536 233.314 42.5577C233.295 42.9577 233.352 43.3816 233.486 43.8294C233.618 44.2741 233.802 44.6586 234.037 44.9828C234.275 45.3061 234.557 45.5369 234.882 45.6752C235.209 45.8095 235.571 45.8174 235.968 45.6991ZM241.374 45.4363L238.466 35.6788L240.191 35.1647L241.278 38.8142L241.35 38.7929C241.386 38.5886 241.455 38.3622 241.557 38.1138C241.659 37.8622 241.826 37.6238 242.06 37.3985C242.293 37.17 242.624 36.9918 243.052 36.864C243.618 36.6955 244.171 36.6881 244.711 36.8417C245.254 36.9913 245.742 37.3074 246.176 37.79C246.613 38.2686 246.953 38.9144 247.195 39.7275C247.434 40.5312 247.506 41.2533 247.41 41.8941C247.314 42.5349 247.083 43.0707 246.717 43.5015C246.351 43.9323 245.88 44.2333 245.305 44.4047C244.886 44.5297 244.517 44.5635 244.199 44.5061C243.881 44.4487 243.609 44.3466 243.382 44.1999C243.157 44.049 242.972 43.8984 242.827 43.748L242.727 43.7778L243.07 44.9308L241.374 45.4363ZM241.975 41.2731C242.116 41.7464 242.306 42.141 242.546 42.457C242.788 42.772 243.067 42.9917 243.38 43.1161C243.696 43.2363 244.037 43.242 244.402 43.1331C244.783 43.0195 245.072 42.8227 245.269 42.5427C245.465 42.2596 245.575 41.9207 245.599 41.5262C245.625 41.1275 245.57 40.6994 245.434 40.2421C245.299 39.7879 245.113 39.4039 244.878 39.0901C244.643 38.7764 244.366 38.5578 244.05 38.4344C243.733 38.311 243.382 38.3065 242.998 38.4211C242.629 38.5309 242.345 38.721 242.146 38.9915C241.946 39.2619 241.832 39.5917 241.803 39.9809C241.776 40.3691 241.834 40.7998 241.975 41.2731ZM248.951 32.5534L250.847 39.4896L249.313 39.9469L247.107 33.103L248.951 32.5534ZM250.967 42.6912C250.678 42.7774 250.4 42.7496 250.132 42.6079C249.869 42.4652 249.693 42.2477 249.606 41.9555C249.521 41.6696 249.55 41.3948 249.692 41.1309C249.838 40.8661 250.056 40.6906 250.345 40.6044C250.627 40.5202 250.902 40.5489 251.169 40.6906C251.439 40.8314 251.617 41.0448 251.702 41.3306C251.76 41.5244 251.763 41.7153 251.712 41.9035C251.664 42.0907 251.575 42.2557 251.445 42.3983C251.317 42.5368 251.157 42.6344 250.967 42.6912Z" fill="#2B3340"/>
</g>
<path d="M259.812 73.4273L30.9149 139.647C27.3842 140.665 23.5943 140.24 20.3766 138.466C17.1589 136.692 14.7761 133.715 13.751 130.186L0.888657 85.7263C-0.128459 82.1957 0.296443 78.4058 2.07015 75.188C3.84385 71.9703 6.82151 69.5875 10.3498 68.5625L239.247 2.34227C242.777 1.32515 246.567 1.75006 249.785 3.52376C253.003 5.29746 255.385 8.27511 256.41 11.8034L269.273 56.2634C270.29 59.7941 269.865 63.584 268.091 66.8017C266.318 70.0194 263.34 72.4022 259.812 73.4273ZM10.9057 70.4837C7.88659 71.3608 5.33872 73.3997 3.821 76.1531C2.30328 78.9064 1.93966 82.1494 2.80992 85.1705L15.6723 129.63C16.5495 132.65 18.5883 135.197 21.3417 136.715C24.095 138.233 27.338 138.596 30.3591 137.726L259.256 71.506C262.275 70.6288 264.823 68.5899 266.341 65.8366C267.858 63.0833 268.222 59.8403 267.352 56.8192L254.489 12.3592C253.612 9.34014 251.573 6.79227 248.82 5.27455C246.067 3.75684 242.824 3.39321 239.803 4.26346L10.9057 70.4837Z" fill="#F4EBFF"/>
<defs>
<clipPath id="clip0_758_2310">
<rect y="74.3291" width="263.11" height="70.1506" rx="12" transform="rotate(-16.4096 0 74.3291)" fill="white"/>
</clipPath>
<clipPath id="clip1_758_2310">
<rect width="42.9606" height="42.9606" fill="white" transform="translate(15.1372 84.4658) rotate(-17.0574)"/>
</clipPath>
</defs>
</svg>
