<svg width="277" height="255" viewBox="0 0 277 255" fill="none" xmlns="http://www.w3.org/2000/svg">
<path d="M146.85 172.935C115.548 179.009 85.2011 180.062 61.3994 175.901C37.2804 171.685 22.679 162.567 20.2848 150.228C17.8905 137.888 28.0225 123.972 48.8141 111.041C69.3324 98.2803 97.8712 87.9075 129.173 81.8337C160.476 75.76 190.822 74.7069 214.624 78.8679C238.743 83.0846 253.344 92.2023 255.739 104.541C258.133 116.88 248.001 130.797 227.21 143.728C206.691 156.489 178.153 166.862 146.85 172.935ZM129.55 83.777C98.4793 89.8059 70.1779 100.085 49.8595 112.722C29.8142 125.189 20.0013 138.375 22.228 149.851C24.4547 161.326 38.487 169.886 61.7402 173.951C85.3101 178.072 115.402 177.021 146.473 170.992C177.544 164.963 205.846 154.684 226.164 142.047C246.209 129.58 256.022 116.395 253.795 104.918C251.569 93.4418 237.536 84.8833 214.283 80.8178C190.713 76.6972 160.621 77.7481 129.55 83.777Z" fill="#F4EBFF"/>
<path d="M206.937 222.488C197.209 224.376 183.992 221.106 168.457 212.804C147.146 201.415 123.894 181.886 102.983 157.815C82.0718 133.743 65.9861 107.988 57.689 85.2948C49.2812 62.2987 49.8767 45.0948 59.3656 36.8519C68.8545 28.6092 85.973 30.4252 107.567 41.9655C128.877 53.3546 152.13 72.8834 173.041 96.9549C193.952 121.026 210.038 146.781 218.335 169.475C226.742 192.471 226.147 209.675 216.658 217.918C213.996 220.231 210.731 221.752 206.937 222.488ZM69.5124 34.1995C66.0441 34.8725 63.074 36.2522 60.6637 38.3462C51.8384 46.0128 51.4421 62.4445 59.5481 84.615C67.7644 107.088 83.7206 132.622 104.477 156.517C125.234 180.41 148.287 199.78 169.39 211.058C190.209 222.185 206.535 224.091 215.36 216.423C224.185 208.757 224.582 192.325 216.476 170.155C208.259 147.682 192.303 122.147 171.546 98.253C150.79 74.3594 127.737 54.9895 106.634 43.7116C91.5012 35.624 78.7424 32.4086 69.5124 34.1995Z" fill="#F4EBFF"/>
<path d="M109.655 241.364C105.861 242.101 102.266 241.911 98.9311 240.761C87.048 236.665 80.0616 220.932 79.259 196.461C78.4667 172.311 83.753 142.409 94.1441 112.263C104.535 82.1184 118.796 55.3105 134.301 36.7779C150.012 17.9988 165.21 9.91199 177.092 14.0085C188.975 18.1045 195.962 33.8372 196.764 58.309C197.557 82.4588 192.27 112.361 181.879 142.506C171.488 172.651 157.227 199.459 141.722 217.991C130.42 231.501 119.383 239.477 109.655 241.364ZM166.69 15.3434C157.46 17.1344 146.83 24.8872 135.819 38.0483C120.466 56.4002 106.33 82.9861 96.0155 112.909C85.7013 142.832 80.453 172.481 81.2374 196.396C82.0112 219.989 88.524 235.08 99.5762 238.889C102.594 239.93 105.866 240.098 109.334 239.426C118.564 237.636 129.193 229.882 140.204 216.721C155.557 198.369 169.693 171.783 180.008 141.861C190.322 111.938 195.57 82.2884 194.786 58.3739C194.012 34.7807 187.499 19.6896 176.447 15.8799C173.429 14.8397 170.157 14.6707 166.69 15.3434Z" fill="#F4EBFF"/>
<path d="M142.234 149.144C154.251 146.812 162.102 135.18 159.771 123.163C157.439 111.146 145.807 103.294 133.79 105.626C121.773 107.958 113.921 119.59 116.253 131.607C118.585 143.624 130.217 151.476 142.234 149.144Z" fill="#F4EBFF"/>
</svg>
