<svg width="22" height="22" viewBox="0 0 22 22" fill="none" xmlns="http://www.w3.org/2000/svg">
<path fill-rule="evenodd" clip-rule="evenodd" d="M0.400024 11.4497V21.8696H5.36005V10.5996V7.66992H0.400024V11.4497ZM21.57 12.0298C21.24 9.33978 20.02 7.66992 16.38 7.66992C14.25 7.66992 12.81 8.44984 12.21 9.58984H12.14V7.66992H8.18002V10.3999V21.8696H12.32V14.8296C12.32 12.9796 12.69 11.1899 14.96 11.1899C17.25 11.1899 17.41 13.31 17.41 14.96V21.8696H21.67V14.0698C21.69 13.3398 21.65 12.6598 21.57 12.0298ZM2.88004 0.57959C1.51004 0.57959 0.400024 1.69006 0.400024 3.06006C0.400024 4.43006 1.51004 5.54004 2.88004 5.54004C4.25004 5.54004 5.36005 4.43006 5.36005 3.06006C5.36005 1.69006 4.25004 0.57959 2.88004 0.57959Z" fill="#392D69"/>
</svg>
