<svg width="144" height="32" viewBox="0 0 144 32" fill="none" xmlns="http://www.w3.org/2000/svg">
<path d="M45.1862 13.2923V22.4396C45.1862 23.1952 45.335 23.728 45.634 24.0397C45.9323 24.3513 46.4511 24.5068 47.1888 24.5068H48.9543V26.6875H46.7939C45.4588 26.6875 44.4575 26.3571 43.7899 25.6965C43.1224 25.0359 42.7886 23.9507 42.7886 22.4396V13.2923H40.9181V11.1676H42.7886V7.25986H45.1862V11.1676H48.9543V13.2916H45.1862V13.2923Z" fill="#10002B"/>
<path d="M64.95 19.8948H53.4084C53.4961 21.4239 53.9835 22.6181 54.8708 23.4775C55.7574 24.337 56.8338 24.7659 58.0986 24.7659C59.1347 24.7659 59.9998 24.5066 60.6944 23.9872C61.3884 23.4678 61.8758 22.7743 62.1568 21.9059H64.7393C64.3527 23.3976 63.5802 24.6105 62.4203 25.5454C61.2611 26.4803 59.8203 26.9474 58.0986 26.9474C56.7281 26.9474 55.5029 26.6171 54.423 25.9564C53.3424 25.2958 52.4948 24.3564 51.8801 23.139C51.2647 21.9216 50.958 20.5099 50.958 18.9054C50.958 17.3009 51.2563 15.8944 51.8536 14.6859C52.4509 13.4775 53.2895 12.5478 54.3701 11.8962C55.4507 11.2452 56.6933 10.9194 58.0986 10.9194C59.4692 10.9194 60.6812 11.2408 61.7347 11.882C62.7888 12.5239 63.601 13.4065 64.1719 14.5298C64.7428 15.653 65.0286 16.9227 65.0286 18.3389C65.0293 18.8284 65.0029 19.3478 64.95 19.8948ZM61.9461 15.2644C61.5414 14.5567 60.9927 14.0186 60.2995 13.6501C59.6055 13.2817 58.8371 13.0979 57.9936 13.0979C56.7816 13.0979 55.749 13.5134 54.8972 14.3437C54.0447 15.1747 53.5573 16.3263 53.4349 17.7986H62.5524C62.5517 16.8181 62.3501 15.9729 61.9461 15.2644Z" fill="#10002B"/>
<path d="M70.3254 26.3347C69.4472 25.9289 68.7532 25.3625 68.2435 24.6353C67.7338 23.9089 67.4529 23.0734 67.4 22.1288H69.8769C69.9471 22.903 70.2851 23.5352 70.8914 24.0262C71.4971 24.5172 72.2919 24.7624 73.2758 24.7624C74.1888 24.7624 74.9099 24.5456 75.4363 24.1107C75.9634 23.6765 76.2269 23.1294 76.2269 22.4681C76.2269 21.788 75.946 21.2835 75.3834 20.9532C74.8209 20.6229 73.9517 20.2971 72.7744 19.9757C71.7029 19.6738 70.8288 19.3666 70.1522 19.055C69.4757 18.7434 68.8957 18.2808 68.4132 17.6672C67.9299 17.0536 67.6886 16.2465 67.6886 15.2458C67.6886 14.4529 67.9083 13.7265 68.3471 13.0651C68.7859 12.4045 69.4096 11.8806 70.2183 11.4935C71.0263 11.1064 71.9484 10.9128 72.9851 10.9128C74.5838 10.9128 75.8744 11.347 76.859 12.2154C77.8429 13.0838 78.37 14.2736 78.4402 15.7839H76.044C75.9912 14.9723 75.688 14.3214 75.1352 13.8297C74.5817 13.3387 73.8397 13.0935 72.9086 13.0935C72.0478 13.0935 71.3629 13.2916 70.8532 13.6884C70.3435 14.0852 70.089 14.6046 70.089 15.2458C70.089 15.7555 70.2426 16.1763 70.55 16.5058C70.8573 16.8362 71.244 17.1007 71.7092 17.2988C72.1744 17.4968 72.8203 17.7195 73.6457 17.9646C74.6818 18.2666 75.5253 18.564 76.1754 18.857C76.8249 19.1499 77.3833 19.5886 77.8485 20.1737C78.3137 20.7589 78.5557 21.5242 78.573 22.4681C78.573 23.3178 78.3533 24.0823 77.9145 24.7616C77.4751 25.4409 76.8562 25.9753 76.0565 26.3616C75.2569 26.7488 74.339 26.9423 73.3029 26.9423C72.1966 26.9438 71.2036 26.7405 70.3254 26.3347Z" fill="#10002B"/>
<path d="M84.8708 13.2923V22.4396C84.8708 23.1952 85.0196 23.728 85.3186 24.0397C85.6169 24.3513 86.1356 24.5068 86.8734 24.5068H88.6389V26.6875H86.4784C85.1434 26.6875 84.142 26.3571 83.4745 25.6965C82.807 25.0359 82.4732 23.9507 82.4732 22.4396V13.2923H80.6027V11.1676H82.4732V7.25986H84.8708V11.1676H88.6389V13.2916H84.8708V13.2923Z" fill="#10002B"/>
<path d="M97.4131 13.2949H94.3827V26.6901H91.9851V13.2949H90.1139V11.1703H91.9851V10.0657C91.9851 8.32892 92.4023 7.05921 93.2367 6.25658C94.0712 5.45394 95.4104 5.05263 97.2552 5.05263V7.20494C96.2011 7.20494 95.4591 7.4269 95.0287 7.87081C94.5983 8.31473 94.3834 9.04636 94.3834 10.0657V11.1703H97.4138V13.2949H97.4131Z" fill="#10002B"/>
<path d="M113.013 11.1727V26.6925H110.615V24.3989C110.158 25.1919 109.521 25.8106 108.705 26.2538C107.888 26.697 106.987 26.9197 106.004 26.9197C104.88 26.9197 103.87 26.6701 102.974 26.1694C102.078 25.6694 101.37 24.9191 100.852 23.9177C100.333 22.917 100.075 21.6996 100.075 20.2647V11.1727H102.447V19.9239C102.447 21.453 102.807 22.6285 103.527 23.4498C104.248 24.2711 105.231 24.6814 106.478 24.6814C107.76 24.6814 108.771 24.2569 109.509 23.4072C110.246 22.5575 110.615 21.3214 110.615 19.6975V11.1727H113.013Z" fill="#10002B"/>
<path d="M119.205 26.3347C118.327 25.9289 117.633 25.3625 117.123 24.6353C116.613 23.9089 116.332 23.0734 116.28 22.1288H118.756C118.827 22.903 119.165 23.5352 119.771 24.0262C120.377 24.5172 121.171 24.7624 122.155 24.7624C123.068 24.7624 123.789 24.5456 124.316 24.1107C124.843 23.6765 125.106 23.1294 125.106 22.4681C125.106 21.788 124.825 21.2835 124.263 20.9532C123.7 20.6229 122.831 20.2971 121.654 19.9757C120.582 19.6738 119.708 19.3666 119.032 19.055C118.355 18.7434 117.775 18.2808 117.293 17.6672C116.809 17.0536 116.568 16.2465 116.568 15.2458C116.568 14.4529 116.788 13.7265 117.227 13.0651C117.665 12.4045 118.289 11.8806 119.098 11.4935C119.906 11.1064 120.828 10.9128 121.865 10.9128C123.463 10.9128 124.754 11.347 125.738 12.2154C126.722 13.0838 127.249 14.2736 127.32 15.7839H124.922C124.869 14.9723 124.566 14.3214 124.013 13.8297C123.46 13.3387 122.718 13.0935 121.787 13.0935C120.926 13.0935 120.241 13.2916 119.731 13.6884C119.222 14.0852 118.967 14.6046 118.967 15.2458C118.967 15.7555 119.121 16.1763 119.428 16.5058C119.735 16.8362 120.122 17.1007 120.587 17.2988C121.052 17.4968 121.698 17.7195 122.524 17.9646C123.56 18.2666 124.403 18.564 125.054 18.857C125.703 19.1499 126.261 19.5886 126.727 20.1737C127.192 20.7589 127.434 21.5242 127.451 22.4681C127.451 23.3178 127.231 24.0823 126.793 24.7616C126.353 25.4409 125.734 25.9753 124.935 26.3616C124.135 26.7488 123.217 26.9423 122.181 26.9423C121.076 26.9438 120.083 26.7405 119.205 26.3347Z" fill="#10002B"/>
<path d="M143.921 19.8948H132.38C132.468 21.4239 132.955 22.6181 133.842 23.4775C134.729 24.337 135.805 24.7659 137.07 24.7659C138.106 24.7659 138.971 24.5066 139.666 23.9872C140.36 23.4678 140.847 22.7743 141.128 21.9059H143.711C143.324 23.3976 142.552 24.6105 141.392 25.5454C140.233 26.4803 138.792 26.9474 137.07 26.9474C135.7 26.9474 134.474 26.6171 133.394 25.9564C132.314 25.2958 131.466 24.3564 130.851 23.139C130.236 21.9216 129.929 20.5099 129.929 18.9054C129.929 17.3009 130.228 15.8944 130.825 14.6859C131.422 13.4775 132.261 12.5478 133.342 11.8962C134.422 11.2452 135.665 10.9194 137.07 10.9194C138.441 10.9194 139.653 11.2408 140.706 11.882C141.76 12.5239 142.572 13.4065 143.143 14.5298C143.714 15.653 144 16.9227 144 18.3389C144.001 18.8284 143.974 19.3478 143.921 19.8948ZM140.917 15.2644C140.513 14.5567 139.964 14.0186 139.271 13.6501C138.577 13.2817 137.809 13.0979 136.965 13.0979C135.753 13.0979 134.72 13.5134 133.869 14.3437C133.016 15.1747 132.529 16.3263 132.406 17.7986H141.524C141.524 16.8181 141.321 15.9729 140.917 15.2644Z" fill="#10002B"/>
<path d="M19.2025 3.63439V24.2594C19.2025 26.2545 17.6514 27.8722 15.7385 27.8722C13.8256 27.8722 12.2746 26.2545 12.2746 24.2594V13.028C12.2746 11.7602 11.5358 10.6182 10.4069 10.1464C7.56114 8.95331 4.71535 7.76019 1.87145 6.56707C0.740669 6.09139 0 4.95134 0 3.68156V3.6167C0 1.61965 1.55294 0 3.46772 0H15.7159C17.642 0 19.2025 1.62751 19.2025 3.63439Z" fill="#392D69"/>
<path d="M31.4749 6.96022C31.4523 9.06931 29.7354 10.7361 27.7132 10.7361H25.5289C23.893 10.7361 22.5681 12.118 22.5681 13.8241V28.8334C22.5681 30.5828 21.2093 32 19.532 32H18.6764C16.9991 32 15.6403 30.5828 15.6403 28.8334V6.92483C15.6403 4.81181 17.2836 3.09781 19.3096 3.09781H27.8131C28.8251 3.09781 29.741 3.52434 30.4025 4.21624C31.0754 4.91402 31.4862 5.88897 31.4749 6.96022Z" fill="#6F2DBD"/>
<path d="M19.2024 3.63441V24.2595C19.2024 26.2545 17.6513 27.8722 15.7384 27.8722C15.7045 27.8722 15.6725 27.8722 15.6385 27.8703V6.92482C15.6385 4.8629 17.2047 3.18035 19.1647 3.10173C19.1911 3.2747 19.2024 3.45161 19.2024 3.63441Z" fill="#541FA0"/>
</svg>
