<svg width="100" height="96" viewBox="0 0 100 96" fill="none" xmlns="http://www.w3.org/2000/svg">
<g opacity="0.6" clip-path="url(#clip0_758_2775)">
<path d="M54.5 100C45.501 100 36.704 97.3315 29.2216 92.3319C21.7391 87.3323 15.9073 80.2262 12.4635 71.9121C9.01971 63.5981 8.11866 54.4495 9.87429 45.6234C11.6299 36.7973 15.9634 28.69 22.3267 22.3267C28.69 15.9634 36.7973 11.6299 45.6234 9.87429C54.4495 8.11866 63.5981 9.01971 71.9121 12.4635C80.2262 15.9073 87.3323 21.7391 92.3319 29.2216C97.3315 36.704 100 45.501 100 54.5C99.9865 66.5632 95.1885 78.1285 86.6585 86.6585C78.1285 95.1885 66.5632 99.9865 54.5 100ZM54.5 21.523C47.9778 21.523 41.602 23.4571 36.179 27.0806C30.7559 30.7042 26.5292 35.8545 24.0332 41.8803C21.5373 47.906 20.8842 54.5366 22.1567 60.9335C23.4291 67.3304 26.5698 73.2064 31.1818 77.8183C35.7937 82.4302 41.6696 85.571 48.0665 86.8434C54.4634 88.1158 61.094 87.4627 67.1198 84.9668C73.1455 82.4708 78.2958 78.2441 81.9194 72.8211C85.543 67.398 87.477 61.0223 87.477 54.5C87.4672 45.757 83.9897 37.3748 77.8075 31.1926C71.6252 25.0103 63.2431 21.5328 54.5 21.523Z" fill="#392D69"/>
<path d="M45.5 91C36.501 91 27.704 88.3315 20.2216 83.3319C12.7391 78.3323 6.90729 71.2262 3.4635 62.9121C0.0197144 54.5981 -0.881337 45.4495 0.87429 36.6234C2.62992 27.7973 6.96337 19.69 13.3267 13.3267C19.69 6.96337 27.7973 2.62992 36.6234 0.87429C45.4495 -0.881337 54.5981 0.0197144 62.9121 3.4635C71.2262 6.90729 78.3323 12.7391 83.3319 20.2216C88.3315 27.704 91 36.501 91 45.5C90.9865 57.5632 86.1885 69.1285 77.6585 77.6585C69.1285 86.1885 57.5632 90.9865 45.5 91ZM45.5 12.523C38.9778 12.523 32.602 14.4571 27.179 18.0806C21.7559 21.7042 17.5292 26.8545 15.0332 32.8803C12.5373 38.906 11.8842 45.5366 13.1567 51.9335C14.4291 58.3304 17.5698 64.2064 22.1818 68.8183C26.7937 73.4302 32.6696 76.571 39.0665 77.8434C45.4634 79.1158 52.094 78.4627 58.1198 75.9668C64.1455 73.4708 69.2958 69.2441 72.9194 63.8211C76.543 58.398 78.477 52.0223 78.477 45.5C78.4672 36.757 74.9897 28.3748 68.8075 22.1926C62.6252 16.0103 54.2431 12.5328 45.5 12.523Z" fill="#F4EBFF"/>
</g>
<defs>
<clipPath id="clip0_758_2775">
<rect width="100" height="100" fill="white"/>
</clipPath>
</defs>
</svg>
