<svg width="132" height="88" viewBox="0 0 132 88" fill="none" xmlns="http://www.w3.org/2000/svg">
<path d="M2.49348 0.692529C3.87059 0.692529 4.98696 -0.423843 4.98696 -1.80095C4.98696 -3.17806 3.87059 -4.29443 2.49348 -4.29443C1.11637 -4.29443 0 -3.17806 0 -1.80095C0 -0.423843 1.11637 0.692529 2.49348 0.692529Z" fill="#F4EBFF"/>
<path d="M15.1944 0.692529C16.5715 0.692529 17.6879 -0.423843 17.6879 -1.80095C17.6879 -3.17806 16.5715 -4.29443 15.1944 -4.29443C13.8173 -4.29443 12.7009 -3.17806 12.7009 -1.80095C12.7009 -0.423843 13.8173 0.692529 15.1944 0.692529Z" fill="#F4EBFF"/>
<path d="M27.8956 0.692529C29.2727 0.692529 30.3891 -0.423843 30.3891 -1.80095C30.3891 -3.17806 29.2727 -4.29443 27.8956 -4.29443C26.5185 -4.29443 25.4021 -3.17806 25.4021 -1.80095C25.4021 -0.423843 26.5185 0.692529 27.8956 0.692529Z" fill="#F4EBFF"/>
<path d="M40.598 0.692529C41.9751 0.692529 43.0915 -0.423843 43.0915 -1.80095C43.0915 -3.17806 41.9751 -4.29443 40.598 -4.29443C39.2209 -4.29443 38.1045 -3.17806 38.1045 -1.80095C38.1045 -0.423843 39.2209 0.692529 40.598 0.692529Z" fill="#F4EBFF"/>
<path d="M53.2989 0.692529C54.676 0.692529 55.7924 -0.423843 55.7924 -1.80095C55.7924 -3.17806 54.676 -4.29443 53.2989 -4.29443C51.9218 -4.29443 50.8054 -3.17806 50.8054 -1.80095C50.8054 -0.423843 51.9218 0.692529 53.2989 0.692529Z" fill="#F4EBFF"/>
<path d="M66.0001 0.692529C67.3772 0.692529 68.4936 -0.423843 68.4936 -1.80095C68.4936 -3.17806 67.3772 -4.29443 66.0001 -4.29443C64.623 -4.29443 63.5066 -3.17806 63.5066 -1.80095C63.5066 -0.423843 64.623 0.692529 66.0001 0.692529Z" fill="#F4EBFF"/>
<path d="M78.701 0.692529C80.0781 0.692529 81.1945 -0.423843 81.1945 -1.80095C81.1945 -3.17806 80.0781 -4.29443 78.701 -4.29443C77.3239 -4.29443 76.2075 -3.17806 76.2075 -1.80095C76.2075 -0.423843 77.3239 0.692529 78.701 0.692529Z" fill="#F4EBFF"/>
<path d="M91.4022 0.692529C92.7793 0.692529 93.8957 -0.423843 93.8957 -1.80095C93.8957 -3.17806 92.7793 -4.29443 91.4022 -4.29443C90.0251 -4.29443 88.9087 -3.17806 88.9087 -1.80095C88.9087 -0.423843 90.0251 0.692529 91.4022 0.692529Z" fill="#F4EBFF"/>
<path d="M104.104 0.692529C105.481 0.692529 106.598 -0.423843 106.598 -1.80095C106.598 -3.17806 105.481 -4.29443 104.104 -4.29443C102.727 -4.29443 101.611 -3.17806 101.611 -1.80095C101.611 -0.423843 102.727 0.692529 104.104 0.692529Z" fill="#F4EBFF"/>
<path d="M116.805 0.692529C118.183 0.692529 119.299 -0.423843 119.299 -1.80095C119.299 -3.17806 118.183 -4.29443 116.805 -4.29443C115.428 -4.29443 114.312 -3.17806 114.312 -1.80095C114.312 -0.423843 115.428 0.692529 116.805 0.692529Z" fill="#F4EBFF"/>
<path d="M129.506 0.692529C130.884 0.692529 132 -0.423843 132 -1.80095C132 -3.17806 130.884 -4.29443 129.506 -4.29443C128.129 -4.29443 127.013 -3.17806 127.013 -1.80095C127.013 -0.423843 128.129 0.692529 129.506 0.692529Z" fill="#F4EBFF"/>
<path d="M2.49348 12.5936C3.87059 12.5936 4.98696 11.4773 4.98696 10.1002C4.98696 8.72306 3.87059 7.60669 2.49348 7.60669C1.11637 7.60669 0 8.72306 0 10.1002C0 11.4773 1.11637 12.5936 2.49348 12.5936Z" fill="#F4EBFF"/>
<path d="M15.1944 12.5936C16.5715 12.5936 17.6879 11.4773 17.6879 10.1002C17.6879 8.72306 16.5715 7.60669 15.1944 7.60669C13.8173 7.60669 12.7009 8.72306 12.7009 10.1002C12.7009 11.4773 13.8173 12.5936 15.1944 12.5936Z" fill="#F4EBFF"/>
<path d="M27.8956 12.5936C29.2727 12.5936 30.3891 11.4773 30.3891 10.1002C30.3891 8.72306 29.2727 7.60669 27.8956 7.60669C26.5185 7.60669 25.4021 8.72306 25.4021 10.1002C25.4021 11.4773 26.5185 12.5936 27.8956 12.5936Z" fill="#F4EBFF"/>
<path d="M40.598 12.5936C41.9751 12.5936 43.0915 11.4773 43.0915 10.1002C43.0915 8.72306 41.9751 7.60669 40.598 7.60669C39.2209 7.60669 38.1045 8.72306 38.1045 10.1002C38.1045 11.4773 39.2209 12.5936 40.598 12.5936Z" fill="#F4EBFF"/>
<path d="M53.2989 12.5936C54.676 12.5936 55.7924 11.4773 55.7924 10.1002C55.7924 8.72306 54.676 7.60669 53.2989 7.60669C51.9218 7.60669 50.8054 8.72306 50.8054 10.1002C50.8054 11.4773 51.9218 12.5936 53.2989 12.5936Z" fill="#F4EBFF"/>
<path d="M66.0001 12.5936C67.3772 12.5936 68.4936 11.4773 68.4936 10.1002C68.4936 8.72306 67.3772 7.60669 66.0001 7.60669C64.623 7.60669 63.5066 8.72306 63.5066 10.1002C63.5066 11.4773 64.623 12.5936 66.0001 12.5936Z" fill="#F4EBFF"/>
<path d="M78.701 12.5936C80.0781 12.5936 81.1945 11.4773 81.1945 10.1002C81.1945 8.72306 80.0781 7.60669 78.701 7.60669C77.3239 7.60669 76.2075 8.72306 76.2075 10.1002C76.2075 11.4773 77.3239 12.5936 78.701 12.5936Z" fill="#F4EBFF"/>
<path d="M91.4022 12.5936C92.7793 12.5936 93.8957 11.4773 93.8957 10.1002C93.8957 8.72306 92.7793 7.60669 91.4022 7.60669C90.0251 7.60669 88.9087 8.72306 88.9087 10.1002C88.9087 11.4773 90.0251 12.5936 91.4022 12.5936Z" fill="#F4EBFF"/>
<path d="M104.104 12.5936C105.481 12.5936 106.598 11.4773 106.598 10.1002C106.598 8.72306 105.481 7.60669 104.104 7.60669C102.727 7.60669 101.611 8.72306 101.611 10.1002C101.611 11.4773 102.727 12.5936 104.104 12.5936Z" fill="#F4EBFF"/>
<path d="M116.805 12.5936C118.183 12.5936 119.299 11.4773 119.299 10.1002C119.299 8.72306 118.183 7.60669 116.805 7.60669C115.428 7.60669 114.312 8.72306 114.312 10.1002C114.312 11.4773 115.428 12.5936 116.805 12.5936Z" fill="#F4EBFF"/>
<path d="M129.506 12.5936C130.884 12.5936 132 11.4773 132 10.1002C132 8.72306 130.884 7.60669 129.506 7.60669C128.129 7.60669 127.013 8.72306 127.013 10.1002C127.013 11.4773 128.129 12.5936 129.506 12.5936Z" fill="#F4EBFF"/>
<path d="M2.49348 24.4936C3.87059 24.4936 4.98696 23.3772 4.98696 22.0001C4.98696 20.623 3.87059 19.5066 2.49348 19.5066C1.11637 19.5066 0 20.623 0 22.0001C0 23.3772 1.11637 24.4936 2.49348 24.4936Z" fill="#F4EBFF"/>
<path d="M15.1944 24.4936C16.5715 24.4936 17.6879 23.3772 17.6879 22.0001C17.6879 20.623 16.5715 19.5066 15.1944 19.5066C13.8173 19.5066 12.7009 20.623 12.7009 22.0001C12.7009 23.3772 13.8173 24.4936 15.1944 24.4936Z" fill="#F4EBFF"/>
<path d="M27.8956 24.4936C29.2727 24.4936 30.3891 23.3772 30.3891 22.0001C30.3891 20.623 29.2727 19.5066 27.8956 19.5066C26.5185 19.5066 25.4021 20.623 25.4021 22.0001C25.4021 23.3772 26.5185 24.4936 27.8956 24.4936Z" fill="#F4EBFF"/>
<path d="M40.598 24.4936C41.9751 24.4936 43.0915 23.3772 43.0915 22.0001C43.0915 20.623 41.9751 19.5066 40.598 19.5066C39.2209 19.5066 38.1045 20.623 38.1045 22.0001C38.1045 23.3772 39.2209 24.4936 40.598 24.4936Z" fill="#F4EBFF"/>
<path d="M53.2989 24.4936C54.676 24.4936 55.7924 23.3772 55.7924 22.0001C55.7924 20.623 54.676 19.5066 53.2989 19.5066C51.9218 19.5066 50.8054 20.623 50.8054 22.0001C50.8054 23.3772 51.9218 24.4936 53.2989 24.4936Z" fill="#F4EBFF"/>
<path d="M66.0001 24.4936C67.3772 24.4936 68.4936 23.3772 68.4936 22.0001C68.4936 20.623 67.3772 19.5066 66.0001 19.5066C64.623 19.5066 63.5066 20.623 63.5066 22.0001C63.5066 23.3772 64.623 24.4936 66.0001 24.4936Z" fill="#F4EBFF"/>
<path d="M78.701 24.4936C80.0781 24.4936 81.1945 23.3772 81.1945 22.0001C81.1945 20.623 80.0781 19.5066 78.701 19.5066C77.3239 19.5066 76.2075 20.623 76.2075 22.0001C76.2075 23.3772 77.3239 24.4936 78.701 24.4936Z" fill="#F4EBFF"/>
<path d="M91.4022 24.4936C92.7793 24.4936 93.8957 23.3772 93.8957 22.0001C93.8957 20.623 92.7793 19.5066 91.4022 19.5066C90.0251 19.5066 88.9087 20.623 88.9087 22.0001C88.9087 23.3772 90.0251 24.4936 91.4022 24.4936Z" fill="#F4EBFF"/>
<path d="M104.104 24.4936C105.481 24.4936 106.598 23.3772 106.598 22.0001C106.598 20.623 105.481 19.5066 104.104 19.5066C102.727 19.5066 101.611 20.623 101.611 22.0001C101.611 23.3772 102.727 24.4936 104.104 24.4936Z" fill="#F4EBFF"/>
<path d="M116.805 24.4936C118.183 24.4936 119.299 23.3772 119.299 22.0001C119.299 20.623 118.183 19.5066 116.805 19.5066C115.428 19.5066 114.312 20.623 114.312 22.0001C114.312 23.3772 115.428 24.4936 116.805 24.4936Z" fill="#F4EBFF"/>
<path d="M129.506 24.4936C130.884 24.4936 132 23.3772 132 22.0001C132 20.623 130.884 19.5066 129.506 19.5066C128.129 19.5066 127.013 20.623 127.013 22.0001C127.013 23.3772 128.129 24.4936 129.506 24.4936Z" fill="#F4EBFF"/>
<path d="M2.49348 36.3932C3.87059 36.3932 4.98696 35.2768 4.98696 33.8997C4.98696 32.5226 3.87059 31.4062 2.49348 31.4062C1.11637 31.4062 0 32.5226 0 33.8997C0 35.2768 1.11637 36.3932 2.49348 36.3932Z" fill="#F4EBFF"/>
<path d="M15.1944 36.3932C16.5715 36.3932 17.6879 35.2768 17.6879 33.8997C17.6879 32.5226 16.5715 31.4062 15.1944 31.4062C13.8173 31.4062 12.7009 32.5226 12.7009 33.8997C12.7009 35.2768 13.8173 36.3932 15.1944 36.3932Z" fill="#F4EBFF"/>
<path d="M27.8956 36.3932C29.2727 36.3932 30.3891 35.2768 30.3891 33.8997C30.3891 32.5226 29.2727 31.4062 27.8956 31.4062C26.5185 31.4062 25.4021 32.5226 25.4021 33.8997C25.4021 35.2768 26.5185 36.3932 27.8956 36.3932Z" fill="#F4EBFF"/>
<path d="M40.598 36.3932C41.9751 36.3932 43.0915 35.2768 43.0915 33.8997C43.0915 32.5226 41.9751 31.4062 40.598 31.4062C39.2209 31.4062 38.1045 32.5226 38.1045 33.8997C38.1045 35.2768 39.2209 36.3932 40.598 36.3932Z" fill="#F4EBFF"/>
<path d="M53.2989 36.3932C54.676 36.3932 55.7924 35.2768 55.7924 33.8997C55.7924 32.5226 54.676 31.4062 53.2989 31.4062C51.9218 31.4062 50.8054 32.5226 50.8054 33.8997C50.8054 35.2768 51.9218 36.3932 53.2989 36.3932Z" fill="#F4EBFF"/>
<path d="M66.0001 36.3932C67.3772 36.3932 68.4936 35.2768 68.4936 33.8997C68.4936 32.5226 67.3772 31.4062 66.0001 31.4062C64.623 31.4062 63.5066 32.5226 63.5066 33.8997C63.5066 35.2768 64.623 36.3932 66.0001 36.3932Z" fill="#F4EBFF"/>
<path d="M78.701 36.3932C80.0781 36.3932 81.1945 35.2768 81.1945 33.8997C81.1945 32.5226 80.0781 31.4062 78.701 31.4062C77.3239 31.4062 76.2075 32.5226 76.2075 33.8997C76.2075 35.2768 77.3239 36.3932 78.701 36.3932Z" fill="#F4EBFF"/>
<path d="M91.4022 36.3932C92.7793 36.3932 93.8957 35.2768 93.8957 33.8997C93.8957 32.5226 92.7793 31.4062 91.4022 31.4062C90.0251 31.4062 88.9087 32.5226 88.9087 33.8997C88.9087 35.2768 90.0251 36.3932 91.4022 36.3932Z" fill="#F4EBFF"/>
<path d="M104.104 36.3932C105.481 36.3932 106.598 35.2768 106.598 33.8997C106.598 32.5226 105.481 31.4062 104.104 31.4062C102.727 31.4062 101.611 32.5226 101.611 33.8997C101.611 35.2768 102.727 36.3932 104.104 36.3932Z" fill="#F4EBFF"/>
<path d="M116.805 36.3932C118.183 36.3932 119.299 35.2768 119.299 33.8997C119.299 32.5226 118.183 31.4062 116.805 31.4062C115.428 31.4062 114.312 32.5226 114.312 33.8997C114.312 35.2768 115.428 36.3932 116.805 36.3932Z" fill="#F4EBFF"/>
<path d="M129.506 36.3932C130.884 36.3932 132 35.2768 132 33.8997C132 32.5226 130.884 31.4062 129.506 31.4062C128.129 31.4062 127.013 32.5226 127.013 33.8997C127.013 35.2768 128.129 36.3932 129.506 36.3932Z" fill="#F4EBFF"/>
<path d="M2.49348 48.2943C3.87059 48.2943 4.98696 47.178 4.98696 45.8009C4.98696 44.4237 3.87059 43.3074 2.49348 43.3074C1.11637 43.3074 0 44.4237 0 45.8009C0 47.178 1.11637 48.2943 2.49348 48.2943Z" fill="#F4EBFF"/>
<path d="M15.1944 48.2943C16.5715 48.2943 17.6879 47.178 17.6879 45.8009C17.6879 44.4237 16.5715 43.3074 15.1944 43.3074C13.8173 43.3074 12.7009 44.4237 12.7009 45.8009C12.7009 47.178 13.8173 48.2943 15.1944 48.2943Z" fill="#F4EBFF"/>
<path d="M27.8956 48.2943C29.2727 48.2943 30.3891 47.178 30.3891 45.8009C30.3891 44.4237 29.2727 43.3074 27.8956 43.3074C26.5185 43.3074 25.4021 44.4237 25.4021 45.8009C25.4021 47.178 26.5185 48.2943 27.8956 48.2943Z" fill="#F4EBFF"/>
<path d="M40.598 48.2943C41.9751 48.2943 43.0915 47.178 43.0915 45.8009C43.0915 44.4237 41.9751 43.3074 40.598 43.3074C39.2209 43.3074 38.1045 44.4237 38.1045 45.8009C38.1045 47.178 39.2209 48.2943 40.598 48.2943Z" fill="#F4EBFF"/>
<path d="M53.2989 48.2943C54.676 48.2943 55.7924 47.178 55.7924 45.8009C55.7924 44.4237 54.676 43.3074 53.2989 43.3074C51.9218 43.3074 50.8054 44.4237 50.8054 45.8009C50.8054 47.178 51.9218 48.2943 53.2989 48.2943Z" fill="#F4EBFF"/>
<path d="M66.0001 48.2943C67.3772 48.2943 68.4936 47.178 68.4936 45.8009C68.4936 44.4237 67.3772 43.3074 66.0001 43.3074C64.623 43.3074 63.5066 44.4237 63.5066 45.8009C63.5066 47.178 64.623 48.2943 66.0001 48.2943Z" fill="#F4EBFF"/>
<path d="M78.701 48.2943C80.0781 48.2943 81.1945 47.178 81.1945 45.8009C81.1945 44.4237 80.0781 43.3074 78.701 43.3074C77.3239 43.3074 76.2075 44.4237 76.2075 45.8009C76.2075 47.178 77.3239 48.2943 78.701 48.2943Z" fill="#F4EBFF"/>
<path d="M91.4022 48.2943C92.7793 48.2943 93.8957 47.178 93.8957 45.8009C93.8957 44.4237 92.7793 43.3074 91.4022 43.3074C90.0251 43.3074 88.9087 44.4237 88.9087 45.8009C88.9087 47.178 90.0251 48.2943 91.4022 48.2943Z" fill="#F4EBFF"/>
<path d="M104.104 48.2943C105.481 48.2943 106.598 47.178 106.598 45.8009C106.598 44.4237 105.481 43.3074 104.104 43.3074C102.727 43.3074 101.611 44.4237 101.611 45.8009C101.611 47.178 102.727 48.2943 104.104 48.2943Z" fill="#F4EBFF"/>
<path d="M116.805 48.2943C118.183 48.2943 119.299 47.178 119.299 45.8009C119.299 44.4237 118.183 43.3074 116.805 43.3074C115.428 43.3074 114.312 44.4237 114.312 45.8009C114.312 47.178 115.428 48.2943 116.805 48.2943Z" fill="#F4EBFF"/>
<path d="M129.506 48.2943C130.884 48.2943 132 47.178 132 45.8009C132 44.4237 130.884 43.3074 129.506 43.3074C128.129 43.3074 127.013 44.4237 127.013 45.8009C127.013 47.178 128.129 48.2943 129.506 48.2943Z" fill="#F4EBFF"/>
<path d="M2.49348 60.1942C3.87059 60.1942 4.98696 59.0779 4.98696 57.7008C4.98696 56.3236 3.87059 55.2073 2.49348 55.2073C1.11637 55.2073 0 56.3236 0 57.7008C0 59.0779 1.11637 60.1942 2.49348 60.1942Z" fill="#F4EBFF"/>
<path d="M15.1944 60.1942C16.5715 60.1942 17.6879 59.0779 17.6879 57.7008C17.6879 56.3236 16.5715 55.2073 15.1944 55.2073C13.8173 55.2073 12.7009 56.3236 12.7009 57.7008C12.7009 59.0779 13.8173 60.1942 15.1944 60.1942Z" fill="#F4EBFF"/>
<path d="M27.8956 60.1942C29.2727 60.1942 30.3891 59.0779 30.3891 57.7008C30.3891 56.3236 29.2727 55.2073 27.8956 55.2073C26.5185 55.2073 25.4021 56.3236 25.4021 57.7008C25.4021 59.0779 26.5185 60.1942 27.8956 60.1942Z" fill="#F4EBFF"/>
<path d="M40.598 60.1942C41.9751 60.1942 43.0915 59.0779 43.0915 57.7008C43.0915 56.3236 41.9751 55.2073 40.598 55.2073C39.2209 55.2073 38.1045 56.3236 38.1045 57.7008C38.1045 59.0779 39.2209 60.1942 40.598 60.1942Z" fill="#F4EBFF"/>
<path d="M53.2989 60.1942C54.676 60.1942 55.7924 59.0779 55.7924 57.7008C55.7924 56.3236 54.676 55.2073 53.2989 55.2073C51.9218 55.2073 50.8054 56.3236 50.8054 57.7008C50.8054 59.0779 51.9218 60.1942 53.2989 60.1942Z" fill="#F4EBFF"/>
<path d="M66.0001 60.1942C67.3772 60.1942 68.4936 59.0779 68.4936 57.7008C68.4936 56.3236 67.3772 55.2073 66.0001 55.2073C64.623 55.2073 63.5066 56.3236 63.5066 57.7008C63.5066 59.0779 64.623 60.1942 66.0001 60.1942Z" fill="#F4EBFF"/>
<path d="M78.701 60.1942C80.0781 60.1942 81.1945 59.0779 81.1945 57.7008C81.1945 56.3236 80.0781 55.2073 78.701 55.2073C77.3239 55.2073 76.2075 56.3236 76.2075 57.7008C76.2075 59.0779 77.3239 60.1942 78.701 60.1942Z" fill="#F4EBFF"/>
<path d="M91.4022 60.1942C92.7793 60.1942 93.8957 59.0779 93.8957 57.7008C93.8957 56.3236 92.7793 55.2073 91.4022 55.2073C90.0251 55.2073 88.9087 56.3236 88.9087 57.7008C88.9087 59.0779 90.0251 60.1942 91.4022 60.1942Z" fill="#F4EBFF"/>
<path d="M104.104 60.1942C105.481 60.1942 106.598 59.0779 106.598 57.7008C106.598 56.3236 105.481 55.2073 104.104 55.2073C102.727 55.2073 101.611 56.3236 101.611 57.7008C101.611 59.0779 102.727 60.1942 104.104 60.1942Z" fill="#F4EBFF"/>
<path d="M116.805 60.1942C118.183 60.1942 119.299 59.0779 119.299 57.7008C119.299 56.3236 118.183 55.2073 116.805 55.2073C115.428 55.2073 114.312 56.3236 114.312 57.7008C114.312 59.0779 115.428 60.1942 116.805 60.1942Z" fill="#F4EBFF"/>
<path d="M129.506 60.1942C130.884 60.1942 132 59.0779 132 57.7008C132 56.3236 130.884 55.2073 129.506 55.2073C128.129 55.2073 127.013 56.3236 127.013 57.7008C127.013 59.0779 128.129 60.1942 129.506 60.1942Z" fill="#F4EBFF"/>
<path d="M2.49348 72.0939C3.87059 72.0939 4.98696 70.9775 4.98696 69.6004C4.98696 68.2233 3.87059 67.1069 2.49348 67.1069C1.11637 67.1069 0 68.2233 0 69.6004C0 70.9775 1.11637 72.0939 2.49348 72.0939Z" fill="#F4EBFF"/>
<path d="M15.1944 72.0939C16.5715 72.0939 17.6879 70.9775 17.6879 69.6004C17.6879 68.2233 16.5715 67.1069 15.1944 67.1069C13.8173 67.1069 12.7009 68.2233 12.7009 69.6004C12.7009 70.9775 13.8173 72.0939 15.1944 72.0939Z" fill="#F4EBFF"/>
<path d="M27.8956 72.0939C29.2727 72.0939 30.3891 70.9775 30.3891 69.6004C30.3891 68.2233 29.2727 67.1069 27.8956 67.1069C26.5185 67.1069 25.4021 68.2233 25.4021 69.6004C25.4021 70.9775 26.5185 72.0939 27.8956 72.0939Z" fill="#F4EBFF"/>
<path d="M40.598 72.0939C41.9751 72.0939 43.0915 70.9775 43.0915 69.6004C43.0915 68.2233 41.9751 67.1069 40.598 67.1069C39.2209 67.1069 38.1045 68.2233 38.1045 69.6004C38.1045 70.9775 39.2209 72.0939 40.598 72.0939Z" fill="#F4EBFF"/>
<path d="M53.2989 72.0939C54.676 72.0939 55.7924 70.9775 55.7924 69.6004C55.7924 68.2233 54.676 67.1069 53.2989 67.1069C51.9218 67.1069 50.8054 68.2233 50.8054 69.6004C50.8054 70.9775 51.9218 72.0939 53.2989 72.0939Z" fill="#F4EBFF"/>
<path d="M66.0001 72.0939C67.3772 72.0939 68.4936 70.9775 68.4936 69.6004C68.4936 68.2233 67.3772 67.1069 66.0001 67.1069C64.623 67.1069 63.5066 68.2233 63.5066 69.6004C63.5066 70.9775 64.623 72.0939 66.0001 72.0939Z" fill="#F4EBFF"/>
<path d="M78.701 72.0939C80.0781 72.0939 81.1945 70.9775 81.1945 69.6004C81.1945 68.2233 80.0781 67.1069 78.701 67.1069C77.3239 67.1069 76.2075 68.2233 76.2075 69.6004C76.2075 70.9775 77.3239 72.0939 78.701 72.0939Z" fill="#F4EBFF"/>
<path d="M91.4022 72.0939C92.7793 72.0939 93.8957 70.9775 93.8957 69.6004C93.8957 68.2233 92.7793 67.1069 91.4022 67.1069C90.0251 67.1069 88.9087 68.2233 88.9087 69.6004C88.9087 70.9775 90.0251 72.0939 91.4022 72.0939Z" fill="#F4EBFF"/>
<path d="M104.104 72.0939C105.481 72.0939 106.598 70.9775 106.598 69.6004C106.598 68.2233 105.481 67.1069 104.104 67.1069C102.727 67.1069 101.611 68.2233 101.611 69.6004C101.611 70.9775 102.727 72.0939 104.104 72.0939Z" fill="#F4EBFF"/>
<path d="M116.805 72.0939C118.183 72.0939 119.299 70.9775 119.299 69.6004C119.299 68.2233 118.183 67.1069 116.805 67.1069C115.428 67.1069 114.312 68.2233 114.312 69.6004C114.312 70.9775 115.428 72.0939 116.805 72.0939Z" fill="#F4EBFF"/>
<path d="M129.506 72.0939C130.884 72.0939 132 70.9775 132 69.6004C132 68.2233 130.884 67.1069 129.506 67.1069C128.129 67.1069 127.013 68.2233 127.013 69.6004C127.013 70.9775 128.129 72.0939 129.506 72.0939Z" fill="#F4EBFF"/>
</svg>
