<svg width="129" height="129" viewBox="0 0 129 129" fill="none" xmlns="http://www.w3.org/2000/svg">
<g clip-path="url(#clip0_758_2462)">
<path d="M102.984 0.174316H0V103.235H102.984V0.174316Z" fill="#F4EBFF"/>
<path opacity="0.6" d="M28.7107 31.3991C30.2172 31.3991 31.4385 30.1769 31.4385 28.6693C31.4385 27.1616 30.2172 25.9395 28.7107 25.9395C27.2042 25.9395 25.9829 27.1616 25.9829 28.6693C25.9829 30.1769 27.2042 31.3991 28.7107 31.3991Z" fill="#6F2DBD"/>
<path opacity="0.6" d="M42.6096 31.3991C44.1161 31.3991 45.3374 30.1769 45.3374 28.6693C45.3374 27.1616 44.1161 25.9395 42.6096 25.9395C41.1031 25.9395 39.8818 27.1616 39.8818 28.6693C39.8818 30.1769 41.1031 31.3991 42.6096 31.3991Z" fill="#6F2DBD"/>
<path opacity="0.6" d="M56.5085 31.3991C58.0151 31.3991 59.2363 30.1769 59.2363 28.6693C59.2363 27.1616 58.0151 25.9395 56.5085 25.9395C55.002 25.9395 53.7808 27.1616 53.7808 28.6693C53.7808 30.1769 55.002 31.3991 56.5085 31.3991Z" fill="#6F2DBD"/>
<path opacity="0.6" d="M70.4062 31.3991C71.9128 31.3991 73.134 30.1769 73.134 28.6693C73.134 27.1616 71.9128 25.9395 70.4062 25.9395C68.8997 25.9395 67.6785 27.1616 67.6785 28.6693C67.6785 30.1769 68.8997 31.3991 70.4062 31.3991Z" fill="#6F2DBD"/>
<path opacity="0.6" d="M84.3052 31.3991C85.8117 31.3991 87.033 30.1769 87.033 28.6693C87.033 27.1616 85.8117 25.9395 84.3052 25.9395C82.7987 25.9395 81.5774 27.1616 81.5774 28.6693C81.5774 30.1769 82.7987 31.3991 84.3052 31.3991Z" fill="#6F2DBD"/>
<path opacity="0.6" d="M98.2041 31.3991C99.7106 31.3991 100.932 30.1769 100.932 28.6693C100.932 27.1616 99.7106 25.9395 98.2041 25.9395C96.6976 25.9395 95.4763 27.1616 95.4763 28.6693C95.4763 30.1769 96.6976 31.3991 98.2041 31.3991Z" fill="#6F2DBD"/>
<path opacity="0.6" d="M112.103 31.3991C113.61 31.3991 114.831 30.1769 114.831 28.6693C114.831 27.1616 113.61 25.9395 112.103 25.9395C110.597 25.9395 109.375 27.1616 109.375 28.6693C109.375 30.1769 110.597 31.3991 112.103 31.3991Z" fill="#6F2DBD"/>
<path opacity="0.6" d="M126.002 31.3991C127.508 31.3991 128.73 30.1769 128.73 28.6693C128.73 27.1616 127.508 25.9395 126.002 25.9395C124.495 25.9395 123.274 27.1616 123.274 28.6693C123.274 30.1769 124.495 31.3991 126.002 31.3991Z" fill="#6F2DBD"/>
<path opacity="0.6" d="M28.7107 45.342C30.2172 45.342 31.4385 44.1198 31.4385 42.6121C31.4385 41.1045 30.2172 39.8823 28.7107 39.8823C27.2042 39.8823 25.9829 41.1045 25.9829 42.6121C25.9829 44.1198 27.2042 45.342 28.7107 45.342Z" fill="#6F2DBD"/>
<path opacity="0.6" d="M42.6096 45.342C44.1161 45.342 45.3374 44.1198 45.3374 42.6121C45.3374 41.1045 44.1161 39.8823 42.6096 39.8823C41.1031 39.8823 39.8818 41.1045 39.8818 42.6121C39.8818 44.1198 41.1031 45.342 42.6096 45.342Z" fill="#6F2DBD"/>
<path opacity="0.6" d="M56.5085 45.342C58.0151 45.342 59.2363 44.1198 59.2363 42.6121C59.2363 41.1045 58.0151 39.8823 56.5085 39.8823C55.002 39.8823 53.7808 41.1045 53.7808 42.6121C53.7808 44.1198 55.002 45.342 56.5085 45.342Z" fill="#6F2DBD"/>
<path opacity="0.6" d="M70.4062 45.342C71.9128 45.342 73.134 44.1198 73.134 42.6121C73.134 41.1045 71.9128 39.8823 70.4062 39.8823C68.8997 39.8823 67.6785 41.1045 67.6785 42.6121C67.6785 44.1198 68.8997 45.342 70.4062 45.342Z" fill="#6F2DBD"/>
<path opacity="0.6" d="M84.3052 45.342C85.8117 45.342 87.033 44.1198 87.033 42.6121C87.033 41.1045 85.8117 39.8823 84.3052 39.8823C82.7987 39.8823 81.5774 41.1045 81.5774 42.6121C81.5774 44.1198 82.7987 45.342 84.3052 45.342Z" fill="#6F2DBD"/>
<path opacity="0.6" d="M98.2041 45.342C99.7106 45.342 100.932 44.1198 100.932 42.6121C100.932 41.1045 99.7106 39.8823 98.2041 39.8823C96.6976 39.8823 95.4763 41.1045 95.4763 42.6121C95.4763 44.1198 96.6976 45.342 98.2041 45.342Z" fill="#6F2DBD"/>
<path opacity="0.6" d="M112.103 45.342C113.61 45.342 114.831 44.1198 114.831 42.6121C114.831 41.1045 113.61 39.8823 112.103 39.8823C110.597 39.8823 109.375 41.1045 109.375 42.6121C109.375 44.1198 110.597 45.342 112.103 45.342Z" fill="#6F2DBD"/>
<path opacity="0.6" d="M126.002 45.342C127.508 45.342 128.73 44.1198 128.73 42.6121C128.73 41.1045 127.508 39.8823 126.002 39.8823C124.495 39.8823 123.274 41.1045 123.274 42.6121C123.274 44.1198 124.495 45.342 126.002 45.342Z" fill="#6F2DBD"/>
<path opacity="0.6" d="M28.7107 59.2848C30.2172 59.2848 31.4385 58.0626 31.4385 56.555C31.4385 55.0474 30.2172 53.8252 28.7107 53.8252C27.2042 53.8252 25.9829 55.0474 25.9829 56.555C25.9829 58.0626 27.2042 59.2848 28.7107 59.2848Z" fill="#6F2DBD"/>
<path opacity="0.6" d="M42.6096 59.2848C44.1161 59.2848 45.3374 58.0626 45.3374 56.555C45.3374 55.0474 44.1161 53.8252 42.6096 53.8252C41.1031 53.8252 39.8818 55.0474 39.8818 56.555C39.8818 58.0626 41.1031 59.2848 42.6096 59.2848Z" fill="#6F2DBD"/>
<path opacity="0.6" d="M56.5085 59.2848C58.0151 59.2848 59.2363 58.0626 59.2363 56.555C59.2363 55.0474 58.0151 53.8252 56.5085 53.8252C55.002 53.8252 53.7808 55.0474 53.7808 56.555C53.7808 58.0626 55.002 59.2848 56.5085 59.2848Z" fill="#6F2DBD"/>
<path opacity="0.6" d="M70.4062 59.2848C71.9128 59.2848 73.134 58.0626 73.134 56.555C73.134 55.0474 71.9128 53.8252 70.4062 53.8252C68.8997 53.8252 67.6785 55.0474 67.6785 56.555C67.6785 58.0626 68.8997 59.2848 70.4062 59.2848Z" fill="#6F2DBD"/>
<path opacity="0.6" d="M84.3052 59.2848C85.8117 59.2848 87.033 58.0626 87.033 56.555C87.033 55.0474 85.8117 53.8252 84.3052 53.8252C82.7987 53.8252 81.5774 55.0474 81.5774 56.555C81.5774 58.0626 82.7987 59.2848 84.3052 59.2848Z" fill="#6F2DBD"/>
<path opacity="0.6" d="M98.2041 59.2848C99.7106 59.2848 100.932 58.0626 100.932 56.555C100.932 55.0474 99.7106 53.8252 98.2041 53.8252C96.6976 53.8252 95.4763 55.0474 95.4763 56.555C95.4763 58.0626 96.6976 59.2848 98.2041 59.2848Z" fill="#6F2DBD"/>
<path opacity="0.6" d="M112.103 59.2848C113.61 59.2848 114.831 58.0626 114.831 56.555C114.831 55.0474 113.61 53.8252 112.103 53.8252C110.597 53.8252 109.375 55.0474 109.375 56.555C109.375 58.0626 110.597 59.2848 112.103 59.2848Z" fill="#6F2DBD"/>
<path opacity="0.6" d="M126.002 59.2848C127.508 59.2848 128.73 58.0626 128.73 56.555C128.73 55.0474 127.508 53.8252 126.002 53.8252C124.495 53.8252 123.274 55.0474 123.274 56.555C123.274 58.0626 124.495 59.2848 126.002 59.2848Z" fill="#6F2DBD"/>
<path opacity="0.6" d="M28.7107 73.2277C30.2172 73.2277 31.4385 72.0055 31.4385 70.4979C31.4385 68.9902 30.2172 67.7681 28.7107 67.7681C27.2042 67.7681 25.9829 68.9902 25.9829 70.4979C25.9829 72.0055 27.2042 73.2277 28.7107 73.2277Z" fill="#6F2DBD"/>
<path opacity="0.6" d="M42.6096 73.2277C44.1161 73.2277 45.3374 72.0055 45.3374 70.4979C45.3374 68.9902 44.1161 67.7681 42.6096 67.7681C41.1031 67.7681 39.8818 68.9902 39.8818 70.4979C39.8818 72.0055 41.1031 73.2277 42.6096 73.2277Z" fill="#6F2DBD"/>
<path opacity="0.6" d="M56.5085 73.2277C58.0151 73.2277 59.2363 72.0055 59.2363 70.4979C59.2363 68.9902 58.0151 67.7681 56.5085 67.7681C55.002 67.7681 53.7808 68.9902 53.7808 70.4979C53.7808 72.0055 55.002 73.2277 56.5085 73.2277Z" fill="#6F2DBD"/>
<path opacity="0.6" d="M70.4062 73.2277C71.9128 73.2277 73.134 72.0055 73.134 70.4979C73.134 68.9902 71.9128 67.7681 70.4062 67.7681C68.8997 67.7681 67.6785 68.9902 67.6785 70.4979C67.6785 72.0055 68.8997 73.2277 70.4062 73.2277Z" fill="#6F2DBD"/>
<path opacity="0.6" d="M84.3052 73.2277C85.8117 73.2277 87.033 72.0055 87.033 70.4979C87.033 68.9902 85.8117 67.7681 84.3052 67.7681C82.7987 67.7681 81.5774 68.9902 81.5774 70.4979C81.5774 72.0055 82.7987 73.2277 84.3052 73.2277Z" fill="#6F2DBD"/>
<path opacity="0.6" d="M98.2041 73.2277C99.7106 73.2277 100.932 72.0055 100.932 70.4979C100.932 68.9902 99.7106 67.7681 98.2041 67.7681C96.6976 67.7681 95.4763 68.9902 95.4763 70.4979C95.4763 72.0055 96.6976 73.2277 98.2041 73.2277Z" fill="#6F2DBD"/>
<path opacity="0.6" d="M112.103 73.2277C113.61 73.2277 114.831 72.0055 114.831 70.4979C114.831 68.9902 113.61 67.7681 112.103 67.7681C110.597 67.7681 109.375 68.9902 109.375 70.4979C109.375 72.0055 110.597 73.2277 112.103 73.2277Z" fill="#6F2DBD"/>
<path opacity="0.6" d="M126.002 73.2277C127.508 73.2277 128.73 72.0055 128.73 70.4979C128.73 68.9902 127.508 67.7681 126.002 67.7681C124.495 67.7681 123.274 68.9902 123.274 70.4979C123.274 72.0055 124.495 73.2277 126.002 73.2277Z" fill="#6F2DBD"/>
<path opacity="0.6" d="M28.7107 87.1715C30.2172 87.1715 31.4385 85.9494 31.4385 84.4417C31.4385 82.9341 30.2172 81.7119 28.7107 81.7119C27.2042 81.7119 25.9829 82.9341 25.9829 84.4417C25.9829 85.9494 27.2042 87.1715 28.7107 87.1715Z" fill="#6F2DBD"/>
<path opacity="0.6" d="M42.6096 87.1715C44.1161 87.1715 45.3374 85.9494 45.3374 84.4417C45.3374 82.9341 44.1161 81.7119 42.6096 81.7119C41.1031 81.7119 39.8818 82.9341 39.8818 84.4417C39.8818 85.9494 41.1031 87.1715 42.6096 87.1715Z" fill="#6F2DBD"/>
<path opacity="0.6" d="M56.5085 87.1715C58.0151 87.1715 59.2363 85.9494 59.2363 84.4417C59.2363 82.9341 58.0151 81.7119 56.5085 81.7119C55.002 81.7119 53.7808 82.9341 53.7808 84.4417C53.7808 85.9494 55.002 87.1715 56.5085 87.1715Z" fill="#6F2DBD"/>
<path opacity="0.6" d="M70.4062 87.1715C71.9128 87.1715 73.134 85.9494 73.134 84.4417C73.134 82.9341 71.9128 81.7119 70.4062 81.7119C68.8997 81.7119 67.6785 82.9341 67.6785 84.4417C67.6785 85.9494 68.8997 87.1715 70.4062 87.1715Z" fill="#6F2DBD"/>
<path opacity="0.6" d="M84.3052 87.1715C85.8117 87.1715 87.033 85.9494 87.033 84.4417C87.033 82.9341 85.8117 81.7119 84.3052 81.7119C82.7987 81.7119 81.5774 82.9341 81.5774 84.4417C81.5774 85.9494 82.7987 87.1715 84.3052 87.1715Z" fill="#6F2DBD"/>
<path opacity="0.6" d="M98.2041 87.1715C99.7106 87.1715 100.932 85.9494 100.932 84.4417C100.932 82.9341 99.7106 81.7119 98.2041 81.7119C96.6976 81.7119 95.4763 82.9341 95.4763 84.4417C95.4763 85.9494 96.6976 87.1715 98.2041 87.1715Z" fill="#6F2DBD"/>
<path opacity="0.6" d="M112.103 87.1715C113.61 87.1715 114.831 85.9494 114.831 84.4417C114.831 82.9341 113.61 81.7119 112.103 81.7119C110.597 81.7119 109.375 82.9341 109.375 84.4417C109.375 85.9494 110.597 87.1715 112.103 87.1715Z" fill="#6F2DBD"/>
<path opacity="0.6" d="M126.002 87.1715C127.508 87.1715 128.73 85.9494 128.73 84.4417C128.73 82.9341 127.508 81.7119 126.002 81.7119C124.495 81.7119 123.274 82.9341 123.274 84.4417C123.274 85.9494 124.495 87.1715 126.002 87.1715Z" fill="#6F2DBD"/>
<path opacity="0.6" d="M28.7107 101.114C30.2172 101.114 31.4385 99.8922 31.4385 98.3846C31.4385 96.877 30.2172 95.6548 28.7107 95.6548C27.2042 95.6548 25.9829 96.877 25.9829 98.3846C25.9829 99.8922 27.2042 101.114 28.7107 101.114Z" fill="#6F2DBD"/>
<path opacity="0.6" d="M42.6096 101.114C44.1161 101.114 45.3374 99.8922 45.3374 98.3846C45.3374 96.877 44.1161 95.6548 42.6096 95.6548C41.1031 95.6548 39.8818 96.877 39.8818 98.3846C39.8818 99.8922 41.1031 101.114 42.6096 101.114Z" fill="#6F2DBD"/>
<path opacity="0.6" d="M56.5085 101.114C58.0151 101.114 59.2363 99.8922 59.2363 98.3846C59.2363 96.877 58.0151 95.6548 56.5085 95.6548C55.002 95.6548 53.7808 96.877 53.7808 98.3846C53.7808 99.8922 55.002 101.114 56.5085 101.114Z" fill="#6F2DBD"/>
<path opacity="0.6" d="M70.4062 101.114C71.9128 101.114 73.134 99.8922 73.134 98.3846C73.134 96.877 71.9128 95.6548 70.4062 95.6548C68.8997 95.6548 67.6785 96.877 67.6785 98.3846C67.6785 99.8922 68.8997 101.114 70.4062 101.114Z" fill="#6F2DBD"/>
<path opacity="0.6" d="M84.3052 101.114C85.8117 101.114 87.033 99.8922 87.033 98.3846C87.033 96.877 85.8117 95.6548 84.3052 95.6548C82.7987 95.6548 81.5774 96.877 81.5774 98.3846C81.5774 99.8922 82.7987 101.114 84.3052 101.114Z" fill="#6F2DBD"/>
<path opacity="0.6" d="M98.2041 101.114C99.7106 101.114 100.932 99.8922 100.932 98.3846C100.932 96.877 99.7106 95.6548 98.2041 95.6548C96.6976 95.6548 95.4763 96.877 95.4763 98.3846C95.4763 99.8922 96.6976 101.114 98.2041 101.114Z" fill="#6F2DBD"/>
<path opacity="0.6" d="M112.103 101.114C113.61 101.114 114.831 99.8922 114.831 98.3846C114.831 96.877 113.61 95.6548 112.103 95.6548C110.597 95.6548 109.375 96.877 109.375 98.3846C109.375 99.8922 110.597 101.114 112.103 101.114Z" fill="#6F2DBD"/>
<path opacity="0.6" d="M126.002 101.114C127.508 101.114 128.73 99.8922 128.73 98.3846C128.73 96.877 127.508 95.6548 126.002 95.6548C124.495 95.6548 123.274 96.877 123.274 98.3846C123.274 99.8922 124.495 101.114 126.002 101.114Z" fill="#6F2DBD"/>
<path opacity="0.6" d="M28.7107 115.057C30.2172 115.057 31.4385 113.835 31.4385 112.327C31.4385 110.82 30.2172 109.598 28.7107 109.598C27.2042 109.598 25.9829 110.82 25.9829 112.327C25.9829 113.835 27.2042 115.057 28.7107 115.057Z" fill="#6F2DBD"/>
<path opacity="0.6" d="M42.6096 115.057C44.1161 115.057 45.3374 113.835 45.3374 112.327C45.3374 110.82 44.1161 109.598 42.6096 109.598C41.1031 109.598 39.8818 110.82 39.8818 112.327C39.8818 113.835 41.1031 115.057 42.6096 115.057Z" fill="#6F2DBD"/>
<path opacity="0.6" d="M56.5085 115.057C58.0151 115.057 59.2363 113.835 59.2363 112.327C59.2363 110.82 58.0151 109.598 56.5085 109.598C55.002 109.598 53.7808 110.82 53.7808 112.327C53.7808 113.835 55.002 115.057 56.5085 115.057Z" fill="#6F2DBD"/>
<path opacity="0.6" d="M70.4062 115.057C71.9128 115.057 73.134 113.835 73.134 112.327C73.134 110.82 71.9128 109.598 70.4062 109.598C68.8997 109.598 67.6785 110.82 67.6785 112.327C67.6785 113.835 68.8997 115.057 70.4062 115.057Z" fill="#6F2DBD"/>
<path opacity="0.6" d="M84.3052 115.057C85.8117 115.057 87.033 113.835 87.033 112.327C87.033 110.82 85.8117 109.598 84.3052 109.598C82.7987 109.598 81.5774 110.82 81.5774 112.327C81.5774 113.835 82.7987 115.057 84.3052 115.057Z" fill="#6F2DBD"/>
<path opacity="0.6" d="M98.2041 115.057C99.7106 115.057 100.932 113.835 100.932 112.327C100.932 110.82 99.7106 109.598 98.2041 109.598C96.6976 109.598 95.4763 110.82 95.4763 112.327C95.4763 113.835 96.6976 115.057 98.2041 115.057Z" fill="#6F2DBD"/>
<path opacity="0.6" d="M112.103 115.057C113.61 115.057 114.831 113.835 114.831 112.327C114.831 110.82 113.61 109.598 112.103 109.598C110.597 109.598 109.375 110.82 109.375 112.327C109.375 113.835 110.597 115.057 112.103 115.057Z" fill="#6F2DBD"/>
<path opacity="0.6" d="M126.002 115.057C127.508 115.057 128.73 113.835 128.73 112.327C128.73 110.82 127.508 109.598 126.002 109.598C124.495 109.598 123.274 110.82 123.274 112.327C123.274 113.835 124.495 115.057 126.002 115.057Z" fill="#6F2DBD"/>
<path opacity="0.6" d="M28.7107 129C30.2172 129 31.4385 127.778 31.4385 126.27C31.4385 124.763 30.2172 123.541 28.7107 123.541C27.2042 123.541 25.9829 124.763 25.9829 126.27C25.9829 127.778 27.2042 129 28.7107 129Z" fill="#6F2DBD"/>
<path opacity="0.6" d="M42.6096 129C44.1161 129 45.3374 127.778 45.3374 126.27C45.3374 124.763 44.1161 123.541 42.6096 123.541C41.1031 123.541 39.8818 124.763 39.8818 126.27C39.8818 127.778 41.1031 129 42.6096 129Z" fill="#6F2DBD"/>
<path opacity="0.6" d="M56.5085 129C58.0151 129 59.2363 127.778 59.2363 126.27C59.2363 124.763 58.0151 123.541 56.5085 123.541C55.002 123.541 53.7808 124.763 53.7808 126.27C53.7808 127.778 55.002 129 56.5085 129Z" fill="#6F2DBD"/>
<path opacity="0.6" d="M70.4062 129C71.9128 129 73.134 127.778 73.134 126.27C73.134 124.763 71.9128 123.541 70.4062 123.541C68.8997 123.541 67.6785 124.763 67.6785 126.27C67.6785 127.778 68.8997 129 70.4062 129Z" fill="#6F2DBD"/>
<path opacity="0.6" d="M84.3052 129C85.8117 129 87.033 127.778 87.033 126.27C87.033 124.763 85.8117 123.541 84.3052 123.541C82.7987 123.541 81.5774 124.763 81.5774 126.27C81.5774 127.778 82.7987 129 84.3052 129Z" fill="#6F2DBD"/>
<path opacity="0.6" d="M98.2041 129C99.7106 129 100.932 127.778 100.932 126.27C100.932 124.763 99.7106 123.541 98.2041 123.541C96.6976 123.541 95.4763 124.763 95.4763 126.27C95.4763 127.778 96.6976 129 98.2041 129Z" fill="#6F2DBD"/>
<path opacity="0.6" d="M112.103 129C113.61 129 114.831 127.778 114.831 126.27C114.831 124.763 113.61 123.541 112.103 123.541C110.597 123.541 109.375 124.763 109.375 126.27C109.375 127.778 110.597 129 112.103 129Z" fill="#6F2DBD"/>
<path opacity="0.6" d="M126.002 129C127.508 129 128.73 127.778 128.73 126.27C128.73 124.763 127.508 123.541 126.002 123.541C124.495 123.541 123.274 124.763 123.274 126.27C123.274 127.778 124.495 129 126.002 129Z" fill="#6F2DBD"/>
</g>
<defs>
<clipPath id="clip0_758_2462">
<rect width="128.73" height="128.826" fill="white" transform="translate(0 0.174316)"/>
</clipPath>
</defs>
</svg>
