<svg width="50" height="95" viewBox="0 0 50 95" fill="none" xmlns="http://www.w3.org/2000/svg">
<path d="M12.6 63.7C17.9 61.9 23.2 59.8 28.2 57.5C28.7 57.3 29 56.8 29 56.4C35.1 41.8 43 28.1 49.1 13.5C49.4 12.8 49.1 12.3 48.7 12C48.6 11.9 48.5 11.9 48.4 11.8C40.8 7.89999 33.1 4.09998 25.5 0.199982C25.2 -1.83135e-05 24.8 0 24.5 0C24.1 0 23.7 0.199982 23.4 0.699982C15.1 13.9 8.69999 28.3 0.399994 41.5C0.0999939 41.7 0 42 0 42.4C0 42.6 6.10203e-06 42.9 0.100006 43.1C0.500006 46.4 0.899994 49.7 1.39999 53C1.79999 55.6 1.79999 61 3.39999 63.7C1.99999 68.4 3.6 73.7 9 76.2C13.3 78.2 18.3 77.3 22.9 77.3C26 77.3 29.4 77.6 31.7 80C35.6 84.2 33.2 89.9 28.5 92C26.7 92.8 28.3 95.4 30 94.6C37.2 91.5 39.1 81.7 32.5 76.8C28.9 74.2 24.3 74.3 20.1 74.5C17.6 74.6 14.8 74.9 12.3 74.2C7.99999 73 5.5 69.2 6 65.5C8.2 65.6 11 64.2 12.6 63.7ZM3.2 43.1C11.2 30.2 17.5 16.4 25.4 3.5C32.2 7 39 10.3 45.8 13.8C39.8 27.8 32.3 41.1 26.4 55.1C22.3 57 18.1 58.6 13.9 60.1C12 60.8 10.1 61.5 8.2 62C7.8 62.1 7.6 62.2 7.3 62.3C7.8 61.5 8.5 60.8 9.3 60.2C10.8 59.1 9.3 56.4 7.8 57.6C6.9 58.2 6.20001 59 5.60001 59.7C4.30001 54.3 3.8 48.5 3.2 43.1Z" fill="#F4EBFF"/>
<path d="M13.0001 43.2001C13.8001 43.7001 15.1 43.9001 16.8 44.0001C18.5 44.1001 19.7 44.3001 20.4 44.7001C20.9 45.0001 21.3001 45.4001 21.7001 45.9001C21.8001 46.0001 21.8001 46.2001 21.7001 46.3001C21.6001 46.5001 21.6001 46.6001 21.6001 46.7001C21.7001 47.0001 21.8 47.1001 21.9 47.2001C22.1 47.3001 22.4001 47.3001 22.7001 47.0001C22.8001 46.9001 22.9 46.8001 22.9 46.8001C23 46.6001 23.1001 46.2001 23.0001 45.8001C22.9001 45.2001 22.8001 44.9001 22.7001 44.7001C22.3001 44.1001 21.8001 43.6001 21.2001 43.3001C20.5001 42.9001 19.5001 42.6001 18.1001 42.6001C16.1001 42.5001 15 42.4001 14.9 42.4001C14.6 42.3001 14.3 42.2001 13.9 42.0001C13.1 41.5001 12.5 40.8001 12.3 39.9001C12.3 39.8001 12.3 39.7001 12.3 39.6001C12.3 39.6001 12.4001 39.5001 12.5001 39.4001C12.6001 39.3001 12.6001 39.2001 12.6001 39.1001C12.6001 38.7001 12.5 38.4001 12.3 38.3001C12.2 38.2001 12 38.2001 11.9 38.3001C11.5 38.4001 11.2 38.7001 10.9 39.1001C10.8 39.3001 10.7 39.6001 10.7 39.9001C10.6 40.6001 10.8 41.2001 11.3 41.9001C11.8 42.4001 12.3001 42.8001 13.0001 43.2001Z" fill="#F4EBFF"/>
<path d="M18 36.2002C19.2 37.5002 20 38.3002 20.5 38.8002C20.6 38.9002 20.6 39.0002 20.5 39.2002C20.4 39.4002 20.4 39.5003 20.5 39.6003C20.5 39.7003 20.6 39.7002 20.6 39.8002C20.7 39.8002 20.8 39.8002 21 39.7002C21.2 39.6002 21.4 39.6002 21.4 39.7002C21.7 39.9002 22.2 40.4002 22.8 41.2002C23.3 41.9002 23.8 42.3003 24.2 42.5003C24.4 42.6003 24.7 42.5002 25 42.2002C25.2 42.0002 25.3 41.8003 25.2 41.6003C24.9 41.2003 24.4 40.7003 23.7 40.0003C23 39.3003 22.5 38.8003 22.2 38.5003C22.1 38.1003 22.2 37.7002 22.4 37.3002C22.6 36.9002 22.8 36.5003 22.9 36.1003C23.6 36.2003 24.4 36.4002 25.3 36.7002C26.1 37.0002 26.8 36.9002 27.2 36.4002C27.2 36.3002 27.2 36.2002 27.2 35.9002C27.1 35.6002 27 35.4002 26.8 35.3002C26.7 35.2002 26.5 35.2003 26.3 35.1003C24.3 34.7003 21.9 34.1002 19 33.2002C18.5 33.0002 18.1 32.8003 17.6 32.6003C17 32.4003 16.5 32.4003 16.1 32.5003C15.9 32.6003 15.8 32.7002 15.7 32.8002C15.6 33.0002 15.6 33.2002 15.7 33.3002C16.1 34.3002 16.9 35.1002 18 36.2002ZM20.3 35.4002C20.9 35.6002 21.3 35.8003 21.8 36.0003C21.4 36.7003 21.1 37.2002 21.1 37.4002C20.3 36.7002 19.6 35.9003 18.9 35.0003C19.3 35.1003 19.8 35.2002 20.3 35.4002Z" fill="#F4EBFF"/>
<path d="M20.3001 29.1001C21.1001 29.6001 22.4001 30.4001 24.1001 31.6001C25.7001 32.7001 27.0001 33.5001 28.0001 34.1001C28.0001 34.1001 28.2001 34.1001 28.6001 34.0001C28.9001 34.0001 29.0001 33.9001 29.1001 33.7001C29.1001 33.6001 29.2001 33.6001 29.2001 33.5001C29.3001 32.8001 29.3001 31.9001 29.2001 30.9001C29.0001 29.2001 28.9001 28.3001 28.9001 28.2001C28.8001 28.0001 23.3 23.4001 23 23.4001C22.8 23.4001 23.8 23.0999 29.1001 28.4001C24.3 24.6001 22.2999 21.7999 27 26.8999C22.2999 21.7999 22.5 23.7999 22.5 23.8999C22.5 24.1999 27.6001 29.6001 27.7001 30.4001C27.7001 31.1001 27.7001 31.6001 27.7001 32.0001C26.8001 31.5001 25.5001 30.7001 23.8001 29.6001C22.1001 28.5001 20.8001 27.7001 19.9001 27.2001C19.6001 27.1001 19.3001 27.2001 19.0001 27.7001C18.9001 27.9001 18.8001 28.1001 18.9001 28.4001C19.2001 28.5001 19.7001 28.8001 20.3001 29.1001Z" fill="#F4EBFF"/>
<path d="M24.4001 23.9999C24.7001 24.1999 25.1001 23.9999 25.6001 23.4999C26.5001 24.0999 27.0001 24.3999 27.1001 24.4999C27.2001 24.5999 27.2001 24.6999 27.2001 24.8999C27.2001 25.0999 27.2001 25.1999 27.3001 25.2999C27.5001 25.3999 27.8001 25.3999 28.1001 25.1999C28.8001 25.6999 29.6001 26.1999 30.6001 26.5999C30.9001 26.7999 31.3001 26.7999 31.7001 26.6999C32.1001 26.5999 32.4001 26.3999 32.7001 26.1999C33.5001 25.3999 34.2001 24.2999 35.0001 22.9999C35.1001 22.7999 35.1001 22.5999 35.0001 22.4999C34.9001 22.2999 34.8001 22.1999 34.6001 22.0999C34.0001 21.8999 33.7001 21.9999 33.6001 22.2999C33.6001 22.3999 33.6001 22.4999 33.6001 22.5999C33.6001 22.6999 33.6001 22.8999 33.6001 22.8999C32.9001 24.1999 32.3001 24.9999 31.6001 25.2999C31.4001 25.2999 31.1001 25.1999 30.8001 24.9999C30.3001 24.6999 29.8001 24.2999 29.1001 23.5999C29.2001 23.1999 29.3001 22.7999 29.6001 22.2999C29.9001 21.6999 30.1001 21.2999 30.2001 20.9999C30.3001 20.8999 30.3001 20.6999 30.3001 20.5999C30.2001 20.3999 30.2001 20.2999 30.2001 20.1999C30.2001 20.0999 30.2001 19.9999 30.1001 19.9999C30.0001 19.9999 29.9001 19.9999 29.5001 19.9999C29.2001 20.0999 29.0001 20.3999 28.9001 20.6999C28.8001 20.8999 28.7001 21.0999 28.5001 21.4999C28.4001 21.8999 28.2001 22.0999 28.1001 22.2999C28.0001 22.4999 27.8001 22.6999 27.7001 22.7999C26.8001 22.1999 26.2001 21.7999 25.9001 21.4999C26.0001 20.9999 26.1001 20.2999 26.3001 19.3999C26.5001 18.4999 26.7001 17.7999 26.7001 17.2999C26.7001 17.1999 26.6001 17.0999 26.6001 17.0999C26.5001 17.0999 26.4001 16.9999 26.3001 16.9999C26.2001 16.9999 26.1001 16.9999 26.0001 16.8999C25.6001 17.1999 25.2001 17.3999 25.1001 17.6999C25.1001 17.7999 25.0001 17.7999 25.0001 17.8999C24.8001 18.4999 24.7001 19.0999 24.5001 19.6999C24.3001 20.3999 24.2001 20.9999 24.2001 21.4999C24.1001 21.8999 24.1001 22.3999 24.0001 22.7999C23.9001 23.4999 24.1001 23.7999 24.4001 23.9999Z" fill="#F4EBFF"/>
<path d="M27.8001 8.40014C31.8001 10.6001 35.8001 12.8001 39.8001 15.0001C40.3001 15.3001 40.7001 14.5001 40.2001 14.3001C36.2001 12.1001 32.2001 9.90013 28.2001 7.70013C27.7001 7.40013 27.3001 8.10014 27.8001 8.40014Z" fill="#F4EBFF"/>
<path d="M36.2 15.6999C35.5 15.2999 34.8 14.8999 34.1 14.4999C33.6 14.1999 33.2 14.8999 33.7 15.1999C34.4 15.5999 35.1 15.9999 35.8 16.3999C36.3 16.6999 36.7 15.8999 36.2 15.6999Z" fill="#F4EBFF"/>
<path d="M18.5001 54.4998C17.2001 54.8998 15.8001 55.3998 14.5001 55.7998C14.0001 55.9998 14.2001 56.7998 14.7001 56.5998C16.0001 56.1998 17.4001 55.6998 18.7001 55.2998C19.2001 55.1998 19.0001 54.3998 18.5001 54.4998Z" fill="#F4EBFF"/>
<path d="M10.7999 54.5999C11.1999 54.3999 11.6999 54.0999 12.0999 53.8999C12.5999 53.6999 12.1999 52.8998 11.6999 53.1998C11.2999 53.3998 10.7999 53.6999 10.3999 53.8999C9.89988 54.0999 10.3999 54.8999 10.7999 54.5999Z" fill="#F4EBFF"/>
</svg>
