<svg width="84" height="84" viewBox="0 0 84 84" fill="none" xmlns="http://www.w3.org/2000/svg">
<path d="M55.0096 8.64675C55.1109 8.3172 55.1463 7.97091 55.1139 7.62766C55.0814 7.28441 54.9816 6.95092 54.8202 6.64623C54.6589 6.34153 54.4391 6.07161 54.1734 5.85186C53.9077 5.63211 53.6014 5.46685 53.2718 5.3655C52.9423 5.26415 52.596 5.22871 52.2527 5.26119C51.9095 5.29367 51.576 5.39344 51.2713 5.55481C50.9666 5.71617 50.6967 5.93597 50.4769 6.20165C50.2572 6.46733 50.0919 6.7737 49.9906 7.10325L28.9906 75.3532C28.7859 76.0188 28.854 76.7384 29.1799 77.3538C29.5058 77.9691 30.0627 78.4298 30.7283 78.6345C31.3939 78.8392 32.1135 78.7711 32.7288 78.4452C33.3442 78.1193 33.8049 77.5623 34.0096 76.8968L55.0096 8.64675ZM25.4836 21.7665C25.728 22.0103 25.922 22.3 26.0543 22.6189C26.1866 22.9378 26.2547 23.2797 26.2547 23.625C26.2547 23.9703 26.1866 24.3122 26.0543 24.6311C25.922 24.95 25.728 25.2397 25.4836 25.4835L8.9618 42L25.4836 58.5165C25.9765 59.0094 26.2534 59.6779 26.2534 60.375C26.2534 61.0721 25.9765 61.7406 25.4836 62.2335C24.9906 62.7264 24.3221 63.0033 23.6251 63.0033C22.928 63.0033 22.2595 62.7264 21.7666 62.2335L3.39155 43.8585C3.1471 43.6147 2.95315 43.325 2.82081 43.0061C2.68848 42.6872 2.62036 42.3453 2.62036 42C2.62036 41.6547 2.68848 41.3128 2.82081 40.9939C2.95315 40.675 3.1471 40.3853 3.39155 40.1415L21.7666 21.7665C22.0104 21.522 22.3001 21.3281 22.619 21.1958C22.9379 21.0634 23.2798 20.9953 23.6251 20.9953C23.9703 20.9953 24.3122 21.0634 24.6311 21.1958C24.95 21.3281 25.2397 21.522 25.4836 21.7665ZM58.5166 21.7665C58.2721 22.0103 58.0781 22.3 57.9458 22.6189C57.8135 22.9378 57.7454 23.2797 57.7454 23.625C57.7454 23.9703 57.8135 24.3122 57.9458 24.6311C58.0781 24.95 58.2721 25.2397 58.5166 25.4835L75.0383 42L58.5166 58.5165C58.2725 58.7606 58.0789 59.0503 57.9468 59.3692C57.8147 59.6881 57.7467 60.0298 57.7467 60.375C57.7467 60.7202 57.8147 61.0619 57.9468 61.3808C58.0789 61.6997 58.2725 61.9894 58.5166 62.2335C58.7606 62.4776 59.0504 62.6712 59.3692 62.8032C59.6881 62.9353 60.0299 63.0033 60.3751 63.0033C60.7202 63.0033 61.062 62.9353 61.3809 62.8032C61.6997 62.6712 61.9895 62.4776 62.2336 62.2335L80.6086 43.8585C80.853 43.6147 81.047 43.325 81.1793 43.0061C81.3116 42.6872 81.3797 42.3453 81.3797 42C81.3797 41.6547 81.3116 41.3128 81.1793 40.9939C81.047 40.675 80.853 40.3853 80.6086 40.1415L62.2336 21.7665C61.9897 21.522 61.7 21.3281 61.3811 21.1958C61.0622 21.0634 60.7203 20.9953 60.3751 20.9953C60.0298 20.9953 59.6879 21.0634 59.369 21.1958C59.0501 21.3281 58.7604 21.522 58.5166 21.7665Z" fill="#392D69"/>
</svg>
