<svg width="25" height="20" viewBox="0 0 25 20" fill="none" xmlns="http://www.w3.org/2000/svg">
<path fill-rule="evenodd" clip-rule="evenodd" d="M24.58 2.60986C23.7 2.98986 22.75 3.24988 21.75 3.37988C22.78 2.76988 23.56 1.82969 23.93 0.679688C22.98 1.23969 21.91 1.64963 20.78 1.86963C19.89 0.919629 18.6 0.32959 17.16 0.32959C14.44 0.32959 12.22 2.50994 12.22 5.18994C12.22 5.57994 12.29 5.9498 12.36 6.2998C8.24999 6.0998 4.59998 4.16973 2.16998 1.21973C1.74998 1.94973 1.48999 2.76967 1.48999 3.65967C1.48999 5.35967 2.37999 6.84996 3.67999 7.70996C2.86999 7.69996 2.10995 7.46986 1.44995 7.10986C1.44995 7.13986 1.44995 7.14969 1.44995 7.17969C1.44995 7.80969 1.56998 8.37969 1.78998 8.92969C2.38998 10.4597 3.75998 11.6097 5.41998 11.9297C4.98998 12.0497 4.56999 12.1099 4.10999 12.1099C3.79999 12.1099 3.47999 12.0698 3.17999 12.0098C3.81999 13.9398 5.63998 15.3497 7.78998 15.4097C6.08998 16.7197 3.97997 17.4897 1.65997 17.4897C1.24997 17.4897 0.879971 17.4599 0.469971 17.4199C2.65997 18.7899 5.25999 19.5996 8.04999 19.5996C15.77 19.5996 20.54 14.26 21.78 8.70996C22 7.71996 22.11 6.74002 22.11 5.77002C22.11 5.56002 22.11 5.33965 22.11 5.13965C23.08 4.43965 23.93 3.57986 24.58 2.60986Z" fill="#392D69"/>
</svg>
