<svg width="90" height="90" viewBox="0 0 90 90" fill="none" xmlns="http://www.w3.org/2000/svg">
<path d="M60 78.75V71.25C60 67.2718 58.4196 63.4564 55.6066 60.6434C52.7936 57.8304 48.9782 56.25 45 56.25H18.75C14.7718 56.25 10.9564 57.8304 8.1434 60.6434C5.33035 63.4564 3.75 67.2718 3.75 71.25V78.75" stroke="#392D69" stroke-width="6" stroke-linecap="round" stroke-linejoin="round"/>
<path d="M31.875 41.25C40.1593 41.25 46.875 34.5343 46.875 26.25C46.875 17.9657 40.1593 11.25 31.875 11.25C23.5907 11.25 16.875 17.9657 16.875 26.25C16.875 34.5343 23.5907 41.25 31.875 41.25Z" stroke="#392D69" stroke-width="6" stroke-linecap="round" stroke-linejoin="round"/>
<path d="M63.75 41.25L71.25 48.75L86.25 33.75" stroke="#392D69" stroke-width="6" stroke-linecap="round" stroke-linejoin="round"/>
</svg>
